<svg width="87" height="106" viewBox="0 0 87 106" fill="none" xmlns="http://www.w3.org/2000/svg">
<path d="M74.6132 31.958C74.5352 29.67 74.5822 27.3582 74.2922 25.0962C73.5712 19.4242 72.6712 13.7758 71.8922 8.11279C71.6988 6.23377 70.8221 4.49161 69.4286 3.21631C68.0352 1.94101 66.222 1.22141 64.3332 1.19482C57.3692 0.999824 50.4052 0.843086 43.4332 0.663086C36.4772 0.843086 29.5132 0.999824 22.5492 1.19482C20.7145 1.20523 18.9451 1.8774 17.5663 3.08789C16.1876 4.29839 15.292 5.96623 15.0442 7.78418C14.5042 11.2302 14.0442 14.6928 13.5562 18.1548C13.1802 20.7868 12.6312 23.4189 12.4982 26.0669C12.1692 32.4749 12.0442 38.898 11.8562 45.314C11.8649 45.6452 12.0027 45.9599 12.2402 46.1909C15.7575 49.4656 19.2878 52.7241 22.8312 55.9668C23.4712 56.5329 23.897 57.3021 24.0372 58.145C25.1958 64.1224 26.3625 70.0965 27.5372 76.0679C27.8272 77.5679 27.8372 77.5679 29.3462 77.5679C38.7382 77.5679 48.1305 77.5654 57.5232 77.5601C57.8452 77.5601 58.1732 77.4888 58.4952 77.4888C58.9492 77.4968 59.1142 77.3092 59.2002 76.8472C60.4002 70.6112 61.6282 64.3838 62.8352 58.1558C62.975 57.3105 63.4007 56.5392 64.0412 55.9702C67.5502 52.7592 71.0412 49.523 74.5612 46.312C74.725 46.1775 74.854 46.0055 74.9373 45.8105C75.0205 45.6156 75.0555 45.4033 75.0392 45.1919C74.8792 40.7779 74.7622 36.368 74.6132 31.958ZM58.3512 77.0942H28.5292C28.3562 75.9352 28.1922 74.7758 28.0192 73.5688H58.8362C58.6722 74.7758 58.5152 75.9192 58.3512 77.0942ZM59.1182 71.5249C59.1032 71.6419 58.8052 71.7752 58.6332 71.7832C57.5832 71.8072 56.5412 71.791 55.4912 71.791C46.4912 71.791 37.4959 71.7935 28.5052 71.7988C27.9492 71.7988 27.6982 71.6991 27.6592 71.0781C27.5962 70.1461 27.4082 69.2221 27.2682 68.2031H59.5882C59.4402 69.3391 59.3002 70.4359 59.1182 71.5249ZM59.8552 66.4019H27.0172C26.8522 65.2579 26.6882 64.1019 26.5172 62.9019H60.3492C60.1842 64.0909 60.0192 65.2269 59.8552 66.3999V66.4019ZM60.6072 61.0508H26.2572C26.1572 60.3308 26.0572 59.651 25.9572 58.874C27.8165 58.5285 29.6949 58.2946 31.5822 58.1738C39.4855 58.0952 47.3855 58.0952 55.2822 58.1738C57.1691 58.2946 59.0472 58.5286 60.9062 58.874C60.8002 59.657 60.7092 60.3378 60.6072 61.0508ZM71.5072 43.2148C71.5072 43.4338 71.4832 43.6452 71.4832 43.7632C52.7929 42.5813 34.0468 42.5783 15.3562 43.7549V43.1602C15.3562 38.9695 15.3562 34.7758 15.3562 30.5791C15.3217 29.9768 15.4146 29.374 15.629 28.8101C15.8433 28.2461 16.1742 27.734 16.6 27.3066C17.0259 26.8793 17.537 26.5464 18.1002 26.3301C18.6633 26.1138 19.2658 26.0184 19.8682 26.0508H66.9792C67.5818 26.0179 68.1845 26.1127 68.7482 26.3281C69.3119 26.5436 69.8239 26.8749 70.251 27.3013C70.6781 27.7276 71.0107 28.2394 71.2271 28.8027C71.4435 29.3661 71.539 29.9682 71.5072 30.5708V43.2148Z" fill="#47ABD8"/>
<path d="M79.485 75.7998C73.955 76.5908 68.425 77.3742 62.894 78.1812C60.0733 78.6383 57.2215 78.8766 54.3641 78.894C46.5221 78.824 38.681 78.8711 30.832 78.8711C30.114 78.9142 29.3939 78.9063 28.6771 78.8472C23.4211 78.1112 18.1771 77.3468 12.9241 76.5908C11.0241 76.3168 9.13305 76.0512 7.25305 75.7842C7.21405 75.8782 7.17407 75.9172 7.17407 75.9492C7.19807 76.6492 7.21406 77.3488 7.24506 78.0488C7.40365 83.2666 8.02747 88.46 9.10907 93.5669C9.15734 94.0376 9.29855 94.4944 9.52448 94.9102C9.7504 95.3259 10.0565 95.6927 10.4252 95.9893C10.7939 96.2859 11.2178 96.5061 11.6723 96.6377C12.1268 96.7693 12.6029 96.8095 13.0731 96.7559C20.2171 96.7559 27.3611 96.7534 34.5051 96.748C47.6971 96.748 60.8914 96.7505 74.0881 96.7559C74.9274 96.8018 75.7545 96.5387 76.4129 96.0161C77.0713 95.4935 77.5153 94.7478 77.6611 93.9199C78.6226 89.6586 79.2277 85.3246 79.47 80.9629C79.58 79.2629 79.6341 77.5628 79.7211 75.8398C79.6447 75.8152 79.5652 75.8017 79.485 75.7998ZM56.972 91.208H29.884V86.2651H56.972V91.208Z" fill="#47ABD8"/>
<path d="M27.2752 76.9849C25.3402 72.4729 23.4442 67.9532 21.4392 63.4722C20.9885 62.5067 20.3493 61.6407 19.5592 60.9258C17.1152 58.7168 14.5852 56.6021 12.0862 54.4561C11.9292 54.3151 11.7492 54.189 11.5062 54.001C8.16916 60.44 7.22117 67.31 7.12817 74.439C13.8882 75.41 20.6012 76.3742 27.3772 77.3452C27.3222 77.1492 27.3072 77.0629 27.2752 76.9849ZM21.0942 74.6191L10.8482 72.8799C10.6562 72.8704 10.4681 72.8226 10.2951 72.7388C10.1221 72.655 9.96777 72.5368 9.84131 72.3921C9.71484 72.2473 9.61884 72.0787 9.55902 71.896C9.49921 71.7133 9.47681 71.5206 9.49316 71.3291C9.48516 70.5691 9.49316 69.801 9.49316 69.041C9.49316 68.297 9.48516 67.5529 9.49316 66.8169C9.46129 66.537 9.50034 66.2536 9.60669 65.9927C9.71304 65.7318 9.88331 65.5021 10.1018 65.3242C10.3203 65.1464 10.58 65.0263 10.8571 64.9751C11.1341 64.9239 11.4196 64.9428 11.6872 65.0308C13.5147 65.3695 15.2594 66.0588 16.8252 67.0601C17.7697 67.6057 18.6722 68.2209 19.5252 68.9009C20.0516 69.3476 20.4631 69.9145 20.7252 70.5532C21.1642 71.6422 21.4312 72.7939 21.7602 73.9219C21.9562 74.6109 21.8232 74.7441 21.0942 74.6191Z" fill="#47ABD8"/>
<path d="M75.2712 54.0718C75.1382 54.1718 74.9972 54.272 74.8712 54.377C72.2862 56.602 69.6712 58.7771 67.1482 61.0771C66.3892 61.7939 65.7795 62.6535 65.3542 63.6069C63.9992 66.5839 62.7542 69.615 61.4682 72.624C60.8022 74.167 60.1452 75.7018 59.4402 77.3628C66.2552 76.3758 72.9682 75.4121 79.6582 74.4561C80.3472 69.3861 77.6922 57.0558 75.2712 54.0718ZM77.3782 67.522C77.3392 68.022 77.3712 68.522 77.3712 69.022C77.3712 69.79 77.3782 70.5489 77.3712 71.3169C77.3908 71.5031 77.373 71.6915 77.3186 71.8706C77.2642 72.0498 77.1746 72.216 77.0547 72.3599C76.9349 72.5037 76.7875 72.6221 76.6211 72.708C76.4547 72.7939 76.2729 72.8455 76.0862 72.8599C72.6082 73.4559 69.1275 74.0492 65.6442 74.6392C65.0722 74.7392 64.9232 74.5758 65.0962 73.9878C65.4402 72.7978 65.7612 71.5988 66.1762 70.4238C66.3393 69.9281 66.6317 69.4852 67.0232 69.1401C69.1858 67.3296 71.6974 65.9827 74.4022 65.1831C76.3292 64.6861 77.5742 65.148 77.3782 67.522Z" fill="#47ABD8"/>
<path d="M8.31912 37.1423C8.31912 39.0403 8.31912 40.9381 8.31912 42.8361C8.35318 43.1033 8.328 43.3746 8.24533 43.631C8.16266 43.8874 8.02453 44.1225 7.84079 44.3195C7.65705 44.5165 7.43218 44.6709 7.18216 44.7712C6.93214 44.8715 6.66309 44.9155 6.39413 44.9001C4.97713 44.9461 3.55814 44.9401 2.14114 44.9001C1.90522 44.9195 1.66798 44.8855 1.44723 44.8C1.22649 44.7145 1.02798 44.5797 0.866668 44.4064C0.705353 44.2332 0.585382 44.0258 0.515838 43.7995C0.446295 43.5732 0.42901 43.3342 0.465179 43.1003C0.639846 39.2003 0.822796 35.3001 1.01413 31.4001C1.06713 30.3211 1.49814 29.9091 2.56314 29.9001C4.00181 29.8901 5.4415 29.8901 6.88217 29.9001C7.93217 29.9071 8.32314 30.325 8.32114 31.381C8.3178 33.3024 8.31712 35.2229 8.31912 37.1423Z" fill="#47ABD8"/>
<path d="M86.1272 37.425C86.2182 39.298 86.3272 41.1711 86.3982 43.0451C86.4423 43.2895 86.4286 43.5409 86.3582 43.779C86.2878 44.0171 86.1626 44.2352 85.9927 44.4162C85.8229 44.5973 85.6129 44.7361 85.3798 44.8215C85.1467 44.9069 84.8969 44.9369 84.6502 44.9084C83.2762 44.9354 81.9012 44.9414 80.5282 44.9084C80.2541 44.9295 79.9788 44.8888 79.7222 44.7903C79.4656 44.6917 79.2342 44.5373 79.0447 44.3381C78.8552 44.139 78.7124 43.9001 78.6267 43.6389C78.541 43.3777 78.5146 43.101 78.5492 42.8283C78.5492 38.989 78.5492 35.1499 78.5492 31.3113C78.5492 30.3433 78.9612 29.911 79.9332 29.905C81.3938 29.8923 82.8552 29.8923 84.3172 29.905C85.3542 29.913 85.7992 30.3253 85.8512 31.3493C85.9532 33.3723 86.0362 35.4 86.1272 37.425Z" fill="#47ABD8"/>
<path d="M66.2712 98.0591H68.5002C70.2242 98.0591 71.9501 98.0158 73.6731 98.0698C74.632 98.1503 75.5939 97.9552 76.4455 97.5073C77.2972 97.0594 78.0031 96.3776 78.4801 95.542C78.5105 95.7026 78.5316 95.8648 78.5432 96.0278C78.5482 98.6478 78.5552 101.268 78.5432 103.888C78.5645 104.124 78.5332 104.361 78.4516 104.583C78.37 104.806 78.2402 105.007 78.0713 105.173C77.9025 105.339 77.6989 105.466 77.4753 105.543C77.2516 105.621 77.0136 105.648 76.7782 105.623C73.8535 105.629 70.9282 105.629 68.0022 105.623C67.7888 105.647 67.5728 105.626 67.3678 105.562C67.1629 105.498 66.9734 105.392 66.8115 105.251C66.6496 105.11 66.5187 104.937 66.427 104.743C66.3354 104.549 66.285 104.338 66.2792 104.123C66.2392 102.135 66.2712 100.15 66.2712 98.0591Z" fill="#47ABD8"/>
<path d="M8.31298 95.667C8.87623 96.5026 9.65689 97.1687 10.5708 97.5933C11.4847 98.0178 12.4972 98.1847 13.499 98.0762C15.592 98.0002 17.69 98.0591 19.786 98.0591H20.564C20.58 98.3131 20.603 98.521 20.604 98.729C20.604 100.389 20.604 102.048 20.604 103.707C20.6464 103.969 20.6258 104.237 20.5441 104.49C20.4623 104.742 20.3216 104.972 20.1337 105.159C19.9457 105.347 19.7158 105.486 19.463 105.567C19.2102 105.648 18.9419 105.668 18.68 105.625C15.842 105.625 13.0036 105.625 10.165 105.625C9.91372 105.661 9.65759 105.638 9.4168 105.558C9.17601 105.477 8.9572 105.342 8.77764 105.163C8.59808 104.984 8.46272 104.765 8.38225 104.524C8.30179 104.283 8.27843 104.027 8.31402 103.776C8.31002 101.072 8.30965 98.369 8.31298 95.667Z" fill="#47ABD8"/>
<path d="M76.4101 49.9648C76.4101 48.9428 76.3901 48.115 76.4261 47.29C76.4393 47.1846 76.4762 47.0832 76.5343 46.9941C76.5923 46.9051 76.6699 46.8305 76.7611 46.7759C77.4131 46.4759 78.0901 46.2351 78.7611 45.9761C78.8579 45.9297 78.9637 45.9046 79.0711 45.9028C80.2561 46.0028 81.4401 46.1199 82.6241 46.2349C82.6551 46.2349 82.6821 46.2808 82.7561 46.3428L76.4101 49.9648Z" fill="#47ABD8"/>
<path d="M10.407 49.9341L3.95703 46.2598C4.35703 46.2398 4.58106 46.2378 4.80206 46.2168C5.77106 46.1228 6.73908 46.008 7.71008 45.938C7.96515 45.9427 8.21615 46.0022 8.44604 46.1128C9.11004 46.3768 10.0081 46.4981 10.3521 46.9951C10.6761 47.4631 10.412 48.3382 10.407 49.0342C10.405 49.2892 10.407 49.5431 10.407 49.9341Z" fill="#47ABD8"/>
</svg>
