<svg width="92" height="107" viewBox="0 0 92 107" fill="none" xmlns="http://www.w3.org/2000/svg">
<path d="M45.85 106.258C39.964 106.258 24.505 98.5423 13.681 86.4502C3.68805 75.2872 -0.818959 62.3913 0.650041 49.1573C2.60604 31.5493 3.45899 23.6199 3.83199 20.0699C3.94148 18.9937 4.34974 17.9697 5.01064 17.1133C5.67153 16.257 6.55876 15.6028 7.57204 15.2242L45.432 0.943902C46.7942 0.428735 48.3001 0.443381 49.652 0.984918L85.215 15.1851C86.2309 15.5861 87.1128 16.2659 87.7588 17.1465C88.4048 18.0272 88.7886 19.0727 88.866 20.1622C89.118 23.5002 89.8021 31.883 91.5661 50.522V50.5543C92.6551 64.0463 88.036 76.809 78.208 87.462C66.665 99.978 51.241 106.258 45.85 106.258ZM47.489 5.18902C47.3432 5.189 47.1985 5.21555 47.062 5.26714L9.20302 19.5469C8.99333 19.6247 8.80956 19.7599 8.67244 19.9366C8.53532 20.1133 8.45032 20.3245 8.42702 20.5469C8.05402 24.1039 7.199 32.0471 5.243 49.6631C3.575 64.6851 10.784 76.2818 17.124 83.3628C27.914 95.4158 42.15 101.632 45.85 101.632C49.43 101.632 63.757 96.3112 74.813 84.3272C83.866 74.5132 87.954 63.279 86.9621 50.938C85.1981 32.273 84.511 23.8599 84.262 20.5069C84.2461 20.2807 84.1665 20.0637 84.0324 19.8809C83.8982 19.6981 83.7151 19.5571 83.504 19.4742L47.941 5.27398C47.7972 5.21677 47.6438 5.18794 47.489 5.18902Z" fill="#47ABD8"/>
<path d="M63.719 78.5918C63.2302 78.5918 62.754 78.4368 62.359 78.1489L46.049 66.2769L29.74 78.1152C29.3449 78.4014 28.8694 78.5548 28.3816 78.5542C27.8937 78.5536 27.4186 78.3985 27.0243 78.1113C26.6299 77.8242 26.3365 77.4196 26.1861 76.9556C26.0357 76.4915 26.0361 75.9917 26.187 75.5278L32.412 56.4531L16.112 44.6948C15.7156 44.4091 15.4199 44.0054 15.2677 43.541C15.1154 43.0767 15.1143 42.5759 15.2646 42.1108C15.4148 41.6458 15.7087 41.2401 16.1039 40.9526C16.4991 40.6652 16.9753 40.5109 17.464 40.5112H37.624L43.854 21.3379C44.0047 20.8739 44.2985 20.4699 44.6931 20.1831C45.0878 19.8963 45.5632 19.7417 46.0511 19.7417C46.5389 19.7417 47.0142 19.8963 47.4089 20.1831C47.8036 20.4699 48.0973 20.8739 48.248 21.3379L54.4781 40.5112H74.638C75.1266 40.5112 75.6026 40.6656 75.9977 40.9531C76.3928 41.2407 76.6864 41.6464 76.8366 42.1113C76.9867 42.5763 76.9856 43.0767 76.8333 43.541C76.681 44.0053 76.3854 44.4091 75.989 44.6948L59.689 56.4482L65.915 75.5659C66.0282 75.913 66.0574 76.282 66.0005 76.6426C65.9435 77.0032 65.8018 77.3454 65.5872 77.6406C65.3725 77.9359 65.091 78.1759 64.7655 78.3413C64.4401 78.5067 64.0801 78.5924 63.715 78.5918H63.719Z" fill="#47ABD8"/>
</svg>
