<svg width="16" height="28" viewBox="0 0 16 28" fill="none" xmlns="http://www.w3.org/2000/svg">
<path d="M12.92 0.674805H2.92603C2.22557 0.675599 1.55401 0.954206 1.05872 1.4495C0.563417 1.9448 0.284852 2.61635 0.284058 3.31681V24.9168C0.284851 25.6174 0.563323 26.289 1.05859 26.7845C1.55386 27.2799 2.22548 27.5587 2.92603 27.5598H12.92C13.6206 27.5587 14.2921 27.2799 14.7874 26.7845C15.2826 26.289 15.5612 25.6174 15.562 24.9168V3.31681C15.5612 2.61635 15.2827 1.9448 14.7874 1.4495C14.2921 0.954206 13.6205 0.675599 12.92 0.674805ZM2.92603 1.8498H12.92C13.309 1.85007 13.682 2.00472 13.957 2.27977C14.2321 2.55483 14.3867 2.92782 14.387 3.31681V4.50481H1.45898V3.31681C1.45951 2.9279 1.61428 2.55506 1.88928 2.28006C2.16428 2.00506 2.53712 1.85033 2.92603 1.8498ZM14.387 19.8498H1.45898V5.67981H14.387V19.8498ZM12.92 26.3798H2.92603C2.53694 26.3793 2.16395 26.2244 1.88892 25.9492C1.61389 25.674 1.45925 25.3009 1.45898 24.9118V21.0278H14.387V24.9148C14.3867 25.3039 14.2322 25.677 13.9572 25.9522C13.6821 26.2274 13.3091 26.3823 12.92 26.3828V26.3798Z" fill="#47ABD8"/>
<path d="M7.92301 22.4766C7.66886 22.4766 7.42046 22.5519 7.20914 22.6931C6.99782 22.8343 6.83313 23.035 6.73587 23.2698C6.63862 23.5046 6.61317 23.763 6.66275 24.0123C6.71234 24.2615 6.83473 24.4905 7.01444 24.6702C7.19415 24.8499 7.42313 24.9723 7.6724 25.0219C7.92166 25.0715 8.18003 25.046 8.41483 24.9488C8.64963 24.8515 8.85029 24.6868 8.99149 24.4755C9.13269 24.2642 9.20804 24.0157 9.20804 23.7616C9.20751 23.4209 9.07196 23.0944 8.83109 22.8535C8.59022 22.6126 8.26365 22.4771 7.92301 22.4766Z" fill="#47ABD8"/>
</svg>
