<svg width="120" height="58" viewBox="0 0 120 58" fill="none" xmlns="http://www.w3.org/2000/svg">
<path d="M51.411 16.78V16.324H74.28V41.335C74.095 41.345 73.941 41.3601 73.786 41.3601C67.302 41.3601 60.8177 41.3601 54.333 41.3601C53.633 41.3601 52.928 41.2869 52.233 41.3259C51.884 41.3449 51.682 41.2131 51.619 40.9451C51.4979 40.4705 51.4308 39.9836 51.419 39.4939C51.4063 31.9212 51.4037 24.35 51.411 16.78ZM54.111 37.739C54.1083 38.0319 54.1644 38.3223 54.2761 38.593C54.3879 38.8638 54.5529 39.1092 54.7614 39.3149C54.9699 39.5206 55.2176 39.6825 55.4898 39.7905C55.762 39.8986 56.0532 39.9508 56.346 39.9441C58.182 39.9581 60.017 39.9649 61.853 39.9529C62.19 39.9768 62.5281 39.9276 62.8442 39.8086C63.1604 39.6896 63.447 39.5037 63.6845 39.2634C63.922 39.0232 64.1047 38.7342 64.2201 38.4167C64.3355 38.0993 64.3809 37.7607 64.353 37.4241C64.353 36.4501 64.346 35.4759 64.325 34.5029C64.3398 34.1903 64.2882 33.8781 64.1735 33.5869C64.0588 33.2957 63.8835 33.0321 63.6595 32.8135C63.4354 32.5949 63.1676 32.4263 62.8736 32.3188C62.5796 32.2114 62.2662 32.1674 61.954 32.1899C61.044 32.1899 60.134 32.1899 59.223 32.1899C58.265 32.1899 57.307 32.1899 56.349 32.1899C56.0531 32.1878 55.7597 32.2443 55.4858 32.3562C55.2118 32.4681 54.9628 32.6332 54.7529 32.8418C54.5431 33.0504 54.3767 33.2985 54.2633 33.5718C54.1498 33.8451 54.0916 34.1382 54.092 34.4341C54.082 35.5351 54.085 36.637 54.107 37.739H54.111Z" fill="#808080"/>
<path d="M51.6 14.3822C51.641 13.9682 51.681 13.5552 51.724 13.1432C52.038 10.0618 52.353 6.98097 52.669 3.90097C52.769 2.93297 52.875 1.96507 53.02 1.00107C53.1 0.45907 53.345 0.301107 53.891 0.364107C54.3658 0.422159 54.8375 0.504358 55.304 0.610201C59.426 1.5342 63.5477 2.46338 67.669 3.39804C71.9223 4.21099 76.0272 5.66589 79.843 7.71298C82.3682 8.98811 84.6743 10.6571 86.675 12.6571C87.46 13.5281 88.218 14.424 89.068 15.4H76.71C76.692 14.852 76.302 14.8001 75.871 14.8131C75.571 14.8221 75.265 14.8441 74.962 14.8441C71.656 14.8441 68.3503 14.8441 65.045 14.8441C60.7163 14.8441 56.3873 14.8471 52.058 14.8531C51.691 14.8561 51.566 14.7212 51.6 14.3822ZM54.953 11.5431C54.9554 11.8592 55.0206 12.1718 55.1448 12.4625C55.269 12.7532 55.4497 13.0164 55.6764 13.2367C55.9032 13.457 56.1714 13.6299 56.4656 13.7457C56.7597 13.8615 57.0739 13.9176 57.39 13.911H61.078V13.8922C62.29 13.8922 63.503 13.9111 64.715 13.8871C65.0159 13.8984 65.3158 13.8466 65.5955 13.735C65.8752 13.6233 66.1283 13.4543 66.3387 13.2389C66.549 13.0234 66.7119 12.7662 66.8169 12.484C66.9218 12.2017 66.9665 11.9007 66.948 11.6002C66.948 11.0582 66.948 10.515 66.942 9.97299C66.9886 9.32857 66.7878 8.69067 66.3805 8.18906C65.9733 7.68745 65.3902 7.35988 64.75 7.27304C62.286 6.75804 59.818 6.26021 57.357 5.72421C57.0755 5.64262 56.7786 5.62885 56.4908 5.68418C56.203 5.7395 55.9325 5.86219 55.7013 6.04233C55.4701 6.22247 55.2849 6.45499 55.1609 6.72055C55.0369 6.98611 54.9776 7.27726 54.988 7.57016C54.9473 8.8935 54.9357 10.2177 54.953 11.5431Z" fill="#808080"/>
<path d="M119.152 44.448C119.138 44.065 118.965 44.039 118.675 44.04C117.527 44.047 116.375 44.0621 115.232 43.9751C114.731 43.9667 114.244 43.8101 113.832 43.5254C113.42 43.2407 113.101 42.8405 112.916 42.375C112.744 42.0556 112.667 41.6937 112.695 41.332C112.722 40.9704 112.852 40.624 113.07 40.334C113.314 40.0787 113.618 39.8891 113.954 39.7825C114.291 39.6759 114.649 39.6558 114.995 39.7241C115.182 39.756 115.373 39.7619 115.562 39.7419C115.188 39.4739 114.822 39.1949 114.439 38.9419C111.823 37.268 108.881 36.1704 105.808 35.7219C102.816 35.2532 99.7547 35.528 96.894 36.522C96.7339 36.5497 96.5893 36.6344 96.4869 36.7605C96.3845 36.8866 96.3312 37.0457 96.337 37.208C96.2767 37.5953 96.0917 37.9525 95.81 38.2251C94.61 39.4131 93.358 40.5471 92.147 41.7251C91.0543 42.7918 89.9786 43.8739 88.92 44.9719C88.7688 45.1433 88.5802 45.2776 88.3688 45.3643C88.1574 45.451 87.9289 45.4878 87.701 45.4719C86.68 45.4359 85.656 45.4539 84.634 45.4719C84.4718 45.5018 84.3158 45.5582 84.172 45.6389L84.216 45.7981C84.352 45.8061 84.488 45.822 84.625 45.823C87.5 45.823 90.376 45.823 93.251 45.834C93.3965 45.8446 93.542 45.8125 93.6694 45.7415C93.7968 45.6704 93.9006 45.5635 93.968 45.4341C94.7216 44.1729 95.7733 43.1161 97.0308 42.3564C98.2882 41.5968 99.713 41.1572 101.18 41.0769C102.669 40.9893 104.154 41.3121 105.473 42.01C106.444 42.4952 107.313 43.1606 108.035 43.9709C108.18 44.1396 108.362 44.2724 108.566 44.3591C108.771 44.4459 108.993 44.4841 109.215 44.4709C112.409 44.4529 115.602 44.461 118.796 44.46L119.152 44.448Z" fill="#808080"/>
<path d="M26.617 42.61C28.114 42.5947 29.5818 43.025 30.8337 43.8461C32.0856 44.6672 33.065 45.8419 33.6474 47.2211C34.2298 48.6003 34.3889 50.1216 34.1045 51.5915C33.82 53.0613 33.1049 54.4134 32.05 55.4757C30.9951 56.5381 29.6482 57.2629 28.1803 57.5578C26.7125 57.8526 25.1902 57.7041 23.8069 57.1315C22.4236 56.5588 21.2418 55.5877 20.4119 54.3417C19.582 53.0957 19.1413 51.6311 19.146 50.1339C19.1478 48.1482 19.9338 46.2435 21.333 44.8344C22.7322 43.4253 24.6313 42.6258 26.617 42.61ZM26.687 54.3239C27.784 54.3162 28.8345 53.8795 29.6137 53.1073C30.393 52.3352 30.8392 51.2887 30.857 50.1918C30.8619 49.3691 30.6227 48.5637 30.1695 47.8771C29.7163 47.1905 29.0696 46.6537 28.3112 46.3349C27.5528 46.016 26.7169 45.9293 25.9092 46.0858C25.1016 46.2424 24.3585 46.635 23.7741 47.214C23.1897 47.7931 22.7903 48.5326 22.6264 49.3388C22.4625 50.145 22.5415 50.9816 22.8534 51.7428C23.1653 52.5041 23.696 53.1557 24.3785 53.6151C25.0609 54.0746 25.8643 54.3213 26.687 54.3239Z" fill="#808080"/>
<path d="M8.72701 42.6101C10.2218 42.5977 11.6866 43.0293 12.9358 43.8504C14.185 44.6714 15.1623 45.8448 15.7437 47.2219C16.3251 48.5991 16.4845 50.1179 16.2017 51.5857C15.9189 53.0536 15.2066 54.4043 14.1552 55.4668C13.1037 56.5294 11.7605 57.2558 10.2957 57.554C8.83088 57.8522 7.31049 57.7088 5.92733 57.1419C4.54417 56.5749 3.36052 55.6101 2.52639 54.3696C1.69227 53.1292 1.24525 51.6689 1.24203 50.1741C1.23694 48.1801 2.02142 46.265 3.42397 44.8477C4.82653 43.4303 6.73308 42.626 8.72701 42.6101ZM8.79403 54.325C9.62027 54.3259 10.4281 54.081 11.1146 53.6214C11.8012 53.1617 12.3355 52.508 12.6494 51.7437C12.9633 50.9794 13.0427 50.1389 12.8775 49.3294C12.7122 48.5198 12.3098 47.7779 11.7215 47.1978C11.1331 46.6177 10.3855 46.2256 9.57369 46.0718C8.76191 45.9179 7.92272 46.0091 7.16293 46.3338C6.40313 46.6584 5.75714 47.2018 5.30715 47.8948C4.85716 48.5877 4.62351 49.399 4.63601 50.2251C4.65738 51.3158 5.10414 52.3549 5.88095 53.1209C6.65775 53.8868 7.70312 54.3189 8.79403 54.325Z" fill="#808080"/>
<path d="M101.282 42.6001C103.288 42.5519 105.232 43.2924 106.698 44.6626C108.164 46.0329 109.033 47.9235 109.12 49.928C109.164 51.4197 108.766 52.8911 107.976 54.1568C107.185 55.4225 106.037 56.4258 104.677 57.0403C103.317 57.6548 101.806 57.8529 100.334 57.6096C98.8611 57.3664 97.4938 56.6928 96.4037 55.6736C95.3135 54.6544 94.5496 53.3353 94.208 51.8826C93.8664 50.4299 93.9625 48.9087 94.4842 47.5105C95.0059 46.1124 95.9299 44.8998 97.1396 44.0259C98.3493 43.152 99.7907 42.6561 101.282 42.6001ZM101.548 54.3211C102.095 54.3203 102.636 54.2119 103.14 54.002C103.645 53.7921 104.103 53.4847 104.489 53.0977C104.875 52.7106 105.181 52.2514 105.389 51.7461C105.598 51.2409 105.705 50.6997 105.704 50.1531C105.703 49.6065 105.595 49.0655 105.385 48.5608C105.175 48.0562 104.868 47.5976 104.481 47.2117C104.094 46.8258 103.634 46.52 103.129 46.3115C102.624 46.1031 102.083 45.9963 101.536 45.9971C100.432 45.9987 99.3742 46.4386 98.5948 47.2202C97.8154 48.0019 97.3784 49.0612 97.38 50.1651C97.3816 51.2689 97.8216 52.3268 98.6032 53.1062C99.3849 53.8856 100.444 54.3227 101.548 54.3211Z" fill="#808080"/>
<path d="M79.56 28.9309C81.682 29.2929 83.8043 29.6539 85.927 30.0139C86.0496 30.0245 86.1655 30.0741 86.258 30.1553C86.3505 30.2364 86.4146 30.3449 86.441 30.4651C86.5736 30.8025 86.7816 31.1053 87.049 31.3501C87.418 31.6991 87.862 31.9669 88.249 32.2949C88.4135 32.4717 88.6279 32.5942 88.8638 32.646C89.0996 32.6978 89.3455 32.6765 89.569 32.585C90.047 32.376 90.031 31.939 90.096 31.5C90.133 31.256 90.416 30.8799 90.62 30.8589C91.436 30.7699 91.606 30.9731 91.605 31.7781C91.605 32.2421 91.605 32.705 91.605 33.168C91.605 34.606 91.605 36.043 91.599 37.481C91.6208 37.7758 91.5843 38.0721 91.4915 38.3528C91.3986 38.6335 91.2513 38.8932 91.058 39.1169C90.445 39.7669 89.858 40.4451 89.232 41.0811C89.0592 41.2504 88.8315 41.3521 88.59 41.3679C85.379 41.3849 82.17 41.3799 78.959 41.3789H77.704V28.6121L79.56 28.9309ZM86.681 38.531C86.6802 38.7021 86.7141 38.8717 86.7807 39.0293C86.8473 39.1869 86.9453 39.3293 87.0686 39.448C87.1919 39.5667 87.3381 39.659 87.4982 39.7195C87.6583 39.78 87.829 39.8075 88 39.8C88.4288 39.854 88.8642 39.7935 89.262 39.6248C89.6598 39.456 90.0059 39.185 90.265 38.8391C90.4551 38.5874 90.5733 38.2888 90.607 37.9751C90.6485 37.2912 90.6545 36.6054 90.625 35.9209C90.6405 35.7642 90.6243 35.6059 90.5773 35.4556C90.5303 35.3052 90.4535 35.1659 90.3515 35.0459C90.2495 34.9259 90.1244 34.8277 89.9836 34.7571C89.8428 34.6865 89.6892 34.645 89.532 34.635C89.0048 34.516 88.4703 34.4319 87.932 34.3831C87.7686 34.3584 87.6017 34.3713 87.4439 34.4207C87.2862 34.47 87.1417 34.5544 87.0214 34.6677C86.9011 34.7811 86.8081 34.9204 86.7495 35.075C86.6908 35.2295 86.6681 35.3954 86.683 35.5601C86.677 35.8151 86.683 36.07 86.683 36.325V37.043C86.679 37.542 86.666 38.037 86.681 38.531ZM80.545 40.075H81.359C81.4746 40.0938 81.5929 40.086 81.705 40.0522C81.8171 40.0185 81.92 39.9594 82.0059 39.8799C82.0918 39.8003 82.1584 39.7024 82.2007 39.5933C82.243 39.4841 82.2599 39.3667 82.25 39.25C82.2669 38.9169 82.2669 38.5831 82.25 38.25C82.2556 38.1332 82.2362 38.0165 82.1933 37.9077C82.1504 37.7989 82.0848 37.7004 82.0009 37.6189C81.917 37.5374 81.8168 37.4746 81.7068 37.4348C81.5968 37.395 81.4796 37.379 81.363 37.3879C80.806 37.3709 80.246 37.3699 79.689 37.3879C79.5764 37.3801 79.4634 37.3962 79.3574 37.4351C79.2515 37.474 79.155 37.5349 79.0742 37.6138C78.9935 37.6926 78.9303 37.7876 78.8889 37.8926C78.8475 37.9976 78.8288 38.1101 78.834 38.2229C78.834 38.2379 78.834 38.255 78.834 38.271C78.806 40 78.759 40.124 80.545 40.075Z" fill="#808080"/>
<path d="M93.5 46.219C92.3942 48.3638 91.7375 50.7116 91.57 53.1189H67.92C63.352 53.1189 58.783 53.117 54.213 53.113C49.3077 53.113 44.4033 53.1167 39.5 53.124C39.216 53.124 39.075 53.0629 39.028 52.7439C38.934 52.1149 38.802 51.4869 38.648 50.8689C38.3942 49.3558 37.8967 47.8939 37.175 46.54C37.112 46.44 37.062 46.3401 36.997 46.2161L93.5 46.219ZM38.922 48.5339C38.99 48.7429 39.122 48.934 39.204 49.134C39.447 49.717 39.723 50.2889 39.912 50.8889C40.0512 51.3259 40.335 51.7026 40.7166 51.957C41.0982 52.2115 41.5551 52.3286 42.012 52.2891C43.354 52.3001 44.695 52.2891 46.038 52.2891C53.8014 52.2931 61.5653 52.2964 69.33 52.2991C76.4707 52.2991 83.6113 52.2957 90.752 52.2891C91.106 52.2891 91.467 52.2889 91.602 51.8469C91.6566 51.6691 91.6464 51.4777 91.5732 51.3066C91.4999 51.1356 91.3685 50.9962 91.202 50.9131C90.3161 50.4012 89.327 50.0936 88.307 50.0129C87.994 49.9579 87.676 49.9419 87.297 49.8999C87.422 49.4279 87.539 49.0151 87.641 48.6001C87.6971 48.4374 87.7115 48.2632 87.6829 48.0935C87.6543 47.9238 87.5836 47.764 87.4772 47.6287C87.3709 47.4934 87.2323 47.3867 87.0742 47.3188C86.916 47.251 86.7434 47.2239 86.572 47.24C82.6754 47.236 78.7787 47.236 74.882 47.24C63.476 47.24 52.069 47.24 40.661 47.24C40.361 47.24 40.053 47.223 39.752 47.251C39.6045 47.2621 39.4616 47.3072 39.3345 47.3828C39.2073 47.4584 39.0995 47.5625 39.0193 47.6868C38.9391 47.811 38.8887 47.9521 38.8722 48.0991C38.8557 48.2461 38.8734 48.395 38.924 48.5339H38.922Z" fill="#808080"/>
<path d="M73.722 45.1001V41.8001C73.597 41.7881 73.476 41.7649 73.356 41.7649C66.872 41.7649 60.3877 41.7616 53.903 41.7549C53.2628 41.7395 52.6379 41.9523 52.14 42.355C51.466 42.888 50.766 43.3882 50.069 43.8912C49.9633 43.9585 49.8403 43.9931 49.715 43.991C45.869 43.985 42.0227 43.9756 38.176 43.9629H36.976C37.0141 44.26 37.1567 44.5339 37.3782 44.7354C37.5997 44.9369 37.8857 45.0531 38.185 45.063C38.4234 45.0838 38.6628 45.0905 38.902 45.0831C41.521 45.0831 44.141 45.0911 46.76 45.0831C48.718 45.0761 50.677 45.029 52.635 45.032C57.218 45.039 61.8 45.0681 66.383 45.0821C68.65 45.0901 70.918 45.0821 73.183 45.0821L73.722 45.1001Z" fill="#808080"/>
<path d="M109.271 45.5182C110.239 47.2866 110.855 49.2255 111.085 51.2281C111.266 51.8417 111.214 52.5002 110.94 53.078C111.502 52.978 112.005 52.8621 112.514 52.7931C114.188 52.5661 115.864 52.3541 117.539 52.1381C117.681 52.1191 117.827 52.1222 117.969 52.1022C118.175 52.1019 118.377 52.0458 118.554 51.9398C118.73 51.8339 118.875 51.682 118.972 51.5004C119.069 51.3187 119.115 51.1143 119.105 50.9086C119.096 50.7028 119.03 50.5036 118.916 50.3321C118.553 50.3605 118.189 50.3563 117.827 50.3192C117.313 50.2192 117.072 49.6652 117.172 48.9562C117.239 48.4792 117.532 48.2652 118.1 48.2782C118.413 48.3083 118.726 48.2233 118.98 48.0392C119.235 47.8551 119.414 47.5846 119.483 47.2782C119.364 47.2574 119.244 47.2434 119.124 47.2362C118.566 47.2312 118.005 47.2032 117.448 47.2362C116.92 47.2837 116.389 47.1782 115.919 46.9322C115.449 46.6863 115.059 46.3104 114.797 45.8492C114.732 45.7341 114.636 45.6403 114.518 45.5797C114.401 45.5191 114.268 45.4942 114.137 45.5082C112.56 45.5262 110.983 45.5182 109.271 45.5182Z" fill="#808080"/>
<path d="M116.158 39.6389C116.014 38.5599 115.872 37.4391 115.703 36.3191C115.681 36.2452 115.643 36.1772 115.591 36.1204C115.539 36.0635 115.475 36.0192 115.403 35.991C111.342 34.7067 107.199 33.6944 103.003 32.9609C100.813 32.6219 98.634 32.2119 96.403 31.8259V36.2561C103.611 33.8561 110.139 35.3859 116.158 39.6389Z" fill="#808080"/>
<path d="M90.1811 19.836L88.358 17.041C88.3369 17.0171 88.3185 16.9908 88.303 16.9629C87.933 15.9219 87.169 15.725 86.145 15.802C84.764 15.902 83.373 15.8791 81.986 15.8831C80.919 15.8831 79.853 15.8459 78.786 15.8369C77.772 15.8289 76.757 15.8369 75.742 15.8369C75.6698 15.827 75.5963 15.8335 75.5269 15.8557C75.4575 15.8779 75.394 15.9154 75.341 15.9654C75.2879 16.0153 75.2467 16.0764 75.2204 16.1443C75.1941 16.2123 75.1834 16.2853 75.189 16.3579C75.18 16.9959 75.172 17.635 75.189 18.273C75.1858 18.3664 75.2027 18.4595 75.2385 18.5459C75.2743 18.6323 75.3283 18.71 75.3968 18.7737C75.4652 18.8374 75.5465 18.8858 75.6353 18.9153C75.724 18.9449 75.818 18.955 75.911 18.9451C77.202 18.9451 78.493 18.906 79.784 18.898C80.614 18.898 81.443 18.9191 82.272 18.9251C83.98 18.9371 85.687 18.952 87.394 18.951C87.7928 18.9177 88.194 18.9741 88.5682 19.1158C88.9424 19.2575 89.2803 19.481 89.557 19.7701C89.668 19.8941 89.913 19.899 90.097 19.958L90.1811 19.836Z" fill="#808080"/>
<path d="M76.265 19.3889C76.0186 19.3573 75.7742 19.3116 75.533 19.252C75.3061 19.191 75.1082 19.0514 74.9749 18.8579C74.8415 18.6644 74.7813 18.4298 74.805 18.196C74.8114 17.7516 74.7844 17.3073 74.724 16.8669V41.325H76.265V19.3889Z" fill="#808080"/>
<path d="M95.931 31.7419L92.004 31.0701C91.994 31.2421 91.979 31.3779 91.979 31.5149C91.979 33.4469 91.962 35.3789 91.984 37.3149C92.0119 37.7605 91.9409 38.2067 91.7762 38.6216C91.6114 39.0365 91.357 39.41 91.031 39.7151C90.522 40.1911 90.084 40.7441 89.531 41.3511C90.415 41.3511 91.202 41.3611 91.988 41.3401C92.105 41.3401 92.233 41.203 92.333 41.105C93.44 40.024 94.55 38.945 95.64 37.845C95.8209 37.6705 95.9358 37.4386 95.965 37.189C95.99 35.433 95.977 33.6769 95.973 31.9209C95.9655 31.8599 95.9514 31.7999 95.931 31.7419Z" fill="#808080"/>
<path d="M76.638 41.8V45.0601H80.538C80.538 44.2301 80.538 43.437 80.538 42.644C80.538 42.086 80.62 42.005 81.176 42.001C82.086 41.993 82.996 42.0009 83.905 41.9939C84.256 41.9939 84.545 42.052 84.575 42.488C84.575 42.546 84.65 42.6151 84.708 42.6531C85.514 43.1811 85.484 43.553 84.566 44.031C84.566 44.238 84.566 44.4599 84.566 44.6819C84.566 44.7929 84.575 44.9029 84.584 45.0959H85.668C86.386 45.0959 87.104 45.1059 87.822 45.0959C88.0094 45.1096 88.1961 45.0619 88.354 44.96C89.447 43.94 90.521 42.9 91.665 41.804L76.638 41.8Z" fill="#808080"/>
<path d="M96.592 29.2872C96.5782 29.3479 96.5675 29.4092 96.56 29.471C96.528 30.247 96.529 30.242 97.304 30.358C100.298 30.7061 103.266 31.2535 106.188 31.9962C108.33 32.6172 110.452 33.31 112.582 33.971L115.564 34.899C115.523 34.372 115.51 33.899 115.432 33.432C115.414 33.322 115.193 33.2102 115.045 33.1632C113.163 32.5632 111.297 31.8981 109.389 31.3931C106.279 30.5701 103.144 29.8431 100.012 29.1051C99.6448 29.0707 99.2746 29.0873 98.912 29.1541L96.592 29.2872Z" fill="#808080"/>
<path d="M109.344 51.8082C110.051 51.4882 110.537 51.6171 110.792 52.3421C110.699 50.2675 110.181 48.2339 109.272 46.367C108.416 44.6934 107.074 43.3183 105.422 42.4222C103.748 41.5152 101.81 41.2198 99.9424 41.5872C98.0743 41.9546 96.3927 42.9617 95.187 44.4351C93.6352 46.2985 92.6245 48.5519 92.265 50.95C92.113 51.804 92.017 52.667 91.875 53.668C92.411 53.374 92.803 53.1682 93.181 52.9432C93.255 52.8982 93.281 52.766 93.319 52.67C93.434 52.37 93.553 52.063 93.651 51.754C93.7005 51.6136 93.7199 51.4644 93.708 51.316C93.5509 50.2739 93.6039 49.211 93.8638 48.1897C94.1238 47.1685 94.5855 46.2096 95.2216 45.3694C95.8578 44.5293 96.6556 43.8248 97.5681 43.2977C98.4806 42.7705 99.4894 42.4315 100.535 42.3001C101.861 42.0887 103.219 42.2342 104.47 42.7217C105.721 43.2093 106.819 44.0212 107.652 45.074C108.399 45.9527 108.941 46.9865 109.24 48.1004C109.539 49.2143 109.586 50.3804 109.379 51.5149C109.37 51.5739 109.365 51.6342 109.344 51.8082Z" fill="#808080"/>
<path d="M20.768 44.8579H14.737C15.6504 45.909 16.278 47.1775 16.5594 48.5413C16.8408 49.905 16.7667 51.3182 16.344 52.645H19.144C18.718 51.3175 18.6436 49.902 18.9283 48.5371C19.2129 47.1722 19.8468 45.9045 20.768 44.8579Z" fill="#808080"/>
<path d="M84.635 29.4141C84.5548 29.2743 84.4961 29.1233 84.461 28.9661C84.446 28.2461 83.99 28.1489 83.399 28.0969C82.223 27.9969 81.054 27.8119 79.881 27.6799C79.5834 27.6825 79.2965 27.5691 79.0811 27.3638C78.8657 27.1584 78.7387 26.8774 78.727 26.5801C78.685 26.1861 78.714 25.7799 78.71 25.3799C78.696 24.1799 78.675 22.9799 78.669 21.7859C78.6389 21.5823 78.6571 21.3745 78.7219 21.1792C78.7868 20.9839 78.8966 20.8068 79.0426 20.6616C79.1885 20.5165 79.3664 20.4076 79.562 20.3438C79.7577 20.2799 79.9656 20.2628 80.169 20.2939C82.197 20.2939 84.226 20.2939 86.256 20.2939L86.569 19.354C86.428 19.354 86.277 19.354 86.126 19.354L80.281 19.2629C79.9409 19.235 79.5987 19.28 79.2773 19.3948C78.9559 19.5095 78.6627 19.6914 78.4172 19.9285C78.1717 20.1655 77.9796 20.4523 77.8537 20.7695C77.7277 21.0867 77.6709 21.4272 77.687 21.7681C77.672 23.9061 77.687 26.0451 77.687 28.2141C78.856 28.4211 79.997 28.626 81.139 28.824C82.281 29.022 83.425 29.2101 84.635 29.4141Z" fill="#808080"/>
<path d="M95.138 19.731C94.4242 18.3449 93.512 17.0705 92.43 15.948C92.3241 15.832 92.184 15.7528 92.03 15.7219C90.73 15.7309 89.43 15.7649 88.009 15.7949C88.231 16.1469 88.376 16.3861 88.528 16.6201C89.182 17.6201 89.828 18.6261 90.501 19.6201C90.5491 19.6945 90.6119 19.7583 90.6855 19.8076C90.7591 19.857 90.8419 19.8907 90.929 19.907C92.314 19.929 93.699 19.9199 95.083 19.9199L95.138 19.731Z" fill="#808080"/>
<path d="M75.924 45.457H75.073C67.7883 45.457 60.5034 45.457 53.218 45.457C51.973 45.457 50.728 45.511 49.483 45.51C45.795 45.51 42.107 45.4829 38.418 45.4719C38.0825 45.4931 37.7481 45.4164 37.4555 45.2509C37.1629 45.0855 36.9247 44.8384 36.77 44.54C36.397 43.881 36.296 43.878 35.459 44.04C35.845 44.599 36.207 45.16 36.613 45.684C36.7 45.796 36.953 45.8139 37.13 45.8139C41.459 45.8139 45.788 45.787 50.117 45.789C58.441 45.789 66.7647 45.7987 75.088 45.8181C75.295 45.8304 75.5027 45.8256 75.709 45.8039C75.809 45.7859 75.897 45.667 75.99 45.593L75.924 45.457Z" fill="#808080"/>
<path d="M73.718 15.884V15.2351H73.151C66.127 15.2351 59.103 15.2309 52.079 15.2229C51.579 15.2229 51.403 15.373 51.497 15.884H73.718Z" fill="#808080"/>
<path d="M119.012 40.8811C118.756 40.5011 118.177 41.1011 118.182 40.3911L118.882 40.239L118.918 40.0979C118.766 40.0519 118.618 40.008 118.463 39.959C118.308 39.91 118.176 39.859 118.001 39.801C118.248 39.426 118.841 39.7459 118.809 39.2129C118.564 38.9549 118.055 39.4619 117.934 38.8679C118.68 38.7309 118.68 38.731 118.672 38.408C118.417 38.394 118.161 38.3851 117.908 38.3521C117.886 38.3521 117.886 38.1839 117.875 38.0979C118.575 37.9239 118.575 37.9241 118.575 37.6721C118.359 37.4461 117.806 38.045 117.775 37.345L117.847 37.3049L118.496 37.0049L117.732 36.853L117.672 36.6121C117.889 36.3681 118.372 36.6939 118.372 36.1279C118.2 36.1382 118.027 36.136 117.855 36.1211C117.754 36.0859 117.659 36.0338 117.575 35.967C117.649 35.888 117.71 35.781 117.801 35.738C117.93 35.6905 118.065 35.6569 118.201 35.6379C118.275 34.2509 117.312 33.79 115.816 33.488C115.928 34.612 116.03 35.7199 116.15 36.8269C116.223 37.4919 116.313 38.1571 116.413 38.8191C116.458 39.673 116.838 40.4747 117.471 41.05C117.741 41.3208 117.989 41.6131 118.212 41.9241C118.451 42.1941 118.704 42.1579 118.812 41.8159C118.897 41.5086 118.964 41.1965 119.012 40.8811Z" fill="#808080"/>
<path d="M0.0579937 56.1269H2.3C2.37302 55.4687 2.26949 54.803 2.00001 54.198C1.20637 52.9113 0.806054 51.4206 0.848338 49.9094C0.890622 48.3982 1.37364 46.9322 2.23799 45.6919C2.29499 45.6009 2.35002 45.509 2.41102 45.408C2.25733 45.3545 2.09462 45.3321 1.9322 45.3418C1.76978 45.3515 1.61087 45.3931 1.46461 45.4643C1.31835 45.5356 1.18761 45.6351 1.07991 45.7571C0.972204 45.879 0.889625 46.0211 0.836985 46.175C0.815589 46.2208 0.784738 46.2615 0.74647 46.2944C0.708203 46.3273 0.663405 46.3516 0.615001 46.366C0.122001 46.419 0.0510123 46.7409 0.0520123 47.1509C0.0590123 49.2569 0.0520123 51.3639 0.0520123 53.4709L0.0579937 56.1269Z" fill="#808080"/>
<path d="M118.815 43.574C118.221 42.3052 117.287 41.2266 116.115 40.459C115.701 40.2563 115.252 40.1322 114.793 40.093C114.516 40.0379 114.229 40.0622 113.966 40.1628C113.702 40.2635 113.472 40.4366 113.302 40.6621C113.15 40.9179 113.072 41.2103 113.075 41.5076C113.078 41.8049 113.163 42.0954 113.32 42.3479C113.469 42.6882 113.709 42.9815 114.012 43.196C114.316 43.4106 114.672 43.5385 115.043 43.5659C116.274 43.6909 117.517 43.694 118.756 43.749L118.815 43.574Z" fill="#808080"/>
<path d="M96.371 30.5769C96.381 30.7204 96.381 30.8646 96.371 31.0081C96.32 31.3581 96.482 31.4679 96.811 31.5239C99.658 32.0089 102.52 32.424 105.342 33.031C108.271 33.657 111.162 34.465 114.068 35.199C114.574 35.327 115.074 35.4801 115.577 35.6221L115.671 35.512C115.571 35.422 115.49 35.284 115.376 35.25C111.343 34.045 107.409 32.499 103.263 31.696C101.133 31.284 98.98 30.996 96.837 30.657C96.693 30.634 96.552 30.6079 96.371 30.5769Z" fill="#808080"/>
<path d="M78.55 19.3679H76.716C76.705 19.5079 76.687 19.6309 76.687 19.7539C76.687 26.2692 76.687 32.7847 76.687 39.3C76.687 39.824 76.705 40.349 76.729 40.874C76.749 41.324 76.759 41.3241 77.296 41.2981V39.1641C77.296 33.6081 77.31 28.0521 77.296 22.4961C77.3 21.3191 77.32 20.1829 78.55 19.3679Z" fill="#808080"/>
<path d="M31.74 43.989C32.97 45.0204 33.8653 46.3945 34.3121 47.9363C34.7589 49.4781 34.7369 51.1177 34.249 52.647H36.906C36.694 51.691 36.495 50.778 36.289 49.867C35.6823 47.8956 34.6973 46.0616 33.389 44.4671C32.97 43.8541 32.406 43.975 31.74 43.989Z" fill="#808080"/>
<path d="M37 53.1002H38.746C38.504 52.0062 38.241 50.96 38.046 49.9C37.5244 47.7884 36.5022 45.8334 35.066 44.2C34.9685 44.0836 34.8314 44.0075 34.681 43.9861C34.3629 43.9698 34.0441 43.9698 33.726 43.9861C33.67 43.9861 33.613 43.996 33.545 44.003C34.177 44.943 34.804 45.841 35.394 46.762C36.3094 48.3731 36.9005 50.1479 37.134 51.9861C37.273 52.7421 37.265 52.7432 37 53.1002Z" fill="#808080"/>
<path d="M21.276 43.8522C21.6654 43.7728 22.0439 43.6466 22.403 43.4762C23.7785 42.5891 25.3985 42.1575 27.033 42.243C27.617 42.268 28.197 42.3772 28.907 42.4642C28.787 42.1642 28.689 41.9041 28.58 41.6481C28.5224 41.4668 28.4281 41.2992 28.3031 41.1559C28.178 41.0125 28.0249 40.8963 27.8532 40.8146C27.6814 40.7328 27.4947 40.6872 27.3046 40.6805C27.1145 40.6739 26.925 40.7064 26.748 40.776C25.001 41.132 23.223 41.3351 21.454 41.5821C21.1 41.6311 20.978 41.796 21.023 42.119C21.1 42.666 21.182 43.2122 21.276 43.8522Z" fill="#808080"/>
<path d="M91.578 30.6001C91.6692 29.3874 91.4986 28.1692 91.078 27.0281C90.424 24.9811 89.684 22.961 88.971 20.928C88.8851 20.6227 88.7322 20.3403 88.5234 20.1016C88.3146 19.8628 88.0551 19.6739 87.764 19.5481C87.8016 19.6587 87.8255 19.7734 87.835 19.8899C87.735 21.3899 88.549 22.632 88.975 23.981C89.316 25.059 89.789 26.0989 90.069 27.1909C90.2638 28.0411 90.3614 28.9107 90.36 29.783C90.371 30.293 90.521 30.5081 91.008 30.5271C91.184 30.5371 91.357 30.5721 91.578 30.6001Z" fill="#808080"/>
<path d="M89.121 20.032C89.1675 20.2228 89.2239 20.411 89.29 20.5959C90.275 22.8639 91.23 25.145 92.271 27.387C92.6147 28.1056 93.0776 28.7608 93.64 29.325C94.068 29.6988 94.5792 29.965 95.131 30.1011C95.911 30.3371 96.053 30.1649 95.942 29.3359C95.9046 29.3126 95.8626 29.2973 95.819 29.291C95.2787 29.3267 94.742 29.1818 94.2931 28.8792C93.8442 28.5765 93.5085 28.1331 93.339 27.6189C92.308 25.3899 91.37 23.1191 90.399 20.8611C90.259 20.5361 90.166 20.2069 89.682 20.2839C89.542 20.3059 89.374 20.152 89.121 20.032Z" fill="#808080"/>
<path d="M84.8 25.9122C85.0637 25.8796 85.3296 25.8699 85.595 25.8831C85.8237 25.9398 86.0461 26.0193 86.259 26.1202V20.651C85.8012 20.6161 85.3418 20.6079 84.883 20.6261C84.767 20.6361 84.583 20.9262 84.583 21.0902C84.565 22.4902 84.5694 23.8901 84.596 25.2901C84.6291 25.5073 84.698 25.7176 84.8 25.9122Z" fill="#808080"/>
<path d="M80.948 42.4199V45.063H84.163C84.131 44.61 84.345 44.1631 83.89 43.7881C83.639 43.5781 83.831 42.8659 84.201 42.4199H80.948Z" fill="#808080"/>
<path d="M74.148 45.0701H76.209V41.7849H74.148V45.0701Z" fill="#808080"/>
<path d="M20.866 43.8689L20.56 41.738L19.504 42.052C18.771 42.27 18.043 42.504 17.304 42.698C16.994 42.78 16.915 42.9289 17.004 43.2109C17.013 43.2419 17.014 43.275 17.025 43.304C17.45 44.504 17.2139 44.3471 18.3709 44.2041C19.1749 44.1001 19.979 43.9869 20.866 43.8689Z" fill="#808080"/>
<path d="M119.61 46.8339C119.653 46.4963 119.645 46.1541 119.585 45.819C119.534 45.6954 119.455 45.5856 119.353 45.4987C119.252 45.4118 119.131 45.3502 119.001 45.319C117.669 45.274 116.335 45.2958 114.901 45.2958C115.06 45.6842 115.313 46.0269 115.639 46.2919C115.964 46.5569 116.35 46.736 116.763 46.8129C117.69 46.8999 118.631 46.8339 119.61 46.8339Z" fill="#808080"/>
<path d="M95.958 31.3V30.5391C93.741 30.6641 92.749 29.1491 91.873 27.4971C91.643 27.0621 91.473 26.5971 91.254 26.1101C91.467 27.0391 91.696 27.9211 91.862 28.8101C91.955 29.3101 91.928 29.8251 91.986 30.3301C92.002 30.4691 92.115 30.6939 92.214 30.7129C93.42 30.9359 94.632 31.1289 95.843 31.3269C95.871 31.3369 95.9 31.317 95.958 31.3Z" fill="#808080"/>
<path d="M86.258 26.444C85.899 26.423 85.537 26.3869 85.175 26.3859C85.1061 26.3783 85.0365 26.3861 84.971 26.4086C84.9054 26.4311 84.8457 26.4677 84.796 26.516C84.7463 26.5643 84.7079 26.6228 84.6835 26.6876C84.6592 26.7525 84.6495 26.822 84.655 26.891C84.6702 27.5416 84.7236 28.1905 84.815 28.8348C84.839 28.9928 85.092 29.184 85.274 29.235C85.5983 29.2974 85.9277 29.3292 86.258 29.33V26.444Z" fill="#808080"/>
<path d="M89.16 31.0481L89.028 31.438C87.717 30.775 87.576 30.5569 87.439 28.9719H86.749C86.6094 29.3763 86.6051 29.8154 86.737 30.2224C86.8689 30.6294 87.1297 30.9824 87.48 31.228C87.8645 31.5601 88.2748 31.8609 88.707 32.1279C88.8308 32.1912 88.9679 32.2244 89.107 32.2244C89.2461 32.2244 89.3832 32.1912 89.507 32.1279C89.6659 31.8843 89.7266 31.5896 89.677 31.303C89.674 31.212 89.354 31.1381 89.16 31.0481Z" fill="#808080"/>
<path d="M96.388 28.9519C95.899 27.7849 95.464 26.6431 94.946 25.5391C94.167 23.8801 93.333 22.2449 92.509 20.6069C92.437 20.4629 92.261 20.3709 92.133 20.2539L92.001 20.3679C92.271 20.8819 92.565 21.3861 92.808 21.9131C93.79 24.0421 94.751 26.18 95.732 28.313C95.851 28.567 95.846 28.9689 96.388 28.9519Z" fill="#808080"/>
<path d="M89.973 30.8711V28.8569L88.524 28.6931C88.524 29.2881 88.513 29.837 88.535 30.385C88.535 30.468 88.678 30.5929 88.776 30.6179C89.157 30.7169 89.547 30.7841 89.973 30.8711Z" fill="#808080"/>
<path d="M80.088 45.818C81.201 45.818 82.315 45.825 83.428 45.809C83.56 45.809 83.689 45.6798 83.82 45.6088C83.6991 45.5379 83.5668 45.4885 83.429 45.4628C81.1877 45.4548 78.946 45.4569 76.704 45.4689C76.588 45.4689 76.473 45.5899 76.357 45.6549C76.469 45.7089 76.581 45.807 76.694 45.809C77.825 45.822 78.957 45.818 80.088 45.818Z" fill="#808080"/>
<path d="M16.9569 44.4609C16.9739 44.3959 16.985 44.379 16.981 44.366C16.743 43.601 16.743 43.6011 15.919 43.6011H14.076C13.938 44.2721 14.081 44.4579 14.706 44.4609C15.453 44.4629 16.1999 44.4609 16.9569 44.4609Z" fill="#808080"/>
<path d="M86.723 22.657H87.456C87.456 21.766 87.47 20.8779 87.438 19.9919C87.407 19.9134 87.3559 19.8444 87.29 19.7917C87.224 19.7391 87.1454 19.7047 87.062 19.6919C86.9807 19.7217 86.9083 19.7717 86.8517 19.8372C86.795 19.9026 86.7559 19.9812 86.738 20.0659C86.708 20.9099 86.723 21.753 86.723 22.657Z" fill="#808080"/>
<path d="M86.725 27.082H87.425V24.5569H86.725V27.082Z" fill="#808080"/>
<path d="M118.511 49.939L118.348 48.6499C118.135 48.6949 117.698 48.6949 117.661 48.8159C117.559 49.1398 117.573 49.4891 117.7 49.804C117.857 50.131 118.234 50.051 118.511 49.939Z" fill="#808080"/>
<path d="M119.5 44.8H108.908C112.436 44.9972 115.972 44.9972 119.5 44.8Z" fill="#808080"/>
<path d="M74.131 15.3V15.7871L74.776 16.293C75.032 15.586 75.168 15.493 76.12 15.3H74.131Z" fill="#808080"/>
<path d="M86.621 28.5339H87.496V27.5271H86.621V28.5339Z" fill="#808080"/>
<path d="M86.592 23.095V24.1179H87.453V23.095H86.592Z" fill="#808080"/>
<path d="M88.087 28.583C87.9381 28.7953 87.8583 29.0484 87.8583 29.3076C87.8583 29.5669 87.9381 29.8197 88.087 30.032V28.583Z" fill="#808080"/>
<path d="M84.31 43.6841L84.876 43.2839L84.22 42.833V43.5381L84.31 43.6841Z" fill="#808080"/>
<path d="M19.874 44.3889C20.374 44.3729 20.907 44.646 21.345 44.189L19.874 44.3889Z" fill="#808080"/>
<path d="M54.495 37.8589C54.5148 38.311 54.7062 38.7386 55.0302 39.0545C55.3543 39.3704 55.7866 39.5509 56.239 39.5591C58.156 39.5681 60.073 39.5711 61.989 39.5591C62.2538 39.5705 62.5179 39.5263 62.7646 39.4295C63.0113 39.3327 63.235 39.1855 63.4213 38.9971C63.6077 38.8088 63.7526 38.5837 63.8468 38.336C63.9409 38.0883 63.9822 37.8237 63.968 37.5591C63.9747 36.5051 63.969 35.4504 63.951 34.3951C63.9426 33.9106 63.7444 33.4487 63.399 33.1089C63.0536 32.7691 62.5886 32.5784 62.104 32.5779C61.13 32.5679 60.156 32.5779 59.182 32.5779C58.239 32.5779 57.296 32.5779 56.353 32.5779C55.8695 32.5763 55.4042 32.7626 55.0552 33.0972C54.7062 33.4319 54.5007 33.8889 54.482 34.3721C54.462 35.5261 54.469 36.6929 54.495 37.8589Z" fill="#808080"/>
<path d="M55.349 7.93398C55.355 6.42598 56.083 5.83987 57.549 6.14687C59.981 6.65887 62.4143 7.16556 64.849 7.66689C65.319 7.7703 65.7414 8.02675 66.0501 8.3959C66.3588 8.76504 66.5363 9.22608 66.555 9.70693C66.571 10.3299 66.569 10.9519 66.566 11.5739C66.589 11.8299 66.5563 12.088 66.4703 12.3302C66.3843 12.5725 66.2469 12.793 66.0676 12.9772C65.8883 13.1614 65.6712 13.3047 65.4314 13.3971C65.1915 13.4896 64.9345 13.529 64.678 13.5128C63.466 13.5288 62.252 13.5128 61.04 13.5128V13.5209C59.858 13.5209 58.6766 13.5209 57.496 13.5209C57.2036 13.5445 56.9097 13.5039 56.6347 13.4018C56.3598 13.2996 56.1106 13.1385 55.9045 12.9298C55.6985 12.7211 55.5406 12.4697 55.4421 12.1935C55.3435 11.9173 55.3066 11.623 55.334 11.331C55.331 10.2 55.344 9.06698 55.349 7.93398ZM56.286 11.2338C56.2697 11.4744 56.3066 11.7158 56.394 11.9406C56.4814 12.1653 56.6172 12.368 56.7917 12.5343C56.9663 12.7007 57.1753 12.8265 57.404 12.903C57.6327 12.9795 57.8754 13.0048 58.115 12.977C59.073 12.977 60.03 12.977 60.988 12.977V12.997H64C64.2275 13.0126 64.4558 12.9791 64.6694 12.8993C64.8831 12.8195 65.0772 12.6951 65.2388 12.5341C65.4003 12.3731 65.5255 12.1793 65.6061 11.966C65.6867 11.7526 65.7208 11.5246 65.706 11.297C65.706 10.833 65.714 10.3709 65.706 9.90786C65.7086 9.43267 65.5456 8.97149 65.245 8.60342C64.9445 8.23534 64.5251 7.98349 64.059 7.89101C62.0003 7.46368 59.94 7.04398 57.878 6.63198C57.6765 6.57416 57.4641 6.566 57.2588 6.60854C57.0536 6.65108 56.8618 6.74299 56.6999 6.87612C56.5381 7.00926 56.411 7.17979 56.3296 7.37295C56.2483 7.5661 56.2151 7.77618 56.233 7.98501C56.239 9.06701 56.253 10.153 56.286 11.236V11.2338Z" fill="#808080"/>
<path d="M26.6 47.548C27.2839 47.5122 27.9543 47.7482 28.4648 48.2047C28.9753 48.6613 29.2845 49.3013 29.325 49.985C29.3499 50.3315 29.3059 50.6795 29.1956 51.0089C29.0854 51.3384 28.911 51.6427 28.6826 51.9044C28.4541 52.1662 28.1762 52.38 27.8648 52.5338C27.5533 52.6877 27.2144 52.7784 26.8677 52.8007C26.5211 52.823 26.1734 52.7764 25.8448 52.6637C25.5162 52.551 25.2131 52.3745 24.9531 52.1442C24.693 51.9139 24.4811 51.6345 24.3295 51.3219C24.178 51.0093 24.0898 50.6697 24.07 50.3229C24.042 49.9719 24.0865 49.6189 24.2005 49.2858C24.3145 48.9527 24.4958 48.6468 24.733 48.3866C24.9702 48.1264 25.2583 47.9176 25.5795 47.7733C25.9006 47.6291 26.2479 47.5525 26.6 47.548ZM26.6 52.422C27.0469 52.4351 27.4877 52.3152 27.8665 52.0778C28.2454 51.8404 28.5454 51.4959 28.7285 51.088C28.9117 50.6802 28.9698 50.2272 28.8956 49.7863C28.8213 49.3454 28.6181 48.9366 28.3114 48.6112C28.0048 48.2858 27.6085 48.0586 27.1728 47.9584C26.7371 47.8582 26.2815 47.8893 25.8635 48.048C25.4455 48.2067 25.0839 48.4858 24.8245 48.85C24.5651 49.2141 24.4195 49.647 24.406 50.0939C24.3945 50.6918 24.6178 51.2705 25.028 51.7057C25.4381 52.1409 26.0024 52.398 26.6 52.422Z" fill="#808080"/>
<path d="M23.985 51.7281C24.2644 51.7927 24.5194 51.9359 24.7198 52.1409C24.9203 52.346 25.0578 52.6043 25.116 52.8851C25.1191 52.9572 25.1047 53.029 25.0741 53.0943C25.0436 53.1597 24.9976 53.2165 24.9403 53.2603C24.883 53.3041 24.8159 53.3335 24.7448 53.3458C24.6737 53.3581 24.6007 53.3531 24.532 53.3311C24.3025 53.2606 24.0927 53.1375 23.9191 52.9718C23.7455 52.806 23.6129 52.602 23.532 52.3761C23.4951 52.3037 23.4787 52.2227 23.4843 52.1417C23.4899 52.0607 23.5175 51.9826 23.5641 51.9161C23.6106 51.8495 23.6743 51.7969 23.7485 51.7637C23.8226 51.7306 23.9044 51.7184 23.985 51.7281ZM24.685 52.9471C24.6463 52.7319 24.5463 52.5323 24.3969 52.3726C24.2475 52.213 24.0552 52.1001 23.843 52.0472C23.8803 52.2635 23.9802 52.4639 24.1304 52.6239C24.2806 52.7838 24.4745 52.8963 24.688 52.9471H24.685Z" fill="#808080"/>
<path d="M28.891 46.971C29.1199 47.0455 29.3277 47.1736 29.497 47.3448C29.6663 47.516 29.7921 47.7254 29.864 47.9551C29.8919 48.0262 29.9016 48.103 29.8922 48.1788C29.8828 48.2546 29.8546 48.3269 29.8102 48.389C29.7658 48.4511 29.7065 48.5011 29.6379 48.5345C29.5692 48.5679 29.4933 48.5836 29.417 48.5801C29.1398 48.5087 28.8874 48.363 28.6869 48.1588C28.4864 47.9545 28.3454 47.6994 28.279 47.421C28.27 47.3443 28.2815 47.2666 28.3122 47.1959C28.343 47.1251 28.392 47.0639 28.4541 47.0181C28.5163 46.9724 28.5895 46.9439 28.6662 46.9356C28.743 46.9274 28.8205 46.9396 28.891 46.971ZM29.404 48.2501L29.585 48.0621L28.785 47.262C28.719 47.334 28.652 47.4042 28.585 47.4742C28.856 47.7312 29.131 47.9901 29.4 48.2501H29.404Z" fill="#808080"/>
<path d="M24.63 46.947C24.993 46.937 25.259 47.2589 25.058 47.5779C24.8163 47.9547 24.4994 48.2774 24.127 48.5259C23.827 48.7259 23.489 48.4509 23.498 48.0859C23.5614 47.8093 23.7011 47.556 23.9012 47.3547C24.1013 47.1534 24.3537 47.0121 24.63 46.947ZM23.993 48.24L24.807 47.4729L24.6 47.2629C24.337 47.5249 24.074 47.7881 23.81 48.0491L23.993 48.24Z" fill="#808080"/>
<path d="M30.066 49.1771C30.403 49.1701 30.649 49.6071 30.637 50.1871C30.625 50.7671 30.418 51.112 30.093 51.118C29.768 51.124 29.524 50.7312 29.524 50.1622C29.524 49.5722 29.737 49.1861 30.066 49.1771ZM30.16 50.7201V49.5431C30.0786 49.618 30.0137 49.7091 29.9693 49.8104C29.9249 49.9117 29.9019 50.0211 29.9019 50.1317C29.9019 50.2423 29.9249 50.3517 29.9693 50.453C30.0137 50.5543 30.0786 50.6451 30.16 50.7201Z" fill="#808080"/>
<path d="M23.329 49.179C23.643 49.191 23.865 49.571 23.88 50.119C23.896 50.719 23.655 51.128 23.3 51.119C22.971 51.105 22.738 50.69 22.748 50.137C22.758 49.563 23 49.166 23.329 49.179ZM23.209 50.7152H23.364C23.4575 50.5435 23.5089 50.3519 23.5141 50.1566C23.5193 49.9612 23.4781 49.7675 23.394 49.5911H23.209V50.7152Z" fill="#808080"/>
<path d="M29.439 51.729C29.511 51.7256 29.5827 51.7401 29.6479 51.771C29.713 51.8019 29.7694 51.8483 29.8123 51.9062C29.8552 51.9642 29.8832 52.0317 29.8938 52.103C29.9043 52.1743 29.8972 52.2471 29.873 52.3149C29.7902 52.5557 29.6522 52.7739 29.4701 52.9519C29.2879 53.1299 29.0667 53.2629 28.824 53.3401C28.7583 53.3607 28.6885 53.3646 28.6209 53.3516C28.5532 53.3385 28.4899 53.3088 28.4367 53.2651C28.3834 53.2215 28.3418 53.1653 28.3157 53.1016C28.2896 53.0378 28.2797 52.9684 28.287 52.8999C28.3387 52.6114 28.4764 52.3454 28.682 52.1365C28.8875 51.9275 29.1514 51.7854 29.439 51.729ZM28.797 53.0381C29.06 52.7661 29.325 52.4949 29.588 52.2229L29.45 52.0891C29.2616 52.1472 29.0902 52.2502 28.9508 52.3896C28.8113 52.5291 28.7081 52.7005 28.65 52.8889L28.797 53.0381Z" fill="#808080"/>
<path d="M26.66 52.988C27.302 52.98 27.66 53.1881 27.652 53.5491C27.642 53.8981 27.309 54.0789 26.677 54.0759C26.045 54.0729 25.715 53.8759 25.726 53.5229C25.736 53.1999 26.093 52.994 26.66 52.988ZM26.139 53.6379H27.251V53.438H26.135L26.139 53.6379Z" fill="#808080"/>
<path d="M26.059 46.3851C26.4811 46.2856 26.9191 46.2738 27.346 46.3502C27.461 46.3632 27.623 46.659 27.622 46.825C27.622 46.961 27.436 47.1511 27.287 47.2191C27.0445 47.292 26.794 47.3346 26.541 47.346C26.3726 47.2986 26.2084 47.2375 26.05 47.1632C25.6 46.9162 25.578 46.5431 26.059 46.3851ZM27.345 46.8851C27.2682 46.794 27.1725 46.7207 27.0644 46.6705C26.9564 46.6203 26.8387 46.5943 26.7195 46.5943C26.6004 46.5943 26.4826 46.6203 26.3746 46.6705C26.2666 46.7207 26.1708 46.794 26.094 46.8851H27.345Z" fill="#808080"/>
<path d="M8.78402 47.522C9.47514 47.5324 10.1346 47.8135 10.6206 48.305C11.1067 48.7964 11.3804 49.459 11.3832 50.1502C11.386 50.8414 11.1174 51.5062 10.6353 52.0015C10.1532 52.4968 9.49603 52.7832 8.80501 52.7991C8.45432 52.8072 8.10556 52.7453 7.77907 52.617C7.45259 52.4887 7.15496 52.2965 6.90359 52.0518C6.65221 51.8071 6.45209 51.5149 6.31502 51.1919C6.17795 50.869 6.10664 50.522 6.10525 50.1712C6.10385 49.8204 6.17241 49.473 6.30691 49.149C6.4414 48.825 6.63915 48.5311 6.88857 48.2845C7.13799 48.0378 7.43409 47.8434 7.75954 47.7125C8.085 47.5816 8.43327 47.5167 8.78402 47.522ZM8.79104 52.4222C9.09068 52.4241 9.38766 52.3659 9.66451 52.2513C9.94136 52.1366 10.1924 51.9677 10.403 51.7544C10.6135 51.5412 10.7792 51.2879 10.8903 51.0096C11.0015 50.7313 11.0558 50.4337 11.05 50.1341C11.0382 49.5433 10.7955 48.9806 10.3737 48.5667C9.952 48.1528 9.38487 47.9206 8.79397 47.92C8.20306 47.9193 7.63545 48.1503 7.21279 48.5633C6.79013 48.9762 6.54611 49.5382 6.53304 50.129C6.52786 50.4286 6.58242 50.7262 6.69362 51.0044C6.80483 51.2827 6.97044 51.5361 7.18068 51.7496C7.39093 51.9631 7.64161 52.1326 7.91811 52.2481C8.19462 52.3636 8.49139 52.4228 8.79104 52.4222Z" fill="#808080"/>
<path d="M6.72599 46.9451C6.80186 46.9363 6.8787 46.9471 6.94914 46.9766C7.01958 47.0062 7.08124 47.0535 7.12809 47.1138C7.17494 47.1742 7.20546 47.2456 7.21665 47.3211C7.22785 47.3967 7.21935 47.4737 7.19199 47.545C7.11838 47.7812 6.98911 47.9965 6.8151 48.1724C6.64109 48.3484 6.42742 48.4798 6.19199 48.556C6.12062 48.5802 6.04429 48.5866 5.96995 48.574C5.89561 48.5615 5.82558 48.5308 5.76609 48.4844C5.7066 48.4381 5.65952 48.3777 5.62913 48.3087C5.59874 48.2397 5.58596 48.1643 5.59196 48.0892C5.65696 47.8124 5.79732 47.5589 5.99747 47.357C6.19763 47.1551 6.44979 47.0126 6.72599 46.9451ZM6.04398 48.2C6.23104 48.1443 6.40165 48.0437 6.54105 47.9071C6.68046 47.7704 6.78444 47.602 6.84397 47.4161L6.68699 47.2601C6.42832 47.5267 6.16866 47.7935 5.908 48.0601L6.04398 48.2Z" fill="#808080"/>
<path d="M11.014 46.9939C11.3797 47.2336 11.6939 47.5441 11.938 47.907C11.9786 47.9765 11.9998 48.0557 11.9991 48.1362C11.9984 48.2168 11.9759 48.2957 11.9341 48.3645C11.8923 48.4334 11.8327 48.4896 11.7616 48.5274C11.6905 48.5651 11.6105 48.5831 11.53 48.5791C11.2435 48.5133 10.9823 48.3655 10.7783 48.1538C10.5742 47.9422 10.4362 47.6757 10.381 47.387C10.3748 47.3102 10.3899 47.2333 10.4246 47.1646C10.4593 47.0958 10.5122 47.0382 10.5776 46.9976C10.643 46.957 10.7184 46.9349 10.7954 46.9343C10.8723 46.9337 10.9479 46.9543 11.014 46.9939ZM11.534 48.3211C11.556 48.2046 11.5498 48.0846 11.516 47.971C11.4822 47.8574 11.4217 47.7535 11.3396 47.668C11.2575 47.5825 11.1562 47.5177 11.0441 47.4793C10.9319 47.4408 10.8123 47.4298 10.695 47.447C10.951 47.715 11.208 47.9831 11.534 48.3211Z" fill="#808080"/>
<path d="M11.492 51.7329C11.825 51.7219 12.002 51.8851 11.979 52.2271C11.9185 52.4984 11.7816 52.7468 11.5846 52.9429C11.3876 53.139 11.1386 53.2747 10.867 53.334C10.553 53.355 10.394 53.2062 10.379 52.9742C10.4175 52.6791 10.5444 52.4025 10.743 52.1809C10.9417 51.9594 11.2028 51.8032 11.492 51.7329ZM10.892 53.0472L11.68 52.2471L11.555 52.1231C11.3642 52.1711 11.1891 52.2678 11.0469 52.4038C10.9048 52.5399 10.8004 52.7105 10.744 52.899C10.79 52.947 10.84 53.0002 10.889 53.0472H10.892Z" fill="#808080"/>
<path d="M6.12405 51.737C6.39366 51.8057 6.63855 51.9486 6.8309 52.1496C7.02325 52.3506 7.15527 52.6016 7.212 52.874C7.22 53.217 6.89803 53.4939 6.61203 53.3059C6.22498 53.0497 5.89426 52.7174 5.64004 52.3291C5.44504 52.0191 5.73705 51.712 6.12405 51.737ZM6.79306 52.945C6.75569 52.7305 6.65509 52.5319 6.50418 52.375C6.35327 52.218 6.15889 52.1097 5.94601 52.0639C5.98821 52.2764 6.09045 52.4722 6.24057 52.6284C6.39068 52.7845 6.58243 52.8945 6.79306 52.945Z" fill="#808080"/>
<path d="M4.85901 50.1C4.87801 49.536 5.10702 49.1629 5.42902 49.1769C5.75102 49.1909 5.96003 49.5559 5.96503 50.1249C5.97103 50.7249 5.76501 51.0948 5.42401 51.1068C5.06601 51.1208 4.83901 50.718 4.85901 50.1ZM5.36402 50.7118L5.51801 50.725V49.591C5.35649 49.7252 5.2511 49.9149 5.2226 50.1229C5.19409 50.331 5.24454 50.5423 5.36402 50.715V50.7118Z" fill="#808080"/>
<path d="M12.153 49.177C12.499 49.165 12.753 49.597 12.736 50.177C12.719 50.757 12.528 51.0949 12.195 51.1089C11.844 51.1229 11.632 50.773 11.625 50.168C11.619 49.589 11.832 49.188 12.153 49.177ZM12.073 50.76C12.1673 50.684 12.2434 50.5878 12.2957 50.4785C12.348 50.3692 12.3751 50.2496 12.3751 50.1284C12.3751 50.0073 12.348 49.8878 12.2957 49.7786C12.2434 49.6693 12.1673 49.5731 12.073 49.4971V50.76Z" fill="#808080"/>
<path d="M8.81703 52.9881C9.44003 52.9981 9.78404 53.2082 9.76204 53.5682C9.74204 53.8882 9.386 54.0752 8.8 54.0682C8.159 54.0632 7.81904 53.874 7.82704 53.523C7.83504 53.172 8.22003 52.9791 8.81703 52.9881ZM8.24501 53.6421H9.35304C9.35304 53.5781 9.35304 53.515 9.35304 53.451H8.24599L8.24501 53.6421Z" fill="#808080"/>
<path d="M8.784 46.207C9.333 46.199 9.75898 46.4379 9.77198 46.7609C9.78498 47.0839 9.38701 47.3309 8.81001 47.3359C8.23301 47.3409 7.83603 47.115 7.82703 46.79C7.81703 46.45 8.2 46.216 8.784 46.207ZM8.24104 46.8579H9.365C9.365 46.7959 9.36498 46.7341 9.35798 46.6721H8.24104V46.8579Z" fill="#808080"/>
<path d="M101.532 47.522C101.88 47.5166 102.226 47.5806 102.549 47.71C102.873 47.8395 103.167 48.0319 103.415 48.2762C103.663 48.5205 103.86 48.8117 103.995 49.1329C104.13 49.4541 104.199 49.7988 104.199 50.147C104.207 50.497 104.144 50.8451 104.016 51.1707C103.888 51.4964 103.695 51.793 103.451 52.0435C103.206 52.294 102.914 52.4934 102.592 52.6297C102.27 52.766 101.923 52.8366 101.573 52.8375C101.223 52.8383 100.876 52.7693 100.553 52.6346C100.23 52.4999 99.9372 52.3021 99.6915 52.0528C99.4457 51.8035 99.2522 51.5077 99.1221 51.1827C98.9921 50.8577 98.9281 50.51 98.934 50.16C98.9306 49.4662 99.2018 48.7993 99.6887 48.305C100.175 47.8107 100.838 47.5292 101.532 47.522ZM101.57 52.4222C102.015 52.4178 102.449 52.282 102.817 52.0321C103.186 51.7821 103.472 51.4292 103.641 51.0172C103.809 50.6052 103.852 50.1526 103.765 49.7161C103.677 49.2797 103.462 48.8788 103.148 48.5638C102.834 48.2488 102.433 48.0335 101.997 47.9451C101.561 47.8568 101.108 47.8992 100.696 48.067C100.283 48.2348 99.9297 48.5206 99.6791 48.8885C99.4286 49.2564 99.2921 49.69 99.287 50.1351C99.285 50.4356 99.3427 50.7337 99.4567 51.0118C99.5707 51.2899 99.7387 51.5425 99.951 51.7552C100.163 51.9679 100.416 52.1363 100.694 52.2508C100.972 52.3653 101.269 52.4237 101.57 52.4222Z" fill="#808080"/>
<path d="M99.022 51.778C99.4006 52.0462 99.7182 52.3913 99.954 52.7909C100.115 53.0479 99.828 53.3559 99.511 53.3569C99.2337 53.2911 98.9808 53.1483 98.7813 52.9448C98.5819 52.7412 98.4441 52.4855 98.384 52.207C98.387 51.823 98.692 51.565 99.022 51.778ZM99.531 52.9899C99.581 52.9419 99.631 52.89 99.681 52.841C99.4144 52.5743 99.1476 52.3055 98.881 52.0348C98.836 52.0798 98.789 52.1239 98.744 52.1679C98.8011 52.3573 98.9021 52.5304 99.0389 52.6733C99.1757 52.8161 99.3443 52.9247 99.531 52.9899Z" fill="#808080"/>
<path d="M99.49 46.9419C99.5616 46.9326 99.6344 46.9411 99.7019 46.9666C99.7694 46.992 99.8297 47.0339 99.8773 47.0881C99.9249 47.1424 99.9585 47.2073 99.975 47.2776C99.9915 47.3479 99.9905 47.4212 99.972 47.491C99.8974 47.7437 99.7613 47.974 99.5757 48.1611C99.3902 48.3482 99.1611 48.4863 98.909 48.563C98.57 48.614 98.402 48.4471 98.379 48.1951C98.4186 47.8994 98.5454 47.6221 98.7433 47.3989C98.9412 47.1757 99.2012 47.0166 99.49 46.9419ZM98.903 48.2529L99.755 47.3711C99.149 47.4131 98.855 47.6889 98.79 48.1479L98.903 48.2529Z" fill="#808080"/>
<path d="M98.2 49.1799C98.516 49.1899 98.737 49.5659 98.754 50.1179C98.771 50.7079 98.526 51.1279 98.17 51.1179C97.832 51.1079 97.618 50.7269 97.62 50.1379C97.622 49.5709 97.866 49.1689 98.2 49.1799ZM98.3 50.696V49.5161C98.212 49.5876 98.1411 49.6778 98.0924 49.7802C98.0436 49.8827 98.0184 49.9945 98.0184 50.1079C98.0184 50.2213 98.0436 50.3334 98.0924 50.4358C98.1411 50.5382 98.212 50.6284 98.3 50.6999V50.696Z" fill="#808080"/>
<path d="M104.285 51.7261C104.357 51.7193 104.429 51.7302 104.495 51.7579C104.562 51.7855 104.621 51.8291 104.666 51.8848C104.712 51.9405 104.743 52.0068 104.757 52.0774C104.771 52.1481 104.768 52.2211 104.747 52.2901C104.673 52.5416 104.535 52.7696 104.346 52.9512C104.157 53.1328 103.924 53.2616 103.67 53.325C103.359 53.37 103.183 53.2461 103.17 52.9251C103.212 52.6355 103.341 52.3656 103.54 52.1514C103.739 51.9372 103.999 51.7888 104.285 51.7261ZM103.572 52.9829C103.763 52.9241 103.938 52.8219 104.083 52.6841C104.228 52.5464 104.339 52.3769 104.407 52.189L104.252 52.034L103.441 52.845L103.572 52.9829Z" fill="#808080"/>
<path d="M103.618 46.9469C103.897 47.0098 104.152 47.1509 104.354 47.3534C104.557 47.556 104.697 47.8117 104.759 48.091C104.765 48.1628 104.754 48.2351 104.726 48.3017C104.698 48.3682 104.655 48.427 104.599 48.473C104.544 48.5191 104.478 48.5512 104.407 48.5663C104.337 48.5814 104.263 48.5793 104.194 48.56C103.953 48.4778 103.735 48.3405 103.556 48.1591C103.378 47.9777 103.244 47.757 103.166 47.5148C103.1 47.1638 103.288 46.9359 103.618 46.9469ZM104.277 48.257C104.34 48.191 104.401 48.1258 104.464 48.0568C104.194 47.7901 103.924 47.5236 103.653 47.257L103.453 47.4699C103.729 47.7332 104.004 47.9956 104.277 48.257Z" fill="#808080"/>
<path d="M101.559 46.2091C102.14 46.1991 102.518 46.4192 102.52 46.7672C102.522 47.1152 102.168 47.341 101.571 47.336C100.974 47.331 100.603 47.1191 100.601 46.7821C100.599 46.4451 100.965 46.2201 101.559 46.2091ZM102.109 46.8602C102.109 46.7972 102.109 46.7342 102.109 46.6732H101.009C101.009 46.7342 101.009 46.7972 101.009 46.8602H102.109Z" fill="#808080"/>
<path d="M101.317 53C101.412 52.9881 101.508 52.9847 101.604 52.9899C102.195 52.9959 102.518 53.1899 102.518 53.5429C102.518 53.8959 102.198 54.0759 101.552 54.0769C101.5 54.0769 101.403 54.077 101.308 54.061C100.982 54.018 100.623 53.961 100.608 53.552C100.6 53.107 100.982 53.056 101.317 53ZM102.131 53.4431H100.922C100.997 53.5296 101.09 53.5988 101.195 53.6462C101.299 53.6936 101.412 53.7182 101.527 53.718C101.642 53.7178 101.755 53.693 101.859 53.6452C101.963 53.5974 102.056 53.5276 102.131 53.4409V53.4431Z" fill="#808080"/>
<path d="M104.936 49.1759C105.286 49.1669 105.503 49.5619 105.492 50.1859C105.482 50.7859 105.292 51.1049 104.958 51.1129C104.624 51.1209 104.402 50.7578 104.4 50.1588C104.398 49.5598 104.6 49.1859 104.936 49.1759ZM104.901 50.7209H105.043V49.6H104.899C104.798 49.7694 104.744 49.9631 104.744 50.1606C104.744 50.358 104.798 50.5516 104.9 50.7209H104.901Z" fill="#808080"/>
<path d="M87.063 38.4901C87.0496 38.6183 87.0656 38.7478 87.1099 38.8688C87.1542 38.9898 87.2256 39.0992 87.3187 39.1883C87.4117 39.2775 87.5239 39.344 87.6467 39.3832C87.7694 39.4223 87.8995 39.433 88.027 39.4142C88.4795 39.3985 88.9259 39.304 89.346 39.1351C89.6579 39.0028 89.9163 38.7694 90.0795 38.4725C90.2428 38.1756 90.3014 37.8324 90.246 37.4982C90.197 36.9762 90.246 36.4441 90.246 35.9171C90.2566 35.8092 90.2458 35.7003 90.2141 35.5966C90.1825 35.4928 90.1307 35.3963 90.0617 35.3126C89.9926 35.229 89.9077 35.1597 89.8118 35.109C89.716 35.0583 89.611 35.0272 89.503 35.0172C88.984 34.9262 88.47 34.811 87.947 34.754C87.8321 34.7316 87.7134 34.7366 87.6007 34.7684C87.488 34.8002 87.3843 34.8579 87.298 34.9371C87.2117 35.0163 87.1452 35.1146 87.1038 35.2242C87.0625 35.3338 87.0475 35.4518 87.06 35.5682C87.053 35.8072 87.06 36.0482 87.06 36.2872C87.06 36.5262 87.06 36.7672 87.06 37.0062C87.06 37.1422 87.06 37.2772 87.06 37.4142C87.057 37.7712 87.054 38.1311 87.063 38.4901Z" fill="#808080"/>
<path d="M80.846 39.656V37.7691C80.446 37.7515 80.0454 37.7564 79.646 37.784C79.499 37.801 79.365 37.9841 79.246 38.1111C79.211 38.1461 79.223 38.2329 79.224 38.2959C79.238 39.8149 78.938 39.765 80.846 39.656Z" fill="#808080"/>
<path d="M81.272 37.793V39.655C81.662 39.755 81.833 39.5959 81.85 39.2629C81.8696 38.9299 81.8723 38.5962 81.858 38.2629C81.842 37.9249 81.677 37.726 81.272 37.793Z" fill="#808080"/>
<path d="M39.308 48.4999C39.67 49.2109 40.046 49.917 40.474 50.59C40.6328 50.8222 40.85 51.0083 41.1037 51.1298C41.3573 51.2513 41.6386 51.3038 41.919 51.2819C46.5997 51.2766 51.2803 51.2766 55.961 51.2819H59.794H85.435C86.403 51.2819 86.56 51.169 86.818 50.256C86.978 49.6894 87.128 49.1197 87.268 48.5471C87.41 47.9661 87.135 47.6201 86.532 47.6201C80.8653 47.6201 75.1987 47.6228 69.532 47.6288H40.582C40.3272 47.6159 40.0719 47.6159 39.817 47.6288C39.7161 47.6316 39.6175 47.6602 39.5307 47.7116C39.4438 47.7631 39.3715 47.8359 39.3205 47.923C39.2696 48.0102 39.2417 48.109 39.2395 48.2099C39.2373 48.3108 39.2609 48.4106 39.308 48.4999Z" fill="#808080"/>
<path d="M40.608 51.3111C40.7789 51.517 40.9958 51.6798 41.2413 51.7864C41.4867 51.8931 41.7538 51.9407 42.021 51.9251C46.397 51.9251 50.7737 51.9251 55.151 51.9251H73.075C78.9377 51.9251 84.8 51.9227 90.662 51.918C90.8777 51.878 91.0854 51.8031 91.277 51.6961C91.143 51.5121 91.05 51.259 90.87 51.157C89.7466 50.5951 88.5071 50.3044 87.251 50.3081C86.72 51.5641 86.565 51.667 85.192 51.667H42.637C41.94 51.7712 41.2279 51.6463 40.608 51.3111Z" fill="#808080"/>
<path d="M56.63 8.06406C56.63 9.08473 56.637 10.106 56.651 11.128C56.6267 11.3318 56.6496 11.5385 56.7179 11.732C56.7862 11.9256 56.8981 12.1008 57.0449 12.2442C57.1917 12.3877 57.3695 12.4957 57.5646 12.5594C57.7597 12.6232 57.9668 12.6412 58.17 12.6122H61.043V12.6202H64.01C64.1853 12.6319 64.3611 12.6062 64.5258 12.545C64.6905 12.4838 64.8404 12.3885 64.9656 12.2652C65.0908 12.1419 65.1884 11.9934 65.2521 11.8297C65.3158 11.6659 65.344 11.4905 65.335 11.315C65.34 10.883 65.344 10.4521 65.335 10.0211C65.3543 9.58683 65.2101 9.16119 64.931 8.82798C64.6518 8.49477 64.258 8.27814 63.827 8.22105C61.859 7.82971 59.8923 7.43248 57.927 7.02915C57.093 6.85215 56.627 7.21806 56.63 8.06406Z" fill="#808080"/>
<path d="M26.693 48.694C26.8885 48.6822 27.0843 48.7109 27.2681 48.7787C27.4518 48.8465 27.6195 48.9516 27.7605 49.0875C27.9015 49.2235 28.0127 49.3871 28.0872 49.5683C28.1616 49.7494 28.1977 49.944 28.193 50.1398C28.1935 50.3368 28.1552 50.5321 28.0803 50.7143C28.0054 50.8964 27.8954 51.0621 27.7565 51.2018C27.6176 51.3415 27.4525 51.4524 27.2707 51.5282C27.0889 51.6041 26.894 51.6434 26.697 51.6439C26.5001 51.6445 26.3049 51.606 26.1227 51.5312C25.9405 51.4563 25.7749 51.3463 25.6352 51.2074C25.4956 51.0685 25.3846 50.9034 25.3087 50.7216C25.2329 50.5398 25.1935 50.3448 25.193 50.1479C25.1902 49.9522 25.2275 49.758 25.3025 49.5773C25.3774 49.3966 25.4886 49.2332 25.6291 49.0971C25.7696 48.9609 25.9364 48.8549 26.1194 48.7855C26.3024 48.7162 26.4976 48.6851 26.693 48.694ZM26.724 51.279C26.875 51.2802 27.0246 51.25 27.1634 51.1906C27.3022 51.1312 27.4272 51.0438 27.5305 50.9337C27.6338 50.8237 27.7132 50.6932 27.7638 50.5509C27.8143 50.4086 27.8348 50.2574 27.824 50.1068C27.8101 49.8102 27.6824 49.5305 27.4675 49.3256C27.2526 49.1207 26.9669 49.0067 26.67 49.007C26.3732 49.0217 26.0932 49.1489 25.8868 49.3627C25.6804 49.5765 25.5633 49.8607 25.559 50.1579C25.5586 50.3089 25.5888 50.4585 25.6478 50.5976C25.7068 50.7366 25.7933 50.8624 25.9021 50.9672C26.011 51.0719 26.14 51.1536 26.2812 51.2072C26.4225 51.2607 26.5731 51.2852 26.724 51.279Z" fill="#808080"/>
<path d="M8.81597 48.6621C9.01153 48.6622 9.2051 48.701 9.38537 48.7768C9.56564 48.8526 9.72902 48.9638 9.8659 49.1035C10.0028 49.2431 10.1104 49.4085 10.1825 49.5903C10.2547 49.7721 10.2899 49.9665 10.286 50.1621C10.286 50.558 10.1295 50.9377 9.85058 51.2187C9.57165 51.4997 9.1929 51.6592 8.79699 51.6621C8.40191 51.6582 8.02398 51.5002 7.74377 51.2216C7.46355 50.9431 7.30323 50.5659 7.29699 50.1709C7.29342 49.9709 7.33037 49.7722 7.40557 49.5869C7.48077 49.4015 7.5927 49.2335 7.73461 49.0925C7.87652 48.9515 8.04547 48.8405 8.23131 48.7666C8.41716 48.6926 8.616 48.6572 8.81597 48.6621ZM8.781 51.2819C8.929 51.287 9.07652 51.2623 9.21484 51.2094C9.35315 51.1565 9.47946 51.0766 9.5863 50.9741C9.69313 50.8715 9.77833 50.7485 9.83684 50.6125C9.89536 50.4765 9.92601 50.3299 9.92699 50.1818C9.93522 50.0297 9.91264 49.8776 9.86059 49.7343C9.80853 49.5911 9.72809 49.4597 9.62408 49.3483C9.52006 49.2369 9.39464 49.1476 9.2553 49.0859C9.11596 49.0241 8.96556 48.9912 8.81316 48.989C8.66077 48.9867 8.50948 49.0153 8.3684 49.073C8.22731 49.1306 8.09934 49.2161 7.99212 49.3244C7.8849 49.4327 7.80065 49.5617 7.74444 49.7033C7.68823 49.845 7.66118 49.9965 7.66497 50.1489C7.66272 50.2969 7.68991 50.4439 7.74499 50.5813C7.80006 50.7186 7.88191 50.8437 7.98577 50.9492C8.08963 51.0546 8.21345 51.1384 8.34997 51.1955C8.48649 51.2527 8.633 51.282 8.781 51.2819Z" fill="#808080"/>
<path d="M101.52 48.6671C101.72 48.6596 101.919 48.6922 102.106 48.7628C102.293 48.8334 102.464 48.9406 102.609 49.0782C102.754 49.2158 102.87 49.381 102.95 49.564C103.03 49.7471 103.073 49.9443 103.076 50.1441C103.074 50.5391 102.917 50.9173 102.639 51.1978C102.36 51.4784 101.984 51.639 101.589 51.6448C101.194 51.6507 100.812 51.5014 100.526 51.2293C100.239 50.9572 100.071 50.5838 100.057 50.189C100.053 49.993 100.087 49.798 100.159 49.6153C100.23 49.4326 100.337 49.266 100.473 49.1246C100.609 48.9832 100.771 48.8701 100.951 48.7916C101.131 48.7131 101.324 48.6707 101.52 48.6671ZM101.62 51.285C101.916 51.2704 102.195 51.1403 102.397 50.9222C102.598 50.7041 102.705 50.4156 102.696 50.119C102.682 49.8224 102.557 49.5421 102.344 49.3345C102.132 49.127 101.849 49.0078 101.552 49.001C101.257 49.0195 100.978 49.1454 100.769 49.3548C100.56 49.5642 100.435 49.8427 100.417 50.138C100.418 50.2931 100.451 50.4466 100.512 50.5889C100.574 50.7313 100.664 50.8596 100.776 50.9666C100.888 51.0736 101.021 51.1571 101.166 51.2117C101.311 51.2664 101.466 51.2913 101.621 51.285H101.62Z" fill="#808080"/>
</svg>
