<svg width="86" height="114" viewBox="0 0 86 114" fill="none" xmlns="http://www.w3.org/2000/svg">
<path d="M69.887 70.335C63.3276 68.3651 56.957 65.814 50.851 62.7119L42.78 63.4678L34.71 62.7119C28.604 65.814 22.2334 68.3651 15.674 70.335C3.85596 74.021 -0.778969 88.6199 0.843031 102.524C0.843031 102.524 12.085 112.796 41.45 113.388V113.416C41.898 113.416 42.3414 113.414 42.78 113.409C43.2187 113.405 43.6623 113.407 44.111 113.416V113.388C73.476 112.796 84.718 102.524 84.718 102.524C86.34 88.6199 81.7 74.021 69.887 70.335Z" fill="#47ABD8"/>
<path d="M53.137 49.4561L43.1949 48.4619L33.252 49.4561C33.252 49.4561 34.9091 58.9009 32.2581 66.1919C32.2581 66.1919 35.5719 70.335 43.1949 70.335C50.8179 70.335 54.131 66.1919 54.131 66.1919C51.48 58.8999 53.137 49.4561 53.137 49.4561Z" fill="#FDB2B6"/>
<g style="mix-blend-mode:multiply">
<path d="M53.137 49.4561L43.1949 48.4619L33.252 49.4561C33.6015 51.7131 33.7723 53.9939 33.7629 56.2778C34.8451 57.9264 36.1617 59.409 37.671 60.6782C39.704 62.3352 43.517 62.7119 44.52 62.7119C45.523 62.7119 49.336 62.3352 51.37 60.6782C51.8542 60.2801 52.3159 59.855 52.7531 59.4058C52.5041 56.0852 52.6329 52.7475 53.137 49.4561Z" fill="#FDB2B6"/>
</g>
<path d="M42.7 13.084C32.633 13.084 26.046 21.244 26.046 31.311C26.046 38.861 29.7509 49.7439 35.8459 54.7109C37.8799 56.3669 41.693 56.7451 42.696 56.7451C43.699 56.7451 47.511 56.3669 49.545 54.7109C55.645 49.7419 59.345 38.859 59.345 31.311C59.351 21.244 52.764 13.084 42.7 13.084Z" fill="#FDB2B6"/>
<path d="M54.38 17.8481C54.38 14.6221 49.149 12.0059 42.698 12.0059C36.247 12.0059 31.015 14.6221 31.015 17.8481C31.015 21.0741 36.246 23.689 42.698 23.689C49.15 23.689 54.38 21.0741 54.38 17.8481Z" fill="#719DFC"/>
<path d="M34.744 19.7119C34.744 19.7119 26.406 23.3718 26.784 37.7598C25.5392 34.0313 25.0344 30.0957 25.2979 26.1738C25.6709 19.3388 32.8239 14.7261 32.8239 14.7261L34.744 19.7119Z" fill="#719DFC"/>
<path d="M50.652 19.7119C50.652 19.7119 58.989 23.3718 58.611 37.7598C59.8563 34.0314 60.3612 30.0958 60.097 26.1738C59.724 19.3388 52.571 14.7261 52.571 14.7261L50.652 19.7119Z" fill="#719DFC"/>
<path d="M29.2769 16.729C29.2769 16.729 28.592 12.559 34.556 9.64501C43.456 5.29501 57.246 10.5148 59.41 24.6948C59.41 24.6948 44.6399 14.119 29.2769 16.729Z" fill="#719DFC"/>
<path d="M32.1341 14.7263C32.1341 14.7263 30.0961 13.0893 26.6651 16.7263C23.2341 20.3633 25.3211 30.1623 25.3211 30.1623C25.3211 30.1623 29.648 16.9624 34.744 16.3474C39.84 15.7324 31.439 14.7233 31.439 14.7233" fill="#719DFC"/>
<path d="M53.0529 14.7263C53.0529 14.7263 55.0919 13.0893 58.5219 16.7263C61.9519 20.3633 59.8659 30.1623 59.8659 30.1623C59.8659 30.1623 55.5389 16.9624 50.4439 16.3474C45.3489 15.7324 53.749 14.7233 53.749 14.7233" fill="#719DFC"/>
<path d="M65.539 38.817C65.028 43.456 60.674 46.7829 58.355 46.5269C56.036 46.2709 56.6281 42.5272 57.1391 37.8912C57.6501 33.2552 57.8871 29.4711 60.2061 29.7271C62.5251 29.9831 66.051 34.178 65.539 38.817Z" fill="#47ABD8"/>
<path d="M59.128 37.8912C59.543 34.1222 59.777 30.9203 61.094 29.9913C60.8136 29.858 60.5139 29.7697 60.206 29.7301C57.887 29.4741 57.651 33.2551 57.139 37.8941C56.627 42.5331 56.039 46.2749 58.355 46.5299C58.8198 46.5652 59.2868 46.5029 59.7259 46.3463C58.1439 45.5003 58.668 42.0602 59.128 37.8912Z" fill="white"/>
<path d="M20.021 38.817C20.533 43.456 24.8861 46.7829 27.2061 46.5269C29.5261 46.2709 28.933 42.5272 28.421 37.8912C27.909 33.2552 27.674 29.4711 25.354 29.7271C23.034 29.9831 19.51 34.178 20.021 38.817Z" fill="#47ABD8"/>
<path d="M28.421 37.8912C27.91 33.2522 27.674 29.4711 25.354 29.7271C25.0464 29.7669 24.7471 29.8547 24.467 29.9879C25.784 30.9199 26.018 34.1223 26.433 37.8883C26.892 42.0573 27.416 45.4989 25.833 46.3399C26.2721 46.4965 26.7391 46.5593 27.204 46.524C29.526 46.272 28.933 42.5302 28.421 37.8912Z" fill="white"/>
<path d="M61.8831 32.6191L60.465 32.1582C60.509 32.0212 64.825 18.4308 58.798 10.1338C55.667 5.82379 50.25 3.63379 42.698 3.63379C35.146 3.63379 29.7251 5.82079 26.5981 10.1338C20.5681 18.4408 24.89 32.0159 24.934 32.1519L23.516 32.6138C23.326 32.0288 18.916 18.1738 25.391 9.25684C28.819 4.53584 34.6431 2.14209 42.7021 2.14209C50.7611 2.14209 56.585 4.53584 60.012 9.25684C66.48 18.1788 62.0731 32.0341 61.8831 32.6191Z" fill="#47ABD8"/>
<path d="M27.7629 9.92188C27.3147 9.92203 26.8769 9.78777 26.506 9.53613C26.1352 9.28449 25.8486 8.92725 25.6832 8.51074C25.5177 8.09423 25.4812 7.6377 25.5783 7.2002C25.6755 6.7627 25.9018 6.36449 26.228 6.05713C30.028 2.47313 35.5739 0.657227 42.6979 0.657227C49.6769 0.657227 55.141 2.40221 58.937 5.84521C59.3764 6.24384 59.6395 6.80045 59.6684 7.39307C59.6973 7.98568 59.4895 8.56542 59.0909 9.00488C58.6923 9.44435 58.1354 9.70745 57.5428 9.73633C56.9502 9.76521 56.3704 9.5578 55.931 9.15918C52.983 6.48618 48.5309 5.13086 42.6979 5.13086C36.7519 5.13086 32.2429 6.53796 29.2979 9.31396C28.8833 9.70617 28.3336 9.92378 27.7629 9.92188Z" fill="#719DFC"/>
<path d="M44.52 53.9302V52.936C51.549 52.936 56.76 51.136 59.59 47.73C60.825 46.3063 61.582 44.5307 61.754 42.6538L62.748 42.6699C62.5788 44.7765 61.7402 46.774 60.355 48.3701C58.246 50.9001 53.786 53.9302 44.52 53.9302Z" fill="#47ABD8"/>
<path d="M47.006 53.2671C47.006 54.3671 45.559 55.2559 43.775 55.2559C41.991 55.2559 40.543 54.3651 40.543 53.2671C40.543 52.1691 41.99 51.2788 43.775 51.2788C45.56 51.2788 47.006 52.1691 47.006 53.2671Z" fill="#47ABD8"/>
<path d="M77.007 96.9189C75.807 98.7189 76.907 90.1028 76.407 85.5918C75.9376 93.2816 74.9581 100.932 73.475 108.492C74.24 108.211 74.9609 107.929 75.6429 107.648C77.2682 101.965 78.4616 96.1685 79.213 90.3062C79.213 90.3062 78.21 95.1139 77.007 96.9189ZM10.542 96.9189C9.34199 95.1139 8.34204 90.3032 8.34204 90.3032C9.13994 96.4625 10.4151 102.55 12.156 108.512C12.8187 108.754 13.5133 108.994 14.24 109.231C12.6636 101.432 11.6309 93.5335 11.149 85.5918C10.643 90.0998 11.745 98.7229 10.542 96.9189Z" fill="white"/>
</svg>
