<svg width="195" height="61" viewBox="0 0 195 61" fill="none" xmlns="http://www.w3.org/2000/svg">
<g opacity="0.5">
<path opacity="0.5" d="M113.074 58.2052C112.887 58.2052 112.699 58.2214 112.512 58.2214H100.286C99.786 58.2144 99.779 58.2142 99.777 57.7072C99.777 56.8382 99.777 55.9693 99.777 55.0993C99.8053 54.9212 99.7825 54.7389 99.7111 54.5734C99.5111 54.6194 99.441 54.8089 99.34 54.9469C98.026 56.7573 96.2679 58.1989 94.2351 59.1325C92.2023 60.066 89.9634 60.4601 87.734 60.277C83.7831 60.0587 80.021 58.5154 77.055 55.8962C74.2403 53.4344 72.1595 50.2434 71.042 46.675C70.664 45.5077 70.3861 44.3107 70.2111 43.0964C70.1441 42.6524 70.1441 42.6513 69.7111 42.6413C69.6111 42.6413 69.511 42.6413 69.404 42.6413H44.388C43.522 42.6413 43.631 42.5992 43.688 43.3752C43.8593 45.102 44.5983 46.7234 45.7892 47.9855C46.9802 49.2476 48.556 50.0792 50.27 50.3503C51.4905 50.5021 52.728 50.4466 53.93 50.1862C55.0604 49.9531 56.0807 49.3502 56.8299 48.4723C57.0969 48.1854 57.343 47.8796 57.566 47.5573C57.6481 47.4219 57.7666 47.3126 57.9082 47.2419C58.0498 47.1711 58.2085 47.1418 58.366 47.1574C61.93 47.1704 65.493 47.1652 69.057 47.1652C69.484 47.1652 69.91 47.1652 70.3361 47.1652C70.4841 47.1652 70.6409 47.1264 70.7729 47.2194C70.7885 47.2602 70.7946 47.3038 70.7906 47.3473C70.7867 47.3908 70.7727 47.4331 70.75 47.4704C69.4611 50.7557 67.3628 53.6618 64.65 55.9191C62.1407 57.9127 59.1622 59.2298 55.999 59.7443C53.6653 60.1784 51.2813 60.2754 48.92 60.0324C46.1219 59.813 43.4006 59.011 40.9307 57.6779C38.4608 56.3448 36.297 54.5098 34.578 52.2912C32.6191 49.7558 31.327 46.7697 30.82 43.6061C30.3141 40.6406 30.397 37.6045 31.064 34.6711C31.075 34.6211 31.092 34.5711 31.1 34.5221C31.158 34.1931 31.144 34.1763 30.811 34.1603C30.726 34.1603 30.641 34.1603 30.555 34.1603H16.688C16.019 34.1603 16.056 34.1203 16.056 34.8073C16.056 42.358 16.056 49.9088 16.056 57.4601C16.056 58.3051 16.143 58.2213 15.284 58.2223C10.6787 58.2223 6.07433 58.2223 1.471 58.2223C0.847999 58.2223 0.845999 58.2222 0.845999 57.6222C0.845999 38.9242 0.845999 20.2241 0.845999 1.52213C0.845999 1.43613 0.851999 1.35127 0.845999 1.26627C0.831999 1.03027 0.933016 0.917242 1.17602 0.934242C1.29402 0.942242 1.41399 0.934242 1.53399 0.934242C12.3447 0.934242 23.1556 0.934242 33.967 0.934242C34.672 0.934242 34.667 0.817324 34.667 1.61832V13.0182C34.667 13.8122 34.655 13.7013 33.967 13.7023C28.289 13.7023 22.6107 13.7023 16.932 13.7023H16.574C16.074 13.7093 16.067 13.709 16.067 14.216C16.067 16.568 16.067 18.9204 16.067 21.2731C16.067 21.8581 16.067 21.862 16.661 21.862H29.5C30.506 21.862 31.513 21.862 32.519 21.862C33.087 21.862 33.091 21.8621 33.092 22.4211C33.092 24.4837 33.092 26.5464 33.092 28.609C33.0656 28.7743 33.0783 28.9437 33.129 29.1032C33.256 29.1402 33.278 29.0344 33.317 28.9694C34.6665 26.7144 36.4758 24.7687 38.6271 23.2594C40.7783 21.7501 43.2234 20.7108 45.803 20.2091C50.383 19.1263 55.1811 19.4228 59.593 21.0612C63.962 22.6887 67.5229 25.9577 69.517 30.172C70.0352 31.2278 70.4757 32.3201 70.835 33.4401C70.949 33.5061 70.972 33.407 71.014 33.34C72.0088 30.0415 73.8406 27.0566 76.331 24.6759C79.33 21.7801 83.2689 20.0573 87.431 19.821C89.2698 19.6835 91.1187 19.8281 92.9139 20.2492C95.3553 20.8215 97.568 22.1151 99.264 23.9621C99.364 24.0741 99.478 24.1813 99.589 24.2863C99.61 24.3063 99.652 24.3021 99.71 24.3151C99.7946 24.1165 99.819 23.8975 99.78 23.6852C99.78 18.7079 99.78 13.7307 99.78 8.75407V1.64616C99.78 1.50916 99.785 1.37298 99.78 1.23698C99.775 1.02898 99.8559 0.912918 100.08 0.926918C100.165 0.926918 100.25 0.926918 100.335 0.926918H112.716C112.835 0.926918 112.954 0.937078 113.073 0.941078C113.133 1.00158 113.179 1.07541 113.206 1.15641C113.233 1.23741 113.242 1.32369 113.23 1.40836C113.23 1.56236 113.23 1.71532 113.23 1.86832C113.23 20.335 113.228 38.8016 113.225 57.2682C113.224 57.5872 113.325 57.9282 113.074 58.2052Z" fill="#4F4F4F"/>
<path opacity="0.5" d="M145.095 22.1068C145.071 21.9988 145.064 21.8947 145.212 21.8827C145.36 21.8707 145.484 21.87 145.621 21.87C150.888 21.87 156.156 21.8674 161.426 21.8627C161.601 21.8522 161.776 21.8831 161.937 21.9525C162.097 22.022 162.24 22.1286 162.352 22.2631C164.731 24.9131 167.129 27.5469 169.521 30.1859C170.004 30.7199 169.962 30.6861 170.421 30.1591C172.696 27.5531 174.968 24.9439 177.236 22.3319C177.36 22.1741 177.52 22.0486 177.702 21.9657C177.885 21.8829 178.085 21.845 178.285 21.8559C183.298 21.8699 188.311 21.8734 193.323 21.8661C193.532 21.8412 193.744 21.8627 193.944 21.9291C193.901 22.0979 193.808 22.2489 193.675 22.3617C191.084 25.2784 188.493 28.1954 185.9 31.1127C183.377 33.9547 180.856 36.7977 178.336 39.641C178.056 39.957 178.051 39.966 178.356 40.308C179.705 41.822 181.056 43.3341 182.41 44.8441C185.973 48.8361 189.535 52.8291 193.098 56.8231C193.427 57.1921 193.757 57.5591 194.084 57.9301C194.137 57.9911 194.213 58.0459 194.184 58.1649C194.034 58.2333 193.867 58.2528 193.706 58.2201C188.387 58.2201 183.068 58.2229 177.748 58.2289C177.581 58.2379 177.414 58.2069 177.261 58.1386C177.109 58.0702 176.975 57.9664 176.87 57.8358C174.478 55.1285 172.078 52.4284 169.67 49.7357C169.299 49.3197 169.302 49.3181 168.947 49.7211C167.819 50.9978 166.691 52.2751 165.564 53.5531C164.313 54.9711 163.053 56.3829 161.817 57.8139C161.708 57.9518 161.567 58.0613 161.407 58.1337C161.247 58.2061 161.072 58.2392 160.896 58.2299C155.577 58.2152 150.258 58.2092 144.938 58.2118C134.555 58.2118 124.172 58.2151 113.789 58.2211C113.589 58.2211 113.381 58.2071 113.176 58.1991C113.112 58.0224 113.096 57.8319 113.128 57.6469C113.128 38.9309 113.128 20.2152 113.128 1.4999C113.096 1.31479 113.112 1.12465 113.177 0.948147C113.398 0.941147 113.619 0.929104 113.84 0.929104C123.932 0.929104 134.023 0.929104 144.114 0.929104C144.974 0.929104 144.914 0.828909 144.914 1.72891C144.914 5.47824 144.914 9.227 144.914 12.975C144.914 13.791 144.947 13.7098 144.156 13.7108C138.548 13.7108 132.94 13.7108 127.332 13.7108C126.611 13.7108 126.613 13.6259 126.614 14.4379C126.614 16.6686 126.614 18.8994 126.614 21.1308C126.614 21.2498 126.614 21.3697 126.614 21.4887C126.607 21.7397 126.714 21.8711 126.978 21.8651C127.148 21.8601 127.319 21.8651 127.489 21.8651H144.109C144.992 21.8651 144.909 21.8269 144.909 22.6649C144.909 26.2603 144.909 29.8554 144.909 33.4501C144.925 33.6885 144.911 33.9277 144.87 34.163C144.779 34.374 144.586 34.3848 144.398 34.4008C144.109 34.4248 143.819 34.4179 143.529 34.4179H128.334C128.134 34.4179 127.925 34.4178 127.721 34.4228C127.072 34.4548 126.844 34.6549 126.841 35.2938C126.824 38.2938 126.824 41.2938 126.841 44.2938C126.841 44.9138 127.067 45.1167 127.676 45.1547C127.898 45.1687 128.12 45.162 128.341 45.162C133.526 45.162 138.711 45.162 143.894 45.162C144.249 45.102 144.613 45.1516 144.939 45.3041C145.107 45.5131 145.045 45.7611 145.045 45.9931C145.05 49.2484 145.05 52.5027 145.045 55.7567C145.035 56.2318 145.122 56.7041 145.299 57.1449C145.499 57.2569 145.585 57.0937 145.677 56.9857C147.323 55.0587 149.033 53.186 150.713 51.286C152.213 49.5927 153.718 47.9041 155.229 46.2201C156.885 44.3691 158.529 42.5058 160.18 40.6518C160.714 40.0518 160.68 39.9648 160.163 39.3788C158.651 37.6735 157.137 35.97 155.621 34.268C154.434 32.9346 153.248 31.5991 152.063 30.2611C150.831 28.8765 149.6 27.49 148.371 26.102C147.449 25.055 146.525 24.0088 145.582 22.9818C145.336 22.7455 145.166 22.4407 145.095 22.1068Z" fill="#727272"/>
<path opacity="0.5" d="M113.178 0.952148C113.178 20.0355 113.178 39.1191 113.178 58.2031H113.078C113.078 57.9471 113.078 57.692 113.078 57.436C113.078 38.8787 113.078 20.3218 113.078 1.76514C113.078 1.49314 113.078 1.21978 113.071 0.946777L113.178 0.952148Z" fill="#727272"/>
<path opacity="0.5" d="M71.006 33.3491C71.011 33.4391 70.991 33.5258 70.897 33.5488C70.838 33.5648 70.823 33.5012 70.827 33.4492L71.006 33.3491Z" fill="#BCBCBC"/>
<path opacity="0.5" d="M83.64 40.1288C83.6261 38.2159 84.023 36.3225 84.8039 34.5761C85.4299 33.1653 86.4444 31.9615 87.729 31.1059C89.0634 30.2814 90.6242 29.8998 92.1885 30.016C93.7527 30.1322 95.2401 30.7403 96.438 31.7529C97.3645 32.6176 98.0676 33.6942 98.487 34.8901C99.6453 37.9628 99.7067 41.3412 98.661 44.454C98.25 45.745 97.4965 46.9001 96.4809 47.7968C95.7245 48.4525 94.8374 48.9399 93.8784 49.227C92.9194 49.514 91.9102 49.5942 90.918 49.4618C89.6892 49.3429 88.5097 48.9188 87.4869 48.2275C86.4641 47.5362 85.6305 46.5997 85.062 45.5038C84.1239 43.8682 83.6335 42.0143 83.64 40.1288Z" fill="white"/>
<path opacity="0.5" d="M51.243 34.3072H44.7C44.054 34.3072 44.05 34.296 44.239 33.689C44.5727 32.5566 45.156 31.5136 45.946 30.6363C46.7503 29.745 47.7668 29.0713 48.901 28.6778C50.0352 28.2842 51.2505 28.1832 52.434 28.3848C53.9904 28.5498 55.4406 29.2532 56.5341 30.3731C57.4666 31.3554 58.111 32.575 58.397 33.899C58.479 34.242 58.439 34.2852 58.097 34.3042C57.961 34.3122 57.824 34.3042 57.688 34.3042L51.243 34.3072Z" fill="white"/>
<path opacity="0.5" d="M144.892 45.4238C145.001 45.6564 145.038 45.9161 144.999 46.1699C144.999 49.8606 144.999 53.5518 144.999 57.2432C144.965 57.4971 144.995 57.7554 145.085 57.9951C145.018 58.0501 144.943 58.038 144.933 57.96C144.914 57.7913 144.907 57.6218 144.91 57.4521C144.91 53.6801 144.91 49.9082 144.91 46.1362C144.911 45.9002 144.9 45.6608 144.892 45.4238Z" fill="#FEFEFE"/>
</g>
</svg>
