<svg width="29" height="28" viewBox="0 0 29 28" fill="none" xmlns="http://www.w3.org/2000/svg">
<path d="M14.2359 27.968C11.4778 27.968 8.78176 27.1508 6.4885 25.6184C4.19523 24.0861 2.40783 21.9078 1.35239 19.3596C0.296957 16.8115 0.0209045 14.0071 0.559056 11.302C1.09721 8.59692 2.42536 6.11257 4.37571 4.16237C6.32605 2.21217 8.81096 0.88392 11.5161 0.345962C14.2212 -0.191996 17.0251 0.0842903 19.5732 1.13991C22.1213 2.19552 24.2991 3.98325 25.8313 6.27663C27.3634 8.57 28.1812 11.2666 28.181 14.0247C28.1765 17.7216 26.7058 21.2651 24.0915 23.8792C21.4773 26.4932 17.9329 27.9638 14.2359 27.968ZM14.2359 1.13502C11.687 1.13502 9.1953 1.89079 7.0759 3.3069C4.9565 4.72301 3.30457 6.73616 2.32908 9.09108C1.35358 11.446 1.09835 14.0374 1.59556 16.5374C2.09276 19.0374 3.32009 21.3335 5.12241 23.136C6.92473 24.9385 9.22108 26.1659 11.721 26.6633C14.221 27.1607 16.8123 26.9062 19.1673 25.9309C21.5223 24.9556 23.5352 23.3031 24.9515 21.1839C26.3678 19.0646 27.1238 16.5736 27.124 14.0247C27.1211 10.6074 25.7624 7.33082 23.346 4.91432C20.9297 2.49783 17.6532 1.1382 14.2359 1.13502Z" fill="white"/>
<path d="M15.9129 13.6729H10.493L10.499 15.2247H14.154C14.0255 16.0753 13.5955 16.8521 12.9426 17.4122C12.2897 17.9722 11.4572 18.2789 10.597 18.2765C9.9042 18.2769 9.22169 18.1077 8.60899 17.7843C7.99629 17.4608 7.4719 16.9923 7.0814 16.42C6.6909 15.8477 6.44615 15.1885 6.36839 14.5001C6.29062 13.8116 6.38223 13.1148 6.63523 12.4698C6.88824 11.8248 7.29494 11.2519 7.82005 10.7999C8.34516 10.3479 8.97271 10.0312 9.64817 9.87704C10.3236 9.72289 11.0266 9.73572 11.6958 9.91513C12.365 10.0945 12.9802 10.435 13.488 10.9063L14.688 9.87216C14.0066 9.20069 13.1705 8.70747 12.2533 8.43564C11.3361 8.1638 10.3661 8.12181 9.42894 8.31356C8.49174 8.50532 7.6162 8.92502 6.8795 9.53524C6.1428 10.1455 5.56756 10.9275 5.20469 11.8126C4.84183 12.6977 4.70246 13.6587 4.79881 14.6104C4.89516 15.5622 5.22428 16.4752 5.75718 17.2696C6.29008 18.0641 7.01042 18.7149 7.85447 19.1651C8.69853 19.6153 9.64041 19.8506 10.597 19.8507C11.3199 19.8581 12.0364 19.7175 12.7025 19.4366C13.3686 19.1557 13.9699 18.7406 14.4691 18.2179C14.9683 17.6951 15.3549 17.0758 15.6048 16.3975C15.8548 15.7193 15.9627 14.9972 15.922 14.2755L15.9129 13.6729Z" fill="white"/>
<path d="M23.7 13.7373H21.462V11.5H20.035V13.7383H17.8V15.165H20.038V17.4033H21.465V15.165H23.703L23.7 13.7373Z" fill="white"/>
</svg>
