<svg width="38" height="30" viewBox="0 0 38 30" fill="none" xmlns="http://www.w3.org/2000/svg">
<path d="M37.027 5.98416C36.8861 5.8991 36.7225 5.85914 36.5583 5.86969C36.394 5.88024 36.2369 5.94077 36.108 6.04315L27.483 12.8802L19.608 0.861145C19.5344 0.749121 19.434 0.657175 19.316 0.593536C19.198 0.529897 19.0661 0.496582 18.932 0.496582C18.798 0.496582 18.666 0.529897 18.548 0.593536C18.43 0.657175 18.3297 0.749121 18.256 0.861145L10.381 12.8802L1.75702 6.04315C1.62812 5.93943 1.47047 5.87779 1.3054 5.86655C1.14033 5.85531 0.975784 5.895 0.834005 5.98029C0.692227 6.06557 0.580053 6.19232 0.512632 6.34341C0.445212 6.49451 0.4258 6.66268 0.457022 6.82516L3.90002 25.1522C3.96902 26.5182 5.57302 27.6091 8.67302 28.3951C12.0372 29.1602 15.4803 29.5234 18.93 29.4771C22.3801 29.5234 25.8235 29.1601 29.188 28.3951C32.288 27.6091 33.888 26.5182 33.961 25.1522L37.402 6.82516C37.4326 6.66348 37.4131 6.4963 37.346 6.34601C37.279 6.19572 37.1677 6.06948 37.027 5.98416ZM28.793 26.8292C25.5582 27.5607 22.2482 27.9071 18.932 27.8611C15.6162 27.9071 12.3065 27.5607 9.07202 26.8292C6.17202 26.0922 5.51502 25.2841 5.51502 25.0591C5.51502 24.8341 6.16802 24.0272 9.07202 23.2902C12.3065 22.5586 15.6162 22.2122 18.932 22.2581C22.2482 22.2122 25.5582 22.5586 28.793 23.2902C31.693 24.0272 32.35 24.8351 32.35 25.0591C32.35 25.2831 31.7 26.0922 28.793 26.8292ZM32.7 23.1201C31.6157 22.4621 30.4295 21.989 29.19 21.7202C25.8255 20.9551 22.3821 20.5919 18.932 20.6382C15.4823 20.5919 12.0392 20.9551 8.67502 21.7202C7.43551 21.989 6.24933 22.4621 5.16502 23.1201L2.44802 8.65414L10.07 14.7002C10.1579 14.7701 10.2594 14.8209 10.3681 14.8493C10.4767 14.8778 10.5901 14.8832 10.701 14.8654C10.8119 14.8475 10.9178 14.8067 11.012 14.7455C11.1062 14.6843 11.1866 14.6042 11.248 14.5102L18.932 2.78217L26.616 14.5102C26.6775 14.6042 26.7579 14.6843 26.852 14.7455C26.9462 14.8067 27.0522 14.8475 27.1631 14.8654C27.2739 14.8832 27.3873 14.8778 27.496 14.8493C27.6046 14.8209 27.7061 14.7701 27.794 14.7002L35.416 8.65814L32.7 23.1201Z" fill="#FF4242"/>
</svg>
