<svg width="209" height="101" viewBox="0 0 209 101" fill="none" xmlns="http://www.w3.org/2000/svg">
<g opacity="0.5">
<path opacity="0.5" d="M20.777 48.1619C20.805 44.6919 20.7901 41.2208 20.7901 37.7488C20.7901 34.3058 20.805 30.8617 20.777 27.4177C20.77 26.7467 20.963 26.5087 21.652 26.5247C23.375 26.5657 25.101 26.5577 26.823 26.5247C27.423 26.5137 27.6341 26.71 27.6331 27.325C27.6158 34.3216 27.6158 41.318 27.6331 48.3147C27.6331 48.9227 27.45 49.1148 26.833 49.1048C25.11 49.0668 23.384 49.0508 21.663 49.1048C20.894 49.1378 20.77 48.8399 20.777 48.1619Z" fill="#C0C0C0"/>
<path opacity="0.5" d="M27.6379 73.4704C27.6439 74.1704 27.473 74.4333 26.726 74.4103C25.026 74.3563 23.326 74.37 21.631 74.403C21.012 74.415 20.774 74.2601 20.775 73.5871C20.7977 66.6077 20.7994 59.6294 20.78 52.652C20.78 52.065 20.922 51.8221 21.557 51.8351C23.309 51.8731 25.0639 51.8781 26.8149 51.8351C27.5009 51.8191 27.6361 52.0953 27.6331 52.7043C27.6131 56.1793 27.6231 59.6541 27.6231 63.1281C27.6231 66.5751 27.6059 70.0244 27.6379 73.4704Z" fill="#C0C0C0"/>
<path opacity="0.5" d="M30.3 48.1851C30.326 41.2918 30.326 34.398 30.3 27.504C30.3 26.764 30.486 26.4971 31.256 26.5201C32.924 26.5731 34.597 26.5651 36.266 26.5201C36.95 26.5041 37.1591 26.7332 37.1541 27.4092C37.1311 32.0322 37.162 36.6569 37.124 41.2789C37.118 42.1159 37.361 42.3431 38.189 42.3331C41.695 42.2891 45.2007 42.2891 48.7061 42.3331C49.4811 42.3411 49.7341 42.1469 49.7271 41.3409C49.6901 36.7409 49.727 32.1483 49.693 27.5533C49.688 26.7903 49.857 26.4872 50.682 26.5172C52.382 26.5772 54.082 26.5509 55.776 26.5259C56.335 26.5179 56.547 26.7009 56.545 27.2769C56.5317 34.3069 56.5334 41.3379 56.55 48.3692C56.55 49.0542 56.2299 49.0982 55.6949 49.0972C51.6149 49.0832 47.533 49.0899 43.452 49.0899C39.371 49.0899 35.2921 49.072 31.2111 49.106C30.4821 49.115 30.3 48.9001 30.3 48.1851Z" fill="#C0C0C0"/>
<path opacity="0.5" d="M56.559 52.7452C56.5323 59.6679 56.5323 66.5906 56.559 73.5133C56.559 74.1783 56.393 74.4283 55.691 74.4073C54.021 74.3613 52.347 74.3613 50.678 74.4073C49.949 74.4283 49.694 74.24 49.7 73.461C49.738 68.861 49.718 64.267 49.718 59.67C49.718 58.622 49.718 58.6202 48.636 58.6202C45.158 58.6202 41.678 58.6462 38.2 58.6002C37.377 58.5892 37.1251 58.8002 37.1331 59.6422C37.1731 64.2422 37.138 68.8362 37.166 73.4332C37.166 74.1602 36.994 74.4333 36.212 74.4103C34.488 74.3523 32.7601 74.377 31.0341 74.4C30.5111 74.408 30.3139 74.2522 30.3149 73.7062C30.3276 66.6462 30.3276 59.586 30.3149 52.526C30.3149 51.873 30.644 51.8409 31.134 51.8429C35.244 51.8509 39.3531 51.8529 43.4611 51.8482C47.5151 51.8482 51.571 51.8631 55.625 51.8331C56.323 51.8281 56.56 52.0092 56.559 52.7452Z" fill="#C0C0C0"/>
<path opacity="0.5" d="M66.0749 52.5393C66.0643 59.5973 66.0643 66.6564 66.0749 73.717C66.0749 74.272 65.85 74.4071 65.338 74.4001C63.559 74.3791 61.7779 74.3651 59.9969 74.4001C59.3489 74.4151 59.231 74.1563 59.234 73.5793C59.255 70.0793 59.246 66.579 59.246 63.072C59.246 59.653 59.2639 56.2333 59.2309 52.8123C59.2219 52.0903 59.382 51.7984 60.172 51.8254C61.894 51.8824 63.622 51.8582 65.348 51.8352C65.871 51.8332 66.0769 52.0003 66.0749 52.5393Z" fill="#C0C0C0"/>
<path opacity="0.5" d="M66.078 27.321C66.062 34.317 66.062 41.3139 66.078 48.3113C66.078 48.9033 65.916 49.1202 65.289 49.1052C63.538 49.0642 61.789 49.0592 60.037 49.1052C59.343 49.1242 59.2311 48.8473 59.2371 48.2453C59.2581 44.7453 59.2491 41.2452 59.2491 37.7512C59.2491 34.3082 59.263 30.8641 59.235 27.4201C59.229 26.7591 59.4 26.5042 60.101 26.5202C61.823 26.5632 63.548 26.5552 65.27 26.5202C65.869 26.5172 66.08 26.711 66.078 27.321Z" fill="#C0C0C0"/>
<path opacity="0.5" d="M87.012 26.6803C87.0382 26.3179 86.9534 25.956 86.7686 25.6432C86.5839 25.3303 86.3081 25.0814 85.9781 24.9293C72.0661 16.884 58.1634 8.82319 44.2701 0.747185C44.0531 0.588447 43.7921 0.501258 43.5232 0.497674C43.2544 0.49409 42.9912 0.574269 42.7701 0.727166C36.1241 4.60517 29.4711 8.46865 22.8111 12.318C15.5651 16.522 8.31633 20.7221 1.06499 24.9181C0.735135 25.0649 0.4592 25.3105 0.275199 25.6212C0.0911983 25.9319 0.00825706 26.2921 0.0380167 26.652C0.0710167 34.559 0.0580362 42.4681 0.0580362 50.3751C0.0580362 58.2561 0.0780587 66.1362 0.0310587 74.0172C-0.000286315 74.4162 0.0935552 74.8151 0.299491 75.1583C0.505427 75.5015 0.813263 75.7721 1.18011 75.9322C6.55011 79.0052 11.8971 82.1183 17.2501 85.2233C25.7987 90.1819 34.3457 95.1437 42.891 100.109C43.0676 100.234 43.2783 100.302 43.4947 100.304C43.711 100.305 43.9226 100.241 44.101 100.118C49.1597 97.1643 54.2264 94.2221 59.3011 91.2921C68.2044 86.1241 77.1104 80.9613 86.0191 75.8033C86.3366 75.6601 86.6019 75.4218 86.7786 75.1217C86.9554 74.8216 87.0348 74.4742 87.006 74.1271C86.988 58.3091 86.99 42.4936 87.012 26.6803ZM79.7851 72.3502C70.8891 77.4735 62.0067 82.6205 53.138 87.7911C50.155 89.5221 47.1641 91.2383 44.1911 92.9913C43.981 93.1364 43.731 93.2128 43.4756 93.2101C43.2203 93.2074 42.9721 93.1257 42.7651 92.9762C30.9564 86.1095 19.1381 79.2583 7.31011 72.423C6.92325 72.2437 6.60167 71.9484 6.39007 71.5782C6.17846 71.2081 6.08727 70.7814 6.12908 70.357C6.16508 57.115 6.16508 43.8724 6.12908 30.629C6.07981 30.1398 6.18564 29.6475 6.43169 29.2218C6.67775 28.7961 7.05154 28.4585 7.50005 28.257C14.7261 24.129 21.908 19.9232 29.106 15.7462C33.652 13.1069 38.197 10.4673 42.741 7.82726C42.9603 7.66909 43.2227 7.58142 43.493 7.57678C43.7633 7.57213 44.0286 7.65035 44.2531 7.8009C56.1511 14.7342 68.0584 21.6493 79.975 28.546C80.2418 28.6714 80.4635 28.8761 80.6099 29.132C80.7563 29.3878 80.8202 29.6827 80.793 29.9762C80.773 36.7892 80.782 43.6022 80.782 50.4142C80.782 57.1452 80.768 63.876 80.798 70.607C80.8303 70.9667 80.7502 71.3276 80.5688 71.6398C80.3873 71.9519 80.1135 72.2002 79.7851 72.3502Z" fill="#C0C0C0"/>
<path opacity="0.5" d="M120.3 71.9172C119.15 73.4027 117.561 74.4877 115.759 75.0173C110.683 76.4703 104.391 74.7303 102.066 67.7903C100.553 63.5533 100.528 58.9271 101.995 54.674C102.814 52.2073 104.449 50.093 106.63 48.6794C108.811 47.2658 111.409 46.6373 113.995 46.8972C116.81 47.0892 119.395 47.797 121.419 49.884C122.915 51.5023 123.873 53.5443 124.162 55.7292C124.226 56.1002 124.276 56.418 123.718 56.467C122.139 56.6057 120.563 56.7724 118.988 56.967C118.369 57.042 118.023 56.8894 117.918 56.2214C117.792 55.5471 117.54 54.9021 117.176 54.321C116.795 53.6693 116.259 53.1215 115.615 52.7263C114.972 52.3311 114.241 52.1009 113.487 52.0554C112.734 52.0099 111.98 52.1505 111.294 52.4656C110.608 52.7806 110.01 53.2599 109.553 53.8611C108.366 55.6177 107.736 57.692 107.747 59.8122C107.549 62.0266 107.828 64.2578 108.565 66.3552C109.353 68.4622 110.671 69.9681 113.092 70.2131C114.291 70.3277 115.487 69.9654 116.42 69.2048C117.354 68.4442 117.951 67.3464 118.081 66.1491C118.129 65.5841 118.019 65.2994 117.349 65.3254C116.064 65.3764 114.775 65.3254 113.488 65.3464C113.032 65.3534 112.849 65.1961 112.855 64.7331C112.873 63.5021 112.87 62.2713 112.855 61.0403C112.85 60.6053 112.98 60.3952 113.461 60.3972C116.884 60.4112 120.307 60.4112 123.731 60.3972C124.148 60.3972 124.313 60.5464 124.313 60.9724C124.304 65.4311 124.304 69.89 124.313 74.3493C124.313 74.7953 124.159 74.9672 123.699 75.0002C121.439 75.1592 121.44 75.1702 120.717 73.0622C120.6 72.7182 120.467 72.3692 120.3 71.9172Z" fill="#585858"/>
<path opacity="0.5" d="M124.493 37.2092C124.493 32.9412 124.513 28.6744 124.474 24.4094C124.467 23.6294 124.721 23.442 125.45 23.467C126.927 23.517 128.408 23.514 129.885 23.467C130.554 23.446 130.721 23.6891 130.715 24.3161C130.69 27.3531 130.727 30.389 130.688 33.425C130.679 34.157 130.902 34.353 131.618 34.339C133.973 34.296 136.328 34.303 138.683 34.339C139.308 34.348 139.468 34.1392 139.463 33.5392C139.436 30.4482 139.463 27.3563 139.438 24.2663C139.433 23.6663 139.598 23.453 140.221 23.466C141.781 23.505 143.343 23.499 144.904 23.466C145.472 23.455 145.667 23.6381 145.666 24.2131C145.653 32.8571 145.653 41.5015 145.666 50.1462C145.666 50.7072 145.504 50.916 144.92 50.902C143.387 50.868 141.852 50.86 140.32 50.902C139.652 50.922 139.427 50.7451 139.435 50.0451C139.471 46.8451 139.427 43.645 139.468 40.445C139.478 39.709 139.259 39.5243 138.545 39.5373C136.191 39.5803 133.835 39.5733 131.481 39.5373C130.858 39.5293 130.689 39.7371 130.693 40.3371C130.717 43.5641 130.687 46.7932 130.718 50.0202C130.724 50.6972 130.531 50.9201 129.841 50.9011C128.364 50.8531 126.882 50.8361 125.406 50.9011C124.599 50.9391 124.475 50.6192 124.479 49.9162C124.506 45.6892 124.493 41.4492 124.493 37.2092Z" fill="#585858"/>
<path opacity="0.5" d="M208.032 61.2337C207.702 59.0829 206.668 57.1023 205.093 55.6009C202.808 53.4319 197.574 52.7068 195.225 56.2918C195.157 56.3918 195.09 56.5419 194.831 56.4549C194.813 56.116 194.816 55.7764 194.838 55.4378C194.91 54.8088 194.644 54.638 194.038 54.66C192.699 54.699 191.356 54.686 190.015 54.66C189.553 54.653 189.384 54.8177 189.395 55.2767C189.418 56.2057 189.4 57.1358 189.4 58.0648C189.4 65.7488 189.396 73.4316 189.387 81.1136C189.387 81.8066 189.533 82.0919 190.287 82.0599C191.68 82.0029 193.077 82.0139 194.472 82.0599C195.132 82.0789 195.321 81.837 195.311 81.202C195.28 79.202 195.3 77.2107 195.3 75.2147V73.5398C195.65 73.5038 195.729 73.715 195.848 73.845C196.399 74.4389 197.069 74.9091 197.815 75.2244C198.561 75.5397 199.365 75.6926 200.175 75.6736C201.703 75.6372 203.186 75.1484 204.436 74.2689C205.686 73.3893 206.647 72.1587 207.197 70.7327C208.381 67.7122 208.671 64.4145 208.032 61.2337ZM201.108 68.7039C200.578 70.2519 199.756 70.9398 198.438 70.9368C197.77 70.9683 197.115 70.7539 196.595 70.3343C196.075 69.9147 195.726 69.319 195.616 68.66C194.903 65.9792 194.906 63.1583 195.623 60.4788C195.735 59.8047 196.098 59.1981 196.639 58.7811C197.18 58.3641 197.86 58.1676 198.54 58.2317C199.976 58.2577 200.817 58.9897 201.276 60.5887C201.568 61.8669 201.677 63.1797 201.602 64.4886C201.685 65.9103 201.518 67.3361 201.108 68.7V68.7039Z" fill="#585858"/>
<path opacity="0.5" d="M190.428 33.3607C187.911 29.4357 181.985 28.5797 179.392 32.7357V31.9457C179.392 29.4007 179.375 26.8559 179.405 24.3119C179.412 23.6889 179.26 23.4387 178.586 23.4647C177.245 23.5157 175.902 23.4779 174.56 23.4799C173.487 23.4799 173.485 23.4798 173.485 24.5428V48.9999C173.485 51.0199 173.485 50.9999 175.534 50.9999C175.775 51.0378 176.022 50.9891 176.232 50.8627C176.441 50.7362 176.598 50.5403 176.677 50.309C176.888 49.778 177.199 49.288 177.439 48.766C177.639 48.338 177.794 48.3118 178.107 48.6918C178.843 49.6311 179.801 50.3736 180.894 50.8524C181.987 51.3313 183.181 51.5317 184.371 51.4359C185.649 51.4287 186.901 51.0776 187.996 50.4193C189.091 49.761 189.989 48.8197 190.595 47.6947C191.576 45.9458 192.099 43.978 192.117 41.973C192.242 38.982 192.133 36.0177 190.428 33.3607ZM185.466 45.0609C185.343 45.6289 185.036 46.1403 184.592 46.516C184.149 46.8917 183.593 47.1109 183.013 47.139C182.392 47.1912 181.772 47.0319 181.254 46.6869C180.735 46.3419 180.349 45.8312 180.157 45.2386C179.603 43.7955 179.339 42.2572 179.38 40.7118C179.356 39.3304 179.537 37.9532 179.917 36.6249C180.445 34.9659 181.391 34.2419 182.859 34.3099C183.353 34.346 183.828 34.5168 184.232 34.8041C184.636 35.0913 184.953 35.4838 185.149 35.9388C185.734 37.1173 186.044 38.4132 186.055 39.7289C186.225 41.5278 186.024 43.3424 185.466 45.0609Z" fill="#585858"/>
<path opacity="0.5" d="M162.648 63.1768C162.207 57.3828 158.465 53.8441 152.523 53.8321C151.027 53.7402 149.532 54.0192 148.17 54.6441C146.808 55.2689 145.622 56.2204 144.716 57.4141C143.426 59.1998 142.71 61.3357 142.662 63.5381C142.481 66.5501 142.862 69.4539 144.742 71.9439C146.951 74.8709 150.069 75.6642 153.551 75.5122C155.511 75.4822 157.409 74.8168 158.959 73.6162C160.508 72.4157 161.627 70.7445 162.146 68.854C162.663 67.0091 162.834 65.0839 162.648 63.1768ZM155.637 68.5581C155.507 69.0608 155.305 69.5416 155.037 69.9859C154.816 70.4173 154.48 70.779 154.066 71.0308C153.651 71.2826 153.176 71.4147 152.691 71.4121C152.206 71.4095 151.732 71.2723 151.32 71.0161C150.909 70.76 150.576 70.3948 150.36 69.961C149.708 68.7545 149.351 67.4103 149.321 66.0391C149.284 65.5501 149.315 65.055 149.315 64.563C149.185 62.8946 149.47 61.22 150.146 59.689C150.393 59.0701 150.861 58.5658 151.461 58.2749C152.06 57.9841 152.746 57.928 153.385 58.1172C153.751 58.2323 154.09 58.4215 154.38 58.6734C154.67 58.9253 154.905 59.2343 155.07 59.5811C155.583 60.5488 155.89 61.6127 155.97 62.7051C156.224 64.6598 156.111 66.6449 155.637 68.5581Z" fill="#585858"/>
<path opacity="0.5" d="M178.25 72.2002C177.476 73.343 176.432 74.276 175.209 74.916C174.117 75.3676 172.935 75.5575 171.756 75.4707C170.578 75.3839 169.436 75.0227 168.422 74.416C167.852 74.032 167.375 73.5246 167.028 72.9311C166.68 72.3377 166.471 71.6732 166.416 70.9878C166.217 69.8282 166.13 68.6523 166.158 67.4761C166.14 63.5351 166.171 59.5938 166.134 55.6538C166.126 54.8628 166.347 54.6148 167.146 54.6538C168.54 54.7198 169.94 54.7058 171.336 54.6538C171.999 54.6308 172.165 54.8611 172.161 55.4941C172.137 59.3251 172.155 63.1558 172.148 66.9868C172.147 67.5609 172.207 68.1334 172.327 68.6948C172.361 69.0398 172.476 69.3723 172.663 69.6641C172.851 69.9559 173.104 70.1988 173.404 70.3735C173.703 70.5482 174.04 70.6496 174.386 70.6689C174.732 70.6883 175.078 70.6251 175.395 70.4849C176.024 70.2808 176.58 69.8979 176.994 69.3828C177.409 68.8677 177.664 68.2429 177.729 67.585C177.847 66.9388 177.901 66.2827 177.89 65.626C177.905 62.26 177.915 58.8939 177.883 55.5259C177.876 54.8389 178.083 54.6328 178.762 54.6558C180.185 54.7048 181.611 54.6881 183.035 54.6621C183.541 54.6531 183.695 54.8371 183.694 55.3271C183.683 61.6491 183.683 67.9707 183.694 74.292C183.694 74.827 183.519 75.0159 182.985 75.0059C181.644 74.9812 180.302 74.9812 178.959 75.0059C178.438 75.0149 178.207 74.8521 178.239 74.3061C178.278 73.6841 178.25 73.0612 178.25 72.2002Z" fill="#585858"/>
<path opacity="0.5" d="M163.121 47.7921C162.655 48.5144 162.117 49.1876 161.515 49.8019C159.407 51.6459 156.982 51.7211 154.497 50.8951C152.248 50.1471 151.417 48.278 151.108 46.086C150.948 44.3425 150.905 42.5902 150.978 40.8409C150.952 37.6939 150.989 34.547 150.956 31.4C150.949 30.713 151.162 30.5 151.841 30.526C153.154 30.574 154.472 30.578 155.785 30.526C156.495 30.498 156.725 30.6942 156.718 31.4352C156.682 35.3212 156.708 39.2069 156.701 43.0919C156.695 43.6118 156.755 44.1302 156.88 44.6349C156.925 45.0742 157.095 45.492 157.368 45.839C157.641 46.1859 158.007 46.4482 158.424 46.5953C158.909 46.7521 159.427 46.777 159.925 46.6681C160.423 46.5591 160.883 46.3202 161.258 45.9752C161.758 45.5063 162.147 44.9317 162.396 44.2936C162.646 43.6554 162.751 42.9698 162.702 42.2862C162.689 38.7552 162.702 35.2249 162.702 31.6949C162.702 30.5419 162.702 30.5411 163.859 30.5411C165.202 30.5411 166.544 30.5583 167.886 30.5343C168.381 30.5253 168.554 30.689 168.553 31.192C168.54 37.5413 168.54 43.8899 168.553 50.2379C168.553 50.7299 168.408 50.9139 167.899 50.9039C166.53 50.8759 165.159 50.8709 163.791 50.9039C163.222 50.9179 163.091 50.6829 163.116 50.1759C163.144 49.4539 163.121 48.7291 163.121 47.7921Z" fill="#585858"/>
<path opacity="0.5" d="M134.995 57.2439C135.185 56.8899 135.37 56.5339 135.565 56.1819C135.986 55.4056 136.626 54.7707 137.407 54.3577C138.187 53.9447 139.073 53.7718 139.951 53.8606C140.396 53.8706 140.591 54.0349 140.588 54.4949C140.576 56.1089 140.573 57.7227 140.598 59.3367C140.605 59.8057 140.412 59.9587 139.979 59.9837C139.597 60.0058 139.217 60.0616 138.845 60.1507C137.872 60.3614 136.997 60.892 136.361 61.6575C135.724 62.423 135.362 63.3796 135.332 64.3748C135.087 67.2148 135.256 70.0606 135.221 72.9036C135.195 75.0036 135.216 75.0037 133.105 75.0037C132.092 75.0037 131.079 74.9855 130.066 75.0096C129.575 75.0205 129.391 74.846 129.392 74.346C129.403 68 129.403 61.6539 129.392 55.3079C129.392 54.7869 129.604 54.6617 130.079 54.6687C131.448 54.6907 132.817 54.6907 134.186 54.6687C134.673 54.6607 134.886 54.8017 134.856 55.3167C134.82 55.9427 134.847 56.573 134.847 57.201L134.995 57.2439Z" fill="#585858"/>
<path opacity="0.5" d="M20.777 48.1619C20.805 44.6919 20.7901 41.2208 20.7901 37.7488C20.7901 34.3058 20.805 30.8617 20.777 27.4177C20.77 26.7467 20.963 26.5087 21.652 26.5247C23.375 26.5657 25.101 26.5577 26.823 26.5247C27.423 26.5137 27.6341 26.71 27.6331 27.325C27.6158 34.3216 27.6158 41.318 27.6331 48.3147C27.6331 48.9227 27.45 49.1148 26.833 49.1048C25.11 49.0668 23.384 49.0508 21.663 49.1048C20.894 49.1378 20.77 48.8399 20.777 48.1619Z" fill="#FEFEFE"/>
<path opacity="0.5" d="M27.6379 73.4704C27.6439 74.1704 27.473 74.4333 26.726 74.4103C25.026 74.3563 23.326 74.37 21.631 74.403C21.012 74.415 20.774 74.2601 20.775 73.5871C20.7977 66.6077 20.7994 59.6294 20.78 52.652C20.78 52.065 20.922 51.8221 21.557 51.8351C23.309 51.8731 25.0639 51.8781 26.8149 51.8351C27.5009 51.8191 27.6361 52.0953 27.6331 52.7043C27.6131 56.1793 27.6231 59.6541 27.6231 63.1281C27.6231 66.5751 27.6059 70.0244 27.6379 73.4704Z" fill="#FEFEFE"/>
<path opacity="0.5" d="M30.3 48.1851C30.326 41.2918 30.326 34.398 30.3 27.504C30.3 26.764 30.486 26.4971 31.256 26.5201C32.924 26.5731 34.597 26.5651 36.266 26.5201C36.95 26.5041 37.1591 26.7332 37.1541 27.4092C37.1311 32.0322 37.162 36.6569 37.124 41.2789C37.118 42.1159 37.361 42.3431 38.189 42.3331C41.695 42.2891 45.2007 42.2891 48.7061 42.3331C49.4811 42.3411 49.7341 42.1469 49.7271 41.3409C49.6901 36.7409 49.727 32.1483 49.693 27.5533C49.688 26.7903 49.857 26.4872 50.682 26.5172C52.382 26.5772 54.082 26.5509 55.776 26.5259C56.335 26.5179 56.547 26.7009 56.545 27.2769C56.5317 34.3069 56.5334 41.3379 56.55 48.3692C56.55 49.0542 56.2299 49.0982 55.6949 49.0972C51.6149 49.0832 47.533 49.0899 43.452 49.0899C39.371 49.0899 35.2921 49.072 31.2111 49.106C30.4821 49.115 30.3 48.9001 30.3 48.1851Z" fill="#FEFEFE"/>
<path opacity="0.5" d="M56.559 52.7452C56.5323 59.6679 56.5323 66.5906 56.559 73.5133C56.559 74.1783 56.393 74.4283 55.691 74.4073C54.021 74.3613 52.347 74.3613 50.678 74.4073C49.949 74.4283 49.694 74.24 49.7 73.461C49.738 68.861 49.718 64.267 49.718 59.67C49.718 58.622 49.718 58.6202 48.636 58.6202C45.158 58.6202 41.678 58.6462 38.2 58.6002C37.377 58.5892 37.1251 58.8002 37.1331 59.6422C37.1731 64.2422 37.138 68.8362 37.166 73.4332C37.166 74.1602 36.994 74.4333 36.212 74.4103C34.488 74.3523 32.7601 74.377 31.0341 74.4C30.5111 74.408 30.3139 74.2522 30.3149 73.7062C30.3276 66.6462 30.3276 59.586 30.3149 52.526C30.3149 51.873 30.644 51.8409 31.134 51.8429C35.244 51.8509 39.3531 51.8529 43.4611 51.8482C47.5151 51.8482 51.571 51.8631 55.625 51.8331C56.323 51.8281 56.56 52.0092 56.559 52.7452Z" fill="#FEFEFE"/>
<path opacity="0.5" d="M66.0749 52.5393C66.0643 59.5973 66.0643 66.6564 66.0749 73.717C66.0749 74.272 65.85 74.4071 65.338 74.4001C63.559 74.3791 61.7779 74.3651 59.9969 74.4001C59.3489 74.4151 59.231 74.1563 59.234 73.5793C59.255 70.0793 59.246 66.579 59.246 63.072C59.246 59.653 59.2639 56.2333 59.2309 52.8123C59.2219 52.0903 59.382 51.7984 60.172 51.8254C61.894 51.8824 63.622 51.8582 65.348 51.8352C65.871 51.8332 66.0769 52.0003 66.0749 52.5393Z" fill="#FEFEFE"/>
<path opacity="0.5" d="M66.078 48.3113C66.078 48.9033 65.916 49.1202 65.289 49.1052C63.538 49.0642 61.789 49.0592 60.037 49.1052C59.343 49.1242 59.2311 48.8473 59.2371 48.2453C59.2581 44.7453 59.2491 41.2452 59.2491 37.7512C59.2491 34.3082 59.263 30.8641 59.235 27.4201C59.229 26.7591 59.4 26.5042 60.101 26.5202C61.823 26.5632 63.548 26.5552 65.27 26.5202C65.87 26.5102 66.0831 26.7042 66.0811 27.3142C66.0631 34.3148 66.062 41.3139 66.078 48.3113Z" fill="#FEFEFE"/>
<path opacity="0.5" d="M56.5551 48.3712C56.5551 49.0562 56.235 49.1002 55.7 49.0992C51.62 49.0852 47.538 49.0919 43.457 49.0919C39.376 49.0919 35.297 49.074 31.216 49.108C30.482 49.115 30.301 48.9001 30.303 48.1851C30.329 41.2918 30.329 34.398 30.303 27.504C30.303 26.764 30.489 26.4971 31.259 26.5201C32.927 26.5731 34.6001 26.5651 36.2691 26.5201C36.9531 26.5041 37.162 26.7332 37.157 27.4092C37.134 32.0322 37.165 36.6569 37.127 41.2789C37.121 42.1159 37.364 42.3431 38.192 42.3331C41.698 42.2891 45.2037 42.2891 48.709 42.3331C49.484 42.3411 49.737 42.1469 49.73 41.3409C49.693 36.7409 49.7301 32.1483 49.6961 27.5533C49.6911 26.7903 49.8601 26.4872 50.6851 26.5172C52.3851 26.5772 54.0851 26.5509 55.7791 26.5259C56.3381 26.5179 56.55 26.7009 56.548 27.2769C56.536 34.3083 56.5384 41.3398 56.5551 48.3712Z" fill="#585858"/>
<path opacity="0.5" d="M56.5551 73.5132C56.5551 74.1782 56.389 74.4282 55.687 74.4072C54.017 74.3612 52.343 74.3612 50.674 74.4072C49.945 74.4282 49.69 74.2399 49.696 73.4609C49.734 68.8609 49.714 64.2669 49.714 59.6699C49.714 58.6219 49.714 58.6201 48.632 58.6201C45.154 58.6201 41.674 58.6461 38.196 58.6001C37.373 58.5891 37.121 58.8001 37.129 59.6421C37.169 64.2421 37.134 68.8361 37.162 73.4331C37.162 74.1601 36.99 74.4332 36.208 74.4102C34.484 74.3522 32.756 74.3769 31.03 74.3999C30.507 74.4079 30.31 74.2521 30.311 73.7061C30.3237 66.6461 30.3237 59.5859 30.311 52.5259C30.311 51.8729 30.64 51.8408 31.13 51.8428C35.24 51.8508 39.349 51.8528 43.457 51.8481C47.511 51.8481 51.567 51.863 55.621 51.833C56.321 51.833 56.563 52.0091 56.562 52.7451C56.5327 59.6678 56.5304 66.5905 56.5551 73.5132Z" fill="#585858"/>
<path opacity="0.5" d="M27.6331 48.3147C27.6331 48.9227 27.45 49.1148 26.833 49.1048C25.11 49.0668 23.384 49.0508 21.663 49.1048C20.892 49.1328 20.763 48.835 20.775 48.157C20.803 44.687 20.788 41.2159 20.788 37.7439C20.788 34.3009 20.803 30.8569 20.775 27.4129C20.768 26.7419 20.961 26.5038 21.65 26.5198C23.373 26.5608 25.099 26.5528 26.821 26.5198C27.421 26.5088 27.632 26.7046 27.631 27.3196C27.615 34.3196 27.6157 41.318 27.6331 48.3147Z" fill="#585858"/>
<path opacity="0.5" d="M66.078 48.3113C66.078 48.9033 65.916 49.1202 65.289 49.1052C63.538 49.0642 61.789 49.0592 60.037 49.1052C59.343 49.1242 59.2311 48.8473 59.2371 48.2453C59.2581 44.7453 59.2491 41.2452 59.2491 37.7512C59.2491 34.3082 59.263 30.8641 59.235 27.4201C59.229 26.7591 59.4 26.5042 60.101 26.5202C61.823 26.5632 63.548 26.5552 65.27 26.5202C65.87 26.5102 66.0831 26.7042 66.0811 27.3142C66.0631 34.3148 66.062 41.3139 66.078 48.3113Z" fill="#585858"/>
<path opacity="0.5" d="M27.6379 73.4704C27.6439 74.1704 27.473 74.4333 26.726 74.4103C25.026 74.3563 23.326 74.37 21.631 74.403C21.012 74.415 20.774 74.2601 20.775 73.5871C20.7977 66.6077 20.7994 59.6294 20.78 52.652C20.78 52.065 20.922 51.8221 21.557 51.8351C23.309 51.8731 25.0639 51.8781 26.8149 51.8351C27.5009 51.8191 27.6361 52.0953 27.6331 52.7043C27.6131 56.1793 27.6231 59.6541 27.6231 63.1281C27.6231 66.5751 27.6059 70.0244 27.6379 73.4704Z" fill="#585858"/>
<path opacity="0.5" d="M66.0749 73.717C66.0749 74.272 65.85 74.4071 65.338 74.4001C63.559 74.3791 61.7779 74.3651 59.9969 74.4001C59.3489 74.4151 59.231 74.1563 59.234 73.5793C59.255 70.0793 59.246 66.579 59.246 63.072C59.246 59.653 59.2639 56.2333 59.2309 52.8123C59.2219 52.0903 59.382 51.7984 60.172 51.8254C61.894 51.8824 63.622 51.8582 65.348 51.8352C65.871 51.8282 66.0769 51.9934 66.0749 52.5354C66.0636 59.5961 66.0636 66.6564 66.0749 73.717Z" fill="#585858"/>
</g>
</svg>
