<svg width="235" height="64" viewBox="0 0 235 64" fill="none" xmlns="http://www.w3.org/2000/svg">
<g opacity="0.5">
<path opacity="0.5" d="M220.066 45.0803C220.535 48.5483 218.804 50.8373 215.321 51.2453C214.113 51.3865 212.892 51.3761 211.686 51.2151C210.979 51.1268 210.268 51.0838 209.556 51.0862C159.981 51.0862 110.404 51.1014 60.825 51.1321C59.7951 51.158 58.7727 50.9505 57.8344 50.5251C56.8961 50.0998 56.0662 49.4676 55.407 48.676C53.171 46.183 50.919 43.689 48.652 41.218C46.022 38.347 43.363 35.518 40.752 32.635C40.5582 32.4069 40.3137 32.2274 40.0382 32.1106C39.7627 31.9937 39.4637 31.9429 39.165 31.9621C36.558 31.9931 33.951 31.9703 31.344 31.9773C31.0253 31.9578 30.7055 31.9809 30.393 32.0461C28.9975 32.4153 27.5162 32.2759 26.214 31.653C22.0507 29.9119 18.6858 26.6816 16.776 22.593C16.1995 21.4325 15.9515 20.1368 16.059 18.8454C16.0934 18.2544 16.2771 17.6816 16.5929 17.1809C16.9087 16.6802 17.3464 16.2677 17.865 15.9822C18.8387 15.4478 19.9216 15.1427 21.031 15.0901C21.597 15.0451 22.171 15.052 22.746 15.052H174.36C174.788 15.0771 175.218 15.0724 175.645 15.0373C176.376 14.9635 177.114 15.0632 177.8 15.3283C178.485 15.5935 179.098 16.0165 179.589 16.5632C179.982 16.9262 180.36 17.3043 180.715 17.7043C185.347 22.9483 190.168 28.0183 194.882 33.1863C195.112 33.4516 195.4 33.66 195.724 33.7951C196.048 33.9303 196.399 33.9884 196.749 33.9651C200.889 33.9351 205.03 34.002 209.163 33.927C211.257 33.8488 213.296 34.6013 214.838 36.0202C217.64 38.2909 219.502 41.5183 220.066 45.0803Z" fill="#4F4F4F"/>
<path opacity="0.5" d="M234.762 62.2469V1.98767C234.762 0.370672 234.853 0.634644 233.38 0.634644C156.294 0.627978 79.2057 0.627978 2.11502 0.634644C0.596016 0.634644 0.76205 0.416109 0.76205 2.01111V62.1556C0.76205 63.7956 0.562005 63.5687 2.191 63.5687H233.456C234.861 63.5687 234.762 63.7999 234.762 62.2469ZM227.562 57.9618C190.953 57.9698 154.339 57.9728 117.721 57.9701C81.173 57.9701 44.6273 57.9671 8.08401 57.9618C6.15001 57.9618 6.34603 58.1621 6.34603 56.2621C6.3387 40.1081 6.3387 23.9484 6.34603 7.78308C6.34603 6.06808 6.21103 6.21179 7.88803 6.21179H227.588C229.243 6.21179 229.115 6.05273 229.115 7.79773V56.391C229.111 58.091 229.254 57.9618 227.562 57.9618Z" fill="#727272"/>
<path opacity="0.5" d="M215.321 51.2453C214.113 51.3865 212.892 51.3761 211.686 51.2151C210.979 51.1268 210.268 51.0838 209.556 51.0862C159.981 51.0862 110.404 51.1014 60.825 51.1321C59.7951 51.158 58.7727 50.9505 57.8344 50.5251C56.8961 50.0998 56.0662 49.4676 55.407 48.676C53.171 46.183 50.919 43.689 48.652 41.218C46.022 38.347 43.363 35.518 40.752 32.635C40.5582 32.4069 40.3137 32.2274 40.0382 32.1106C39.7627 31.9937 39.4637 31.9429 39.165 31.9621C36.558 31.9931 33.951 31.9703 31.344 31.9773C31.0253 31.9578 30.7055 31.9809 30.393 32.0461C28.9975 32.4153 27.5162 32.2759 26.214 31.653C22.0507 29.9119 18.6858 26.6816 16.776 22.593C16.1995 21.4325 15.9515 20.1368 16.059 18.8454C16.0934 18.2544 16.2771 17.6816 16.5929 17.1809C16.9087 16.6802 17.3464 16.2677 17.865 15.9822C18.8387 15.4478 19.9216 15.1427 21.031 15.0901C21.597 15.0451 22.171 15.052 22.746 15.052H174.36C174.788 15.0771 175.218 15.0724 175.645 15.0373C176.376 14.9635 177.114 15.0632 177.8 15.3283C178.485 15.5935 179.098 16.0165 179.589 16.5632C179.982 16.9262 180.36 17.3043 180.715 17.7043C185.347 22.9483 190.168 28.0183 194.882 33.1863C195.112 33.4516 195.4 33.66 195.724 33.7951C196.048 33.9303 196.399 33.9884 196.749 33.9651C200.889 33.9351 205.03 34.002 209.163 33.927C211.257 33.8488 213.296 34.6013 214.838 36.0202C217.64 38.2909 219.502 41.5183 220.066 45.0803C220.535 48.5483 218.8 50.8373 215.321 51.2453Z" fill="#A0A0A0"/>
<path opacity="0.5" d="M215.321 51.2453C214.113 51.3865 212.892 51.3761 211.686 51.2151C210.979 51.1268 210.268 51.0838 209.556 51.0862C159.981 51.0862 110.404 51.1014 60.825 51.1321C59.7951 51.158 58.7727 50.9505 57.8344 50.5251C56.8961 50.0998 56.0662 49.4676 55.407 48.676C53.171 46.183 50.919 43.689 48.652 41.218C46.022 38.347 43.363 35.518 40.752 32.635C40.5582 32.4069 40.3137 32.2274 40.0382 32.1106C39.7627 31.9937 39.4637 31.9429 39.165 31.9621C36.558 31.9931 33.951 31.9703 31.344 31.9773C31.0253 31.9578 30.7055 31.9809 30.393 32.0461C28.9975 32.4153 27.5162 32.2759 26.214 31.653C22.0507 29.9119 18.6858 26.6816 16.776 22.593C16.1995 21.4325 15.9515 20.1368 16.059 18.8454C16.0934 18.2544 16.2771 17.6816 16.5929 17.1809C16.9087 16.6802 17.3464 16.2677 17.865 15.9822C18.8387 15.4478 19.9216 15.1427 21.031 15.0901C21.597 15.0451 22.171 15.052 22.746 15.052H174.36C174.788 15.0771 175.218 15.0724 175.645 15.0373C176.376 14.9635 177.114 15.0632 177.8 15.3283C178.485 15.5935 179.098 16.0165 179.589 16.5632C179.982 16.9262 180.36 17.3043 180.715 17.7043C185.347 22.9483 190.168 28.0183 194.882 33.1863C195.112 33.4516 195.4 33.66 195.724 33.7951C196.048 33.9303 196.399 33.9884 196.749 33.9651C200.889 33.9351 205.03 34.002 209.163 33.927C211.257 33.8488 213.296 34.6013 214.838 36.0202C217.64 38.2909 219.502 41.5183 220.066 45.0803C220.535 48.5483 218.8 50.8373 215.321 51.2453Z" fill="#4F4F4F"/>
<path opacity="0.5" d="M181.108 20.322C181.424 20.822 181.972 21.1562 182.2 21.7272C181.839 22.0022 181.458 21.8471 181.121 21.9391C180.935 21.9891 180.793 22.086 180.805 22.301C180.805 22.3457 180.814 22.3902 180.832 22.4313C180.85 22.4724 180.876 22.5095 180.908 22.5402C180.941 22.5709 180.979 22.5947 181.021 22.61C181.064 22.6254 181.108 22.6317 181.153 22.6291C181.653 22.6481 182.153 22.658 182.653 22.653C182.9 22.6127 183.153 22.6712 183.357 22.8161C183.561 22.961 183.7 23.1805 183.743 23.4269C183.419 23.7059 183.05 23.5842 182.71 23.6022C182.283 23.6242 181.853 23.6024 181.426 23.6174C181.142 23.6274 180.797 23.625 180.811 24.03C180.825 24.455 181.195 24.378 181.461 24.382C182.353 24.395 183.246 24.409 184.137 24.382C184.402 24.3478 184.671 24.4045 184.9 24.5427C185.129 24.6808 185.305 24.8926 185.398 25.1433C185.275 25.4833 184.986 25.3834 184.76 25.3864C183.832 25.3994 182.904 25.3862 181.977 25.3942C181.727 25.3942 181.477 25.3942 181.228 25.4162C180.999 25.4342 180.802 25.516 180.822 25.799C180.837 26.014 181 26.0923 181.193 26.0993C181.442 26.1133 181.693 26.1174 181.941 26.1174C183.19 26.1174 184.441 26.1344 185.688 26.1174C185.971 26.0782 186.259 26.1437 186.498 26.3019C186.736 26.4601 186.908 26.6999 186.982 26.9763C186.655 27.1433 186.282 27.1979 185.921 27.132C184.6 27.143 183.28 27.1324 181.96 27.1384C181.711 27.1384 181.46 27.1384 181.212 27.1574C181.027 27.1694 180.852 27.228 180.827 27.447C180.794 27.727 180.981 27.8254 181.213 27.8474C181.497 27.8674 181.783 27.8693 182.069 27.8693C183.746 27.8693 185.423 27.8692 187.1 27.8762C187.5 27.8762 187.968 27.776 188.228 28.342C187.957 28.5081 187.633 28.5673 187.321 28.508C185.501 28.515 183.681 28.4961 181.862 28.5251C181.496 28.5311 180.842 28.279 180.852 28.925C180.86 29.469 181.469 29.2623 181.818 29.2653C184.029 29.2863 186.242 29.2801 188.454 29.2741C189.049 29.2741 189.595 29.3231 189.777 30.0851C189.411 30.2256 189.015 30.269 188.627 30.2111C186.344 30.2201 184.06 30.2113 181.777 30.2263C181.429 30.2263 180.851 30.0262 180.83 30.6052C180.808 31.2162 181.398 31.0051 181.737 31.0051C184.484 31.0241 187.231 31.0311 189.979 31.0051C190.306 30.9577 190.64 31.0269 190.922 31.2004C191.203 31.3738 191.415 31.6407 191.52 31.9543C191.146 32.0857 190.745 32.1272 190.352 32.0754C187.605 32.0834 184.857 32.0754 182.11 32.0754C181.825 32.0754 181.539 32.0751 181.254 32.0891C181.028 32.0991 180.809 32.1611 180.826 32.4431C180.843 32.7251 181.081 32.751 181.298 32.76C181.583 32.772 181.869 32.7722 182.154 32.7722C185.116 32.7722 188.079 32.8333 191.038 32.7453C191.593 32.6839 192.152 32.798 192.639 33.072C193.125 33.346 193.512 33.7659 193.747 34.2722C193.403 34.5262 193.003 34.4181 192.639 34.4191C189.178 34.4281 185.717 34.419 182.256 34.425C181.935 34.425 181.614 34.4314 181.294 34.4504C181.109 34.4624 180.938 34.5362 180.922 34.7502C180.9 35.0362 181.111 35.1101 181.333 35.1271C181.653 35.1501 181.974 35.153 182.295 35.153C185.935 35.153 189.575 35.2072 193.213 35.1232C193.723 35.0685 194.237 35.1543 194.702 35.3713C195.166 35.5883 195.562 35.9282 195.847 36.3542C196.065 36.5668 196.235 36.8231 196.347 37.1061C195.982 37.2392 195.59 37.2775 195.206 37.218C190.817 37.226 186.428 37.2286 182.04 37.2253C181.72 37.2253 181.399 37.2403 181.08 37.2643C181.008 37.2702 180.941 37.3034 180.893 37.3571C180.845 37.4109 180.819 37.4812 180.821 37.5534C180.815 37.5887 180.817 37.6245 180.825 37.6594C180.833 37.6942 180.848 37.7271 180.869 37.756C180.89 37.785 180.917 37.8096 180.947 37.8283C180.978 37.847 181.012 37.8598 181.047 37.8654C181.4 37.9046 181.755 37.9248 182.111 37.9269C186.856 37.9309 191.601 37.9309 196.347 37.9269C196.866 37.9269 197.436 37.8392 197.709 38.5812C197.347 38.7236 196.953 38.7677 196.568 38.7092C191.751 38.7158 186.934 38.7158 182.118 38.7092C181.797 38.7092 181.475 38.7091 181.155 38.7321C181.11 38.7293 181.066 38.7363 181.024 38.7521C180.982 38.768 180.944 38.7927 180.912 38.8244C180.881 38.8561 180.856 38.8938 180.84 38.9357C180.825 38.9776 180.818 39.0224 180.821 39.0671C180.828 39.2791 180.987 39.374 181.179 39.385C181.499 39.4039 181.821 39.4103 182.141 39.4103C187.315 39.4103 192.489 39.419 197.662 39.404C198.387 39.404 199.008 39.492 199.345 40.319C199 40.4886 198.609 40.5416 198.232 40.4694C192.88 40.4768 187.528 40.4768 182.176 40.4694C181.855 40.4694 181.534 40.4694 181.214 40.4904C180.98 40.5064 180.799 40.6183 180.814 40.8903C180.82 40.9805 180.861 41.0646 180.929 41.1247C180.996 41.1848 181.085 41.2158 181.175 41.2111C181.495 41.2321 181.816 41.237 182.137 41.237C187.917 41.237 193.697 41.237 199.478 41.237C200.104 41.237 200.685 41.2602 200.934 42.0422C200.524 42.1889 200.085 42.2347 199.653 42.176C193.837 42.182 188.021 42.182 182.205 42.176C181.884 42.176 181.563 42.1852 181.242 42.1882C180.881 42.1882 180.759 42.435 180.694 42.735C180.823 42.9045 180.894 43.1117 180.896 43.3249C180.897 43.5381 180.83 43.7458 180.703 43.9172C180.726 44.2672 180.803 44.5531 181.258 44.5261C181.542 44.5091 181.828 44.5261 182.114 44.5261C188.894 44.5261 195.674 44.5261 202.455 44.5261C203.015 44.5261 203.627 44.4264 203.875 45.1584C203.731 45.4664 203.449 45.3533 203.224 45.3683C202.904 45.3893 202.582 45.3752 202.261 45.3752H56.022C55.8795 45.3637 55.7364 45.3637 55.594 45.3752C55.224 45.4443 54.8417 45.3968 54.5 45.239C54.1583 45.0811 53.8742 44.8209 53.687 44.4943C53.4711 44.2778 53.3011 44.0197 53.187 43.736C53.555 43.529 53.956 43.655 54.319 43.591C54.513 43.557 54.661 43.4664 54.677 43.2614C54.6853 43.2081 54.6817 43.1535 54.6664 43.1017C54.6512 43.05 54.6246 43.0019 54.5886 42.9616C54.5527 42.9213 54.5082 42.8899 54.4584 42.8688C54.4087 42.8478 54.355 42.8378 54.301 42.84C54.018 42.8009 53.7314 42.7948 53.447 42.822C52.274 43.005 51.591 42.393 50.994 41.322C51.7823 41.2239 52.5774 41.1927 53.371 41.2282C53.727 41.2112 54.085 41.2102 54.437 41.1662C54.5042 41.1444 54.5628 41.1019 54.6047 41.0451C54.6467 40.9883 54.6697 40.9199 54.6707 40.8493C54.6717 40.7787 54.6506 40.7095 54.6103 40.6516C54.57 40.5936 54.5125 40.5497 54.446 40.5261C54.2013 40.4807 53.9528 40.4599 53.704 40.4641C52.704 40.4571 51.704 40.4471 50.704 40.4641C50.4909 40.4806 50.2771 40.4444 50.0814 40.3586C49.8857 40.2728 49.7141 40.1403 49.582 39.9724C49.0094 39.3943 48.475 38.7793 47.982 38.132C48.308 37.795 48.687 37.9172 49.027 37.9142C50.527 37.8992 52.027 37.914 53.527 37.905C53.811 37.905 54.096 37.8841 54.379 37.8571C54.4511 37.8542 54.5194 37.8245 54.5706 37.7736C54.6217 37.7227 54.6518 37.6543 54.655 37.5822C54.6624 37.5379 54.6598 37.4926 54.6473 37.4494C54.6348 37.4062 54.6127 37.3662 54.5828 37.3327C54.5528 37.2992 54.5157 37.2728 54.4742 37.2556C54.4327 37.2383 54.3879 37.2307 54.343 37.2331C54.059 37.2091 53.774 37.2033 53.489 37.2023C51.633 37.2023 49.777 37.175 47.922 37.215C47.6219 37.2483 47.3183 37.1994 47.0439 37.0734C46.7694 36.9475 46.5345 36.7494 46.364 36.5002C46.084 36.1002 45.633 35.8234 45.431 35.3464C45.781 35.0034 46.194 35.1413 46.566 35.1393C48.886 35.1253 51.206 35.1393 53.525 35.1223C53.913 35.1223 54.596 35.3224 54.608 34.8044C54.625 34.0984 53.898 34.4212 53.508 34.4162C50.974 34.3842 48.438 34.3324 45.908 34.4284C45.3545 34.4906 44.7955 34.3764 44.3107 34.1022C43.8258 33.828 43.44 33.4075 43.208 32.9011C43.518 32.6421 43.887 32.7541 44.219 32.7531C47.219 32.7441 50.214 32.7531 53.212 32.7531C53.497 32.7531 53.783 32.7603 54.068 32.7443C54.307 32.7303 54.623 32.77 54.648 32.426C54.673 32.066 54.36 32.0781 54.117 32.0641C53.832 32.0482 53.546 32.0554 53.261 32.0554C49.871 32.0554 46.48 32.0422 43.09 32.0632C42.7641 32.1105 42.4319 32.0403 42.1532 31.8649C41.8745 31.6895 41.6673 31.4204 41.569 31.1061C41.9448 30.9826 42.3435 30.9443 42.736 30.9933C46.305 30.9873 49.873 30.9933 53.442 30.9933C53.762 30.9933 54.083 30.9764 54.402 30.9484C54.4737 30.9405 54.5403 30.907 54.5899 30.8547C54.6395 30.8023 54.6689 30.7343 54.673 30.6623C54.6843 30.6188 54.6867 30.5735 54.68 30.529C54.6732 30.4845 54.6575 30.4417 54.6337 30.4035C54.61 30.3653 54.5787 30.3325 54.5417 30.3068C54.5048 30.2811 54.4631 30.2631 54.419 30.2541C54.1016 30.2106 53.7813 30.1915 53.461 30.197C49.461 30.193 45.464 30.193 41.47 30.197C40.841 30.197 40.256 30.1742 39.963 29.3972C40.3168 29.2346 40.7119 29.1847 41.095 29.2541C45.1616 29.2461 49.23 29.2442 53.3 29.2482C53.585 29.2482 53.871 29.248 54.156 29.237C54.416 29.225 54.685 29.1831 54.663 28.8371C54.647 28.5711 54.426 28.5072 54.201 28.4982C53.881 28.4852 53.559 28.4831 53.238 28.4831C48.8133 28.4831 44.3883 28.4831 39.963 28.4831C39.6094 28.5397 39.2469 28.4971 38.916 28.36C38.799 28.291 38.679 28.1863 38.74 28.0163C38.7606 27.9677 38.7961 27.9269 38.8414 27.8996C38.8866 27.8723 38.9393 27.8595 38.992 27.864C39.277 27.855 39.563 27.8464 39.848 27.8464C44.344 27.8464 48.8403 27.8464 53.337 27.8464C53.658 27.8464 53.98 27.8461 54.3 27.8181C54.3447 27.8205 54.3894 27.8144 54.4316 27.7995C54.4738 27.7846 54.5126 27.7615 54.5458 27.7316C54.5791 27.7017 54.6061 27.6656 54.6254 27.6252C54.6446 27.5848 54.6557 27.5409 54.658 27.4963C54.662 27.4518 54.6565 27.4067 54.6418 27.3644C54.6272 27.3222 54.6037 27.2836 54.5729 27.2512C54.5422 27.2187 54.5049 27.1934 54.4635 27.1765C54.4221 27.1595 54.3777 27.1514 54.333 27.153C54.013 27.128 53.692 27.1203 53.371 27.1203C48.446 27.1203 43.522 27.1111 38.597 27.1271C38.2702 27.186 37.9331 27.129 37.6437 26.966C37.3544 26.803 37.131 26.5441 37.012 26.2341C37.3599 26.0826 37.7452 26.0394 38.118 26.11C43.1846 26.102 48.2513 26.0999 53.318 26.1032C53.639 26.1032 53.96 26.1033 54.28 26.0793C54.3248 26.081 54.3693 26.0732 54.4108 26.0563C54.4523 26.0395 54.4897 26.0141 54.5206 25.9816C54.5514 25.9492 54.575 25.9102 54.5897 25.8679C54.6044 25.8256 54.61 25.7806 54.606 25.736C54.6055 25.6913 54.596 25.6472 54.5781 25.6061C54.5602 25.5651 54.5343 25.5281 54.5019 25.4973C54.4694 25.4664 54.4312 25.4423 54.3893 25.4265C54.3474 25.4107 54.3027 25.4032 54.258 25.405C53.938 25.384 53.617 25.3771 53.296 25.3771C47.9074 25.3771 42.5187 25.3771 37.13 25.3771C36.43 25.3771 35.769 25.3552 35.458 24.4772C35.826 24.3569 36.2167 24.3226 36.6 24.3771C42.2 24.3711 47.8027 24.3693 53.408 24.3713C53.729 24.3713 54.051 24.3641 54.37 24.3371C54.4483 24.3265 54.5206 24.2895 54.5749 24.2321C54.6292 24.1748 54.6622 24.1009 54.6685 24.0222C54.6748 23.9434 54.654 23.8648 54.6096 23.7995C54.5651 23.7342 54.4996 23.6862 54.424 23.6633C54.0713 23.6166 53.7158 23.5937 53.36 23.5944C47.4 23.5904 41.4404 23.5904 35.481 23.5944C34.901 23.5944 34.319 23.6243 33.999 22.9943C33.9766 22.9109 33.9661 22.8244 33.968 22.738C34.3647 22.6165 34.7829 22.5827 35.194 22.6384C41.2606 22.633 47.3273 22.631 53.394 22.633C53.715 22.633 54.037 22.6274 54.356 22.5974C54.4004 22.5962 54.4441 22.5855 54.4841 22.5661C54.5241 22.5467 54.5594 22.5187 54.5878 22.4846C54.6162 22.4504 54.6371 22.4107 54.6488 22.3679C54.6606 22.325 54.663 22.2799 54.656 22.236C54.6541 22.1639 54.6262 22.095 54.5776 22.0417C54.5289 21.9884 54.4627 21.9544 54.391 21.946C54.037 21.9068 53.6812 21.8875 53.325 21.8874C47.044 21.8874 40.763 21.863 34.483 21.904C33.975 21.9847 33.4546 21.9213 32.9811 21.7204C32.5076 21.5195 32.1 21.1896 31.805 20.7683C31.6888 20.6342 31.5542 20.5171 31.405 20.4211C31.674 19.9621 32.116 20.2082 32.462 20.2062C37.956 20.1872 43.451 20.1931 48.945 20.1931C92.541 20.1931 136.137 20.1954 179.732 20.1994C180.194 20.1298 180.666 20.1715 181.108 20.322Z" fill="#A0A0A0"/>
<path opacity="0.5" d="M30.772 19.6882C30.1916 19.1768 29.67 18.6024 29.217 17.9753C29.405 17.6473 29.682 17.7653 29.917 17.7493C30.201 17.7293 30.487 17.7434 30.773 17.7434H177.029C177.243 17.759 177.457 17.759 177.671 17.7434C178.025 17.6835 178.388 17.7333 178.713 17.886C179.038 18.0386 179.308 18.2868 179.488 18.5974C179.778 18.9114 180.032 19.256 180.247 19.6252C179.947 19.9312 179.57 19.78 179.233 19.78C130.1 19.788 80.9663 19.788 31.833 19.78C31.4772 19.837 31.1127 19.8056 30.772 19.6882Z" fill="#A0A0A0"/>
<path opacity="0.5" d="M207.768 49.3441C207.302 49.4533 206.821 49.4867 206.344 49.4437C162.015 49.4564 117.687 49.4673 73.359 49.476C68.897 49.476 64.436 49.459 59.975 49.495C59.4267 49.4987 58.8841 49.3843 58.3837 49.1601C57.8834 48.9358 57.4371 48.6065 57.075 48.1947C57.241 47.8167 57.527 47.951 57.751 47.932C58.035 47.909 58.322 47.9257 58.608 47.9257H204.87C205.048 47.9406 205.226 47.9406 205.404 47.9257C206.553 47.7307 207.158 48.4221 207.768 49.3441Z" fill="#A0A0A0"/>
<path opacity="0.5" d="M55.535 46.3264C56.0322 46.179 56.5546 46.1368 57.069 46.2024C99.993 46.197 142.917 46.197 185.84 46.2024C191.907 46.2024 197.973 46.2024 204.04 46.2024C204.663 46.2024 205.262 46.1952 205.533 46.9182C205.375 47.2182 205.1 47.1263 204.872 47.1423C204.624 47.1603 204.372 47.1472 204.123 47.1472H57.58C57.259 47.1472 56.938 47.1382 56.617 47.1472C56.3664 47.1717 56.1158 47.1007 55.9152 46.9485C55.7146 46.7963 55.5788 46.5743 55.535 46.3264Z" fill="#A0A0A0"/>
<path opacity="0.5" d="M177.178 16.9216C127.573 16.9216 77.969 16.9216 28.365 16.9216C28.222 16.9216 28.095 16.8396 28.012 16.5906C28.312 16.3376 28.712 16.4417 29.058 16.4407C33.3773 16.432 37.696 16.4289 42.014 16.4309C79.596 16.4223 117.178 16.4132 154.761 16.4046C161.864 16.4046 168.967 16.3963 176.068 16.3797C176.287 16.3392 176.513 16.37 176.712 16.4675C176.912 16.5651 177.075 16.7243 177.178 16.9216Z" fill="#9F9F9F"/>
<path opacity="0.5" d="M181.108 20.3218C180.608 20.3218 180.108 20.315 179.608 20.315C130.808 20.315 82.0104 20.315 33.215 20.315C32.6125 20.252 32.0035 20.2934 31.415 20.4371C31.5444 20.3138 31.6991 20.2198 31.8683 20.1622C32.0375 20.1045 32.2172 20.0845 32.395 20.1031C32.681 20.1031 32.966 20.1031 33.251 20.1031C81.9436 20.1031 130.637 20.1031 179.33 20.1031C179.931 20.0101 180.547 20.0857 181.108 20.3218Z" fill="#4F4F4F"/>
<path opacity="0.5" d="M30.772 19.688C31.343 19.678 31.914 19.6602 32.485 19.6602H178.531C179.101 19.6602 179.672 19.637 180.242 19.625C179.948 19.8335 179.589 19.9285 179.231 19.8921H178.267C129.734 19.8921 81.2003 19.8921 32.667 19.8921C32.0282 19.9851 31.3763 19.9148 30.772 19.688Z" fill="#4F4F4F"/>
<path opacity="0.5" d="M28.59 25.2771C28.1496 25.4349 27.678 25.4859 27.214 25.426C25.185 25.436 23.155 25.4131 21.125 25.4411C20.8606 25.4694 20.5935 25.4232 20.3539 25.3078C20.1143 25.1924 19.9117 25.0127 19.769 24.7883C19.458 24.3113 19.093 23.869 18.801 23.382C18.509 22.895 18.587 22.7434 19.14 22.7194C19.815 22.6904 20.492 22.7072 21.169 22.7072C22.629 22.7072 24.09 22.737 25.548 22.694C25.8482 22.6695 26.1498 22.7198 26.426 22.84C26.7022 22.9603 26.9444 23.1466 27.131 23.383C27.7144 23.9333 28.2069 24.5726 28.59 25.2771Z" fill="#9F9F9F"/>
<path opacity="0.5" d="M211.69 41.7176C213.435 41.7176 215.176 41.7176 216.912 41.7176C217.054 41.6934 217.2 41.7177 217.327 41.786C217.454 41.8543 217.554 41.9632 217.612 42.0951C218.037 42.9574 218.294 43.892 218.371 44.85C218.386 45.979 217.827 46.4118 216.741 46.1498C216.156 45.9933 215.601 45.7404 215.099 45.4017C213.849 44.5796 212.748 43.5517 211.841 42.3617C211.759 42.2789 211.701 42.1751 211.674 42.0614C211.648 41.9477 211.653 41.8284 211.69 41.7176Z" fill="#A0A0A0"/>
<path opacity="0.5" d="M197.074 35.5002C197.364 35.3197 197.71 35.2507 198.048 35.3054C200.962 35.2994 203.877 35.2994 206.792 35.3054C207.005 35.3054 207.218 35.3111 207.431 35.3191C207.493 35.3113 207.556 35.319 207.615 35.341C207.674 35.3631 207.726 35.3992 207.768 35.446C207.81 35.4929 207.839 35.5487 207.855 35.6096C207.87 35.6705 207.87 35.7342 207.855 35.7951C207.831 36.0431 207.785 36.2894 207.774 36.5364C207.752 37.0364 207.482 37.2005 207.011 37.1985C204.417 37.1905 201.822 37.1905 199.227 37.1985C199.068 37.2114 198.907 37.1884 198.758 37.1321C198.608 37.0757 198.473 36.9871 198.362 36.8723C197.957 36.4303 197.541 36.0002 197.074 35.5002Z" fill="#9F9F9F"/>
<path opacity="0.5" d="M180.707 43.936C180.707 43.542 180.704 43.1479 180.698 42.7539C181.114 42.966 181.588 43.0365 182.047 42.9541C188.356 42.9601 194.665 42.962 200.976 42.96C201.537 42.96 202.151 42.8599 202.425 43.6099C202.078 43.9549 201.625 43.8159 201.225 43.8169C196.876 43.8282 192.527 43.8309 188.177 43.8242C186.11 43.8242 184.044 43.8242 181.977 43.8242C181.55 43.7872 181.121 43.8249 180.707 43.936Z" fill="#989898"/>
<path opacity="0.5" d="M21.235 26.4238C21.3209 26.3205 21.4328 26.242 21.5592 26.1963C21.6856 26.1506 21.8218 26.1396 21.954 26.1641C24.13 26.1581 26.306 26.1581 28.482 26.1641C28.871 26.1641 29.282 26.1211 29.526 26.5381C29.8716 27.0388 30.0999 27.6108 30.194 28.2119C30.216 28.4939 29.922 28.495 29.714 28.499C29.108 28.511 28.502 28.5098 27.895 28.5098C26.789 28.5098 25.683 28.489 24.578 28.519C24.0056 28.5496 23.4425 28.3644 23 28C22.3767 27.5152 21.787 26.9885 21.235 26.4238Z" fill="#9F9F9F"/>
<path opacity="0.5" d="M25.161 21.8389C25.119 21.8709 25.067 21.9468 25.014 21.9468C22.884 21.9598 20.753 21.9651 18.623 21.9751C18.4444 21.9875 18.2679 21.9308 18.1297 21.8169C17.9915 21.7031 17.9021 21.5405 17.88 21.3628C17.7771 21.0228 17.7265 20.6693 17.73 20.314C17.7221 20.1531 17.746 19.992 17.8004 19.8404C17.8548 19.6887 17.9387 19.5494 18.0471 19.4302C18.1555 19.311 18.2864 19.2145 18.4323 19.146C18.5781 19.0775 18.736 19.0381 18.897 19.0308C19.391 18.9583 19.8946 18.9856 20.378 19.1109C22.0934 19.5909 23.6895 20.4243 25.064 21.5572C25.1101 21.586 25.1448 21.6294 25.1624 21.6807C25.1801 21.732 25.1796 21.7879 25.161 21.8389Z" fill="#9F9F9F"/>
<path opacity="0.5" d="M214.719 38.3358C213.168 38.3358 211.619 38.336 210.067 38.329C209.925 38.326 209.789 38.2764 209.678 38.1879C209.456 37.7898 209.337 37.3427 209.331 36.8871C209.325 36.4314 209.433 35.9817 209.644 35.578C209.823 35.4304 210.04 35.3365 210.27 35.3075C210.5 35.2784 210.734 35.3154 210.944 35.4139C212.44 35.947 213.772 36.8587 214.81 38.0599L214.719 38.3358Z" fill="#A0A0A0"/>
<path opacity="0.5" d="M216.757 40.8999C214.841 40.8999 213.034 40.9131 211.227 40.8901C210.795 40.8901 210.017 39.819 210.076 39.397C210.084 39.3264 210.118 39.2612 210.172 39.2148C210.226 39.1685 210.295 39.1443 210.366 39.147C210.614 39.132 210.866 39.1182 211.111 39.1182C212.248 39.1182 213.385 39.1182 214.521 39.1182C215.952 39.1232 216.194 39.2999 216.757 40.8999Z" fill="#A0A0A0"/>
<path opacity="0.5" d="M36.512 28.5C35.148 28.5 33.806 28.5 32.464 28.5C32.385 28.5108 32.3047 28.506 32.2277 28.4854C32.1507 28.4648 32.0786 28.4287 32.0156 28.3799C31.9526 28.3311 31.8999 28.2705 31.8606 28.2012C31.8214 28.1318 31.7963 28.0552 31.787 27.9761C31.7426 27.7674 31.6755 27.5642 31.5869 27.3701C31.0759 26.2221 31.034 26.1548 32.498 26.1558C34.79 26.1558 34.79 26.1501 36.273 27.8731C36.3631 27.9484 36.4324 28.0455 36.4742 28.1553C36.5161 28.2651 36.5291 28.3838 36.512 28.5Z" fill="#9F9F9F"/>
<path opacity="0.5" d="M28.735 22.7251C29.677 22.7251 30.446 22.7251 31.215 22.7251C31.3222 22.7323 31.4267 22.7617 31.5217 22.812C31.6166 22.8623 31.6998 22.9324 31.766 23.0171C32.416 23.7171 33.066 24.4259 33.726 25.1499C32.7705 25.4308 31.7658 25.5027 30.78 25.3608C30.6831 25.3177 30.5978 25.2523 30.531 25.1699C29.966 24.4109 29.409 23.6461 28.735 22.7251Z" fill="#9D9D9D"/>
<path opacity="0.5" d="M208.613 40.3569C208.325 40.4972 208 40.5443 207.684 40.4912C205.972 40.4972 204.26 40.4759 202.549 40.5019C202.232 40.5523 201.907 40.4962 201.625 40.3422C201.343 40.1882 201.121 39.945 200.992 39.6508C201.135 39.3368 201.418 39.4267 201.648 39.4257C203.609 39.4177 205.571 39.4117 207.532 39.4257C208.406 39.4317 208.406 39.4519 208.613 40.3569Z" fill="#9A9A9A"/>
<path opacity="0.5" d="M208.331 47.3521C211.687 47.4051 214.871 47.0939 218.021 47.7989C217.983 48.1989 217.676 48.2061 217.393 48.2071C214.726 48.2118 212.06 48.2118 209.393 48.2071C208.918 48.2121 208.6 48.0111 208.331 47.3521Z" fill="#989898"/>
<path opacity="0.5" d="M203.7 37.9207C204.8 37.9207 205.9 37.9207 207 37.9207C207.248 37.9162 207.495 37.9438 207.736 38.0027C207.82 38.0346 207.892 38.0935 207.939 38.1702C207.986 38.247 208.007 38.337 207.997 38.4266C207.99 38.6516 207.806 38.6987 207.624 38.7137C207.442 38.7287 207.269 38.7298 207.092 38.7298H200.805C200.627 38.7328 200.45 38.7249 200.273 38.7059C199.96 38.6669 199.684 38.4769 199.691 38.1829C199.699 37.8469 200.059 37.9256 200.291 37.9236C201.428 37.9126 202.565 37.9236 203.701 37.9236L203.7 37.9207Z" fill="#929292"/>
<path opacity="0.5" d="M202.643 41.2551H205.464C206.464 41.2551 207.458 41.2551 208.455 41.2551C208.703 41.2377 208.952 41.2652 209.19 41.3361C209.329 41.3773 209.448 41.4696 209.522 41.5944C209.596 41.7192 209.62 41.867 209.59 42.009C209.521 42.256 209.234 42.1852 209.035 42.1852C207.326 42.1922 205.616 42.185 203.906 42.194C203.342 42.2 202.967 41.9781 202.643 41.2551Z" fill="#9F9F9F"/>
<path opacity="0.5" d="M204.375 43.1782C204.521 42.9672 204.711 42.999 204.875 42.998C206.516 42.992 208.156 42.9978 209.797 42.9878C210.306 42.9878 210.697 43.1068 210.874 43.6138C210.756 43.9138 210.515 43.8471 210.32 43.8481C208.72 43.8551 207.11 43.848 205.505 43.854C204.978 43.856 204.524 43.7642 204.375 43.1782Z" fill="#999999"/>
<path opacity="0.5" d="M205.832 44.7796C206.094 44.5978 206.417 44.5263 206.732 44.5799C208.19 44.5739 209.647 44.5679 211.104 44.5799C211.904 44.5879 211.904 44.6058 212.329 45.2918C212.266 45.3527 212.189 45.3978 212.105 45.4231C212.02 45.4485 211.931 45.4535 211.845 45.4378C210.211 45.4378 208.576 45.4378 206.945 45.4378C206.712 45.4776 206.472 45.4333 206.268 45.3128C206.064 45.1923 205.91 45.0033 205.832 44.7796Z" fill="#959595"/>
<path opacity="0.5" d="M30.569 21.9437C28.925 22.1437 27.411 22.2359 26.455 20.6439C26.8104 20.4587 27.1988 20.3454 27.5981 20.3104C27.9973 20.2755 28.3996 20.3196 28.7817 20.4403C29.1639 20.5611 29.5184 20.756 29.8251 21.0141C30.1318 21.2721 30.3846 21.5879 30.569 21.9437Z" fill="#989898"/>
<path opacity="0.5" d="M25.524 29.3063C27.004 29.3063 28.484 29.2931 29.963 29.3141C30.383 29.3201 30.506 29.5822 30.325 29.9562C30.2092 30.1781 30.0295 30.36 29.8091 30.4787C29.5888 30.5974 29.338 30.6475 29.089 30.6223C27.8153 30.5826 26.5742 30.2102 25.489 29.5422L25.524 29.3063Z" fill="#9D9D9D"/>
<path opacity="0.5" d="M38.953 30.9762C38.3984 31.0803 37.8326 31.1107 37.27 31.0671C35.5607 31.0751 33.851 31.0751 32.141 31.0671C31.948 31.0671 31.662 31.1139 31.667 30.8009C31.6736 30.6929 31.7211 30.5915 31.7999 30.5172C31.8786 30.4429 31.9827 30.4013 32.091 30.401C32.2325 30.3853 32.3747 30.3777 32.517 30.3781C34.3337 30.3781 36.1503 30.3781 37.967 30.3781C38.369 30.3691 38.749 30.4002 38.953 30.9762Z" fill="#9F9F9F"/>
<path opacity="0.5" d="M23.768 18.7747C24.986 18.6578 26.2116 18.6435 27.432 18.7318C27.855 18.7538 28.124 19.053 28.311 19.514C27.5685 19.6934 26.8017 19.7495 26.041 19.68C25.617 19.7264 25.1881 19.6678 24.7919 19.5101C24.3956 19.3523 24.044 19.0999 23.768 18.7747Z" fill="#8E8E8E"/>
<path opacity="0.5" d="M210.363 49.0122H216.351C215.4 49.8782 212.125 49.9432 210.363 49.0122Z" fill="#9C9C9C"/>
<path opacity="0.5" d="M213.962 46.4886C211.798 46.7544 209.609 46.7279 207.452 46.409C209.611 46.0675 211.812 46.0941 213.962 46.4886Z" fill="#898989"/>
<path opacity="0.5" d="M25.483 16.88H19.6C20.482 16.259 23.727 16.216 25.483 16.88Z" fill="#989898"/>
<path opacity="0.5" d="M37.481 29.5H32.311V29.3491H37.467L37.481 29.5Z" fill="#9C9C9C"/>
<path opacity="0.5" d="M21.792 17.7842H26.551V17.9028H21.751L21.792 17.7842Z" fill="#848484"/>
<path opacity="0.5" d="M150.927 32.6003C151.174 35.5003 151.116 38.3161 151.114 41.1311C151.114 42.6451 151.288 42.6751 149.614 42.6701C148.757 42.6701 147.901 42.6521 147.045 42.6701C146.498 42.6811 146.253 42.4401 146.274 41.9011C146.282 41.6881 146.269 41.473 146.269 41.259V24.5661C146.269 24.3161 146.281 24.0661 146.277 23.8171C146.269 23.3171 146.531 23.129 147.012 23.134C148.047 23.146 149.083 23.1703 150.112 23.1223C150.392 23.0894 150.675 23.1522 150.915 23.3005C151.155 23.4488 151.338 23.6739 151.434 23.9392C152.544 26.1752 153.699 28.3891 154.834 30.6101C155.287 31.4951 155.744 32.3791 156.269 33.3991C156.456 33.0256 156.511 32.5997 156.424 32.1911C156.238 29.6261 156.293 27.0574 156.287 24.4914C156.287 24.2414 156.294 23.9914 156.294 23.7424C156.281 23.6623 156.287 23.58 156.312 23.5027C156.336 23.4253 156.378 23.3548 156.435 23.2966C156.491 23.2384 156.561 23.194 156.637 23.1672C156.714 23.1404 156.796 23.132 156.876 23.1423C158.089 23.1423 159.302 23.1423 160.515 23.1423C160.976 23.1423 161.15 23.3822 161.14 23.8122C161.135 24.0262 161.14 24.2403 161.14 24.4543V41.2541C161.14 41.5391 161.132 41.8241 161.123 42.1101C161.13 42.1819 161.121 42.2546 161.096 42.3225C161.072 42.3904 161.033 42.4519 160.982 42.5031C160.932 42.5544 160.87 42.5938 160.803 42.6189C160.735 42.6439 160.663 42.654 160.591 42.6482C159.307 42.6572 158.022 42.6602 156.739 42.6482C156.249 42.6422 156.139 42.1971 155.963 41.8591C154.913 39.8324 153.868 37.8035 152.827 35.7722C152.386 34.9162 151.955 34.0543 151.503 33.2043C151.41 32.9933 151.375 32.7103 150.927 32.6003Z" fill="#4F4F4F"/>
<path opacity="0.5" d="M93.295 32.2453C93.337 32.3213 93.354 32.4112 93.405 32.4392C94.0961 32.857 94.6643 33.4502 95.0523 34.1584C95.4402 34.8667 95.634 35.6651 95.614 36.4724C95.6701 37.3291 95.5726 38.1891 95.326 39.0115C94.666 41.3115 92.936 42.2753 90.726 42.5603C89.8742 42.6471 89.018 42.6828 88.162 42.6672C86.344 42.6812 84.525 42.6772 82.706 42.6672C81.555 42.6612 81.5359 42.6484 81.5349 41.5564C81.5296 35.7804 81.5296 30.0046 81.5349 24.2292C81.5349 23.1522 81.5489 23.1234 82.5949 23.1404C85.2319 23.1834 87.872 22.9964 90.506 23.2624L90.612 23.2742C94.759 23.8152 96.479 27.9294 93.985 31.3274C93.759 31.6394 93.423 31.8713 93.295 32.2453Z" fill="#4F4F4F"/>
<path opacity="0.5" d="M124.976 32.9439C124.976 35.6892 124.976 38.4349 124.976 41.1802C124.976 41.4662 124.967 41.7512 124.966 42.0361C124.966 42.4202 124.788 42.6499 124.394 42.6519C123.11 42.6599 121.826 42.6599 120.542 42.6519C119.919 42.6519 119.912 42.2029 119.912 41.7569C119.912 40.0442 119.912 38.3328 119.912 36.6221C119.912 34.9651 119.965 35.1222 118.4 35.1162C117.687 35.1162 116.973 35.1102 116.26 35.1162C115.166 35.1262 115.16 35.13 115.155 36.271C115.149 38.054 115.155 39.8372 115.155 41.6192C115.155 42.7282 115.143 42.7342 114.01 42.7412C112.976 42.7482 111.942 42.7292 110.91 42.7412C110.364 42.7482 110.127 42.4979 110.148 41.9649C110.158 41.7159 110.148 41.4648 110.148 41.2158C110.148 35.6885 110.148 30.1622 110.148 24.6362C110.148 24.4932 110.148 24.35 110.148 24.208C110.172 23.169 110.193 23.1409 111.248 23.1319C112.283 23.1229 113.318 23.1159 114.348 23.1319C115.081 23.1469 115.14 23.203 115.148 23.937C115.168 25.363 115.155 26.7898 115.156 28.2158C115.156 28.4658 115.148 28.7159 115.162 28.9649C115.202 29.6949 115.214 29.7209 115.994 29.7349C117.029 29.7522 118.063 29.7522 119.094 29.7349C119.835 29.7209 119.894 29.6729 119.902 28.9409C119.924 27.6219 119.902 26.3019 119.913 24.9829C119.927 22.8479 119.704 23.152 121.824 23.127C122.573 23.118 123.324 23.114 124.071 23.127C124.926 23.145 124.971 23.1788 124.971 24.0518C124.984 26.3338 124.976 28.616 124.977 30.898L124.976 32.9439Z" fill="#4F4F4F"/>
<path opacity="0.5" d="M128.566 30.0593C128.566 28.0973 128.558 26.1341 128.566 24.1721C128.572 23.1721 128.597 23.1514 129.594 23.1394C130.591 23.1274 131.594 23.1264 132.594 23.1394C133.533 23.1514 133.563 23.1733 133.569 24.1023C133.581 26.2023 133.569 28.3122 133.569 30.4172C133.569 31.9872 133.576 33.5572 133.569 35.1262C133.558 35.7342 133.644 36.34 133.823 36.9211C133.974 37.3479 134.251 37.7188 134.617 37.9841C134.984 38.2495 135.422 38.3968 135.875 38.4065C136.327 38.4162 136.772 38.2878 137.149 38.0383C137.527 37.7889 137.819 37.4299 137.988 37.01C138.217 36.3322 138.319 35.6179 138.288 34.9031C138.288 31.5851 138.288 28.2675 138.288 24.9495C138.288 24.6635 138.283 24.378 138.288 24.093C138.312 23.17 138.324 23.1504 139.274 23.1394C140.308 23.1261 141.343 23.1261 142.379 23.1394C143.309 23.1514 143.345 23.1781 143.349 24.1111C143.36 26.7111 143.349 29.32 143.354 31.925C143.39 33.46 143.339 34.9958 143.203 36.5251C143.105 37.5195 142.869 38.4954 142.503 39.425C142.183 40.2829 141.656 41.0484 140.968 41.6521C140.28 42.2558 139.452 42.6789 138.56 42.884C136.857 43.3194 135.073 43.325 133.368 42.9001C132.456 42.7002 131.608 42.273 130.905 41.6579C130.202 41.0429 129.666 40.2599 129.347 39.3821C128.887 38.2556 128.637 37.0546 128.609 35.8381C128.576 33.9121 128.6 31.9853 128.6 30.0593H128.566Z" fill="#4F4F4F"/>
<path opacity="0.5" d="M167.8 35.4122C167.8 33.3802 167.806 31.3492 167.8 29.3122C167.795 28.2682 167.784 28.264 166.71 28.255C165.819 28.247 164.927 28.232 164.037 28.255C163.478 28.269 163.282 28.0209 163.289 27.4889C163.304 26.3489 163.279 25.208 163.295 24.068C163.307 23.162 163.332 23.136 164.295 23.133C167.611 23.125 170.927 23.125 174.242 23.133C175.027 23.133 175.811 23.147 176.595 23.133C177.082 23.126 177.32 23.3331 177.317 23.8331C177.309 25.0805 177.309 26.328 177.317 27.5753C177.317 28.0753 177.074 28.264 176.592 28.257C175.665 28.245 174.738 28.25 173.811 28.257C172.826 28.269 172.805 28.2802 172.803 29.2912C172.795 33.0692 172.803 36.8471 172.803 40.6251C172.803 41.0881 172.792 41.5513 172.794 42.0143C172.796 42.4773 172.56 42.6559 172.131 42.6549C170.919 42.6549 169.706 42.6791 168.495 42.6471C167.873 42.6301 167.815 42.535 167.81 41.716C167.798 39.616 167.81 37.5103 167.81 35.4083L167.8 35.4122Z" fill="#4F4F4F"/>
<path opacity="0.5" d="M70.626 30.437C70.626 32.505 70.643 34.5722 70.618 36.6372C70.5901 37.6741 70.3708 38.6966 69.971 39.6538C69.6573 40.5136 69.124 41.2767 68.4243 41.8667C67.7245 42.4566 66.8825 42.8532 65.982 43.0171C64.7544 43.255 63.4979 43.3058 62.255 43.1679C61.3862 43.0514 60.5491 42.764 59.7921 42.3222C59.035 41.8805 58.3729 41.2933 57.844 40.5942C57.7957 40.5542 57.7566 40.5038 57.7294 40.4472C57.7022 40.3907 57.6875 40.3289 57.6864 40.2661C57.6852 40.2033 57.6976 40.141 57.7228 40.0835C57.7479 40.026 57.7851 39.9749 57.832 39.9331C58.61 39.0991 59.3907 38.2658 60.174 37.4331C60.2097 37.3809 60.2573 37.3379 60.3129 37.3076C60.3684 37.2773 60.4304 37.2604 60.4937 37.2588C60.5569 37.2571 60.6196 37.2705 60.6767 37.2978C60.7338 37.3251 60.7836 37.3657 60.822 37.416C61.002 37.588 61.185 37.759 61.378 37.916C61.8119 38.2907 62.3288 38.5566 62.886 38.6919C63.206 38.8204 63.5535 38.8647 63.8955 38.8208C64.2374 38.7769 64.5625 38.6465 64.8396 38.4414C65.1167 38.2363 65.3367 37.9632 65.4786 37.6489C65.6204 37.3347 65.6795 36.9895 65.65 36.646C65.682 36.221 65.672 35.7908 65.672 35.3638C65.672 31.6911 65.672 28.0191 65.672 24.3471C65.672 23.1361 65.68 23.1329 66.93 23.1289C67.893 23.1289 68.856 23.1152 69.819 23.1362C70.593 23.1532 70.67 23.2202 70.677 24.0132C70.694 26.1522 70.683 28.2912 70.683 30.4302L70.626 30.437Z" fill="#4F4F4F"/>
<path opacity="0.5" d="M96.95 40.5499C96.948 40.2032 97.0142 39.8597 97.145 39.5386C97.2758 39.2175 97.4686 38.9253 97.7123 38.6788C97.956 38.4322 98.2458 38.2362 98.5654 38.1016C98.8849 37.9671 99.2278 37.8966 99.5745 37.8946C99.9212 37.8925 100.265 37.9586 100.586 38.0894C100.907 38.2202 101.199 38.4131 101.446 38.6568C101.692 38.9005 101.889 39.1903 102.023 39.5098C102.158 39.8293 102.228 40.1724 102.23 40.5191C102.213 41.203 101.938 41.8552 101.459 42.3438C100.98 42.8324 100.333 43.1207 99.65 43.1509C98.9479 43.1611 98.2702 42.8935 97.7644 42.4063C97.2587 41.9191 96.966 41.2519 96.95 40.5499Z" fill="#4F4F4F"/>
<path opacity="0.5" d="M76.429 40.5122C76.4331 40.8606 76.3674 41.2062 76.2359 41.5288C76.1044 41.8514 75.9096 42.1444 75.6631 42.3906C75.4166 42.6369 75.1233 42.8313 74.8005 42.9624C74.4778 43.0936 74.1321 43.1588 73.7837 43.1543C73.4353 43.1498 73.0913 43.0759 72.772 42.9365C72.4527 42.7971 72.1645 42.5953 71.9244 42.3428C71.6843 42.0903 71.4972 41.7922 71.374 41.4663C71.2507 41.1404 71.194 40.793 71.207 40.4448C71.219 39.7622 71.4979 39.1115 71.9838 38.6319C72.4698 38.1522 73.1242 37.882 73.807 37.8789C74.1549 37.8692 74.5011 37.9311 74.8243 38.0601C75.1476 38.1891 75.4411 38.3828 75.6866 38.6294C75.9322 38.876 76.1248 39.1699 76.2524 39.4937C76.3801 39.8174 76.4402 40.1644 76.429 40.5122Z" fill="#4F4F4F"/>
<path opacity="0.5" d="M86.6 36.2377C86.619 34.4827 86.323 34.509 88.33 34.538C88.7206 34.5428 89.1103 34.5763 89.4959 34.6381C89.9096 34.7079 90.2842 34.9241 90.5513 35.2475C90.8184 35.5709 90.9601 35.9795 90.9504 36.3989C90.9406 36.8182 90.7802 37.22 90.4984 37.5307C90.2166 37.8414 89.8324 38.0403 89.416 38.0908C88.71 38.1548 87.996 38.1148 87.286 38.1308C86.786 38.1418 86.586 37.8832 86.598 37.4072C86.608 37.0202 86.6 36.6287 86.6 36.2377Z" fill="#A0A0A0"/>
<path opacity="0.5" d="M86.6 29.3179C86.594 27.7349 86.594 27.7353 88.158 27.7403C88.407 27.7403 88.658 27.7399 88.905 27.7539C89.937 27.8219 90.312 28.16 90.376 29.066C90.4167 29.2683 90.4165 29.477 90.3755 29.6792C90.3344 29.8815 90.2534 30.0732 90.137 30.2437C90.0206 30.4141 89.8713 30.5596 89.6978 30.6714C89.5244 30.7833 89.3303 30.8594 89.127 30.8951C88.5287 30.9868 87.9222 31.0143 87.318 30.9771C86.832 30.9891 86.586 30.7769 86.599 30.2769C86.6 29.9589 86.6 29.6389 86.6 29.3179Z" fill="#9E9E9E"/>
</g>
</svg>
