<svg width="29" height="28" viewBox="0 0 29 28" fill="none" xmlns="http://www.w3.org/2000/svg">
<path d="M14.378 27.968C11.6199 27.968 8.92373 27.1508 6.63047 25.6184C4.3372 24.0861 2.54979 21.9078 1.49436 19.3596C0.438925 16.8115 0.162872 14.0071 0.701024 11.302C1.23918 8.59692 2.56733 6.11257 4.51767 4.16237C6.46802 2.21217 8.95292 0.88392 11.6581 0.345962C14.3632 -0.191996 17.1671 0.0842903 19.7152 1.13991C22.2633 2.19552 24.4412 3.98325 25.9734 6.27663C27.5055 8.57 28.3232 11.2666 28.323 14.0247C28.3185 17.7216 26.8477 21.2651 24.2335 23.8792C21.6192 26.4932 18.075 27.9638 14.378 27.968ZM14.378 1.13502C11.8291 1.13502 9.33727 1.89079 7.21787 3.3069C5.09847 4.72301 3.44666 6.73616 2.47117 9.09108C1.49567 11.446 1.24032 14.0374 1.73752 16.5374C2.23473 19.0374 3.46206 21.3335 5.26438 23.136C7.0667 24.9385 9.36305 26.1659 11.863 26.6633C14.363 27.1607 16.9543 26.9062 19.3093 25.9309C21.6643 24.9556 23.6772 23.3031 25.0935 21.1839C26.5098 19.0646 27.2658 16.5736 27.266 14.0247C27.2631 10.6074 25.9043 7.33082 23.488 4.91432C21.0717 2.49783 17.7953 1.1382 14.378 1.13502Z" fill="white"/>
<path d="M14.377 7.99219C16.341 7.99219 16.577 7.99916 17.35 8.03516C17.8165 8.04006 18.2786 8.12559 18.7159 8.28809C19.0344 8.41022 19.3237 8.59767 19.5649 8.83887C19.8061 9.08006 19.9938 9.36999 20.116 9.68848C20.2778 10.126 20.3634 10.5873 20.369 11.0537C20.404 11.8297 20.412 12.0623 20.412 14.0273C20.412 15.9923 20.404 16.227 20.369 17C20.3634 17.4664 20.2778 17.9287 20.116 18.3662C19.9938 18.6847 19.8061 18.9736 19.5649 19.2148C19.3237 19.456 19.0344 19.6435 18.7159 19.7656C18.2786 19.9281 17.8165 20.0136 17.35 20.0186C16.574 20.0546 16.342 20.0615 14.377 20.0615C12.412 20.0615 12.177 20.0546 11.405 20.0186C10.9385 20.0137 10.4762 19.9282 10.0389 19.7656C9.72045 19.6435 9.43126 19.456 9.19006 19.2148C8.94887 18.9736 8.76117 18.6847 8.63904 18.3662C8.47678 17.9288 8.39083 17.4665 8.38501 17C8.35001 16.224 8.34204 15.9923 8.34204 14.0273C8.34204 12.0623 8.35001 11.8267 8.38501 11.0537C8.39083 10.5872 8.47678 10.1259 8.63904 9.68848C8.76117 9.36999 8.94887 9.08006 9.19006 8.83887C9.43126 8.59767 9.72045 8.41022 10.0389 8.28809C10.4762 8.12551 10.9385 8.03998 11.405 8.03516C12.18 7.99916 12.413 7.99219 14.377 7.99219ZM14.377 6.66602C12.377 6.66602 12.129 6.67496 11.344 6.70996C10.734 6.72302 10.1306 6.83843 9.55896 7.05176C9.07043 7.24126 8.62675 7.53084 8.25623 7.90137C7.8857 8.27189 7.59648 8.71557 7.40698 9.2041C7.19295 9.77551 7.07727 10.3792 7.06494 10.9893C7.02894 11.7743 7.021 12.0255 7.021 14.0225C7.021 16.0195 7.02894 16.2707 7.06494 17.0537C7.07716 17.6641 7.19284 18.2681 7.40698 18.8398C7.59648 19.3284 7.8857 19.7721 8.25623 20.1426C8.62675 20.5131 9.07043 20.8027 9.55896 20.9922C10.1305 21.2056 10.734 21.3207 11.344 21.333C12.129 21.369 12.379 21.3779 14.377 21.3779C16.375 21.3779 16.626 21.369 17.41 21.333C18.0203 21.3207 18.6242 21.2056 19.196 20.9922C19.6846 20.8028 20.1282 20.5131 20.4985 20.1426C20.8689 19.772 21.1579 19.3284 21.347 18.8398C21.5612 18.2681 21.6767 17.6641 21.689 17.0537C21.725 16.2707 21.733 16.0195 21.733 14.0225C21.733 12.0255 21.725 11.7743 21.689 10.9893C21.6766 10.3792 21.5611 9.77551 21.347 9.2041C21.1579 8.71551 20.8689 8.27192 20.4985 7.90137C20.1282 7.53081 19.6846 7.24111 19.196 7.05176C18.6241 6.83843 18.0203 6.72302 17.41 6.70996C16.626 6.67496 16.375 6.66602 14.377 6.66602Z" fill="white"/>
<path d="M14.3769 10.2451C13.6299 10.2453 12.8999 10.4667 12.2789 10.8818C11.6579 11.297 11.1739 11.887 10.8881 12.5771C10.6024 13.2673 10.5278 14.0272 10.6737 14.7598C10.8195 15.4924 11.1793 16.1652 11.7076 16.6934C12.2359 17.2215 12.9088 17.5809 13.6414 17.7266C14.3741 17.8722 15.1335 17.7976 15.8236 17.5117C16.5137 17.2258 17.1035 16.7412 17.5185 16.1201C17.9335 15.499 18.155 14.7694 18.155 14.0225C18.155 13.5264 18.0573 13.0345 17.8674 12.5762C17.6775 12.1179 17.3991 11.7013 17.0483 11.3506C16.6975 10.9998 16.2811 10.722 15.8227 10.5322C15.3643 10.3425 14.873 10.245 14.3769 10.2451ZM14.3769 16.4736C13.8919 16.4736 13.418 16.33 13.0147 16.0605C12.6115 15.7911 12.2972 15.408 12.1117 14.96C11.9261 14.5119 11.8775 14.0196 11.9721 13.5439C12.0667 13.0683 12.3002 12.631 12.6431 12.2881C12.9861 11.9452 13.423 11.7118 13.8986 11.6172C14.3743 11.5226 14.8672 11.5712 15.3153 11.7568C15.7633 11.9424 16.1463 12.2569 16.4157 12.6602C16.6852 13.0634 16.8289 13.5375 16.8289 14.0225C16.8289 14.6728 16.5706 15.296 16.1108 15.7559C15.651 16.2157 15.0272 16.4736 14.3769 16.4736Z" fill="white"/>
<path d="M19.187 10.0996C19.187 10.2743 19.1353 10.4456 19.0382 10.5908C18.9412 10.736 18.8033 10.8492 18.642 10.916C18.4806 10.9828 18.303 10.9999 18.1317 10.9658C17.9604 10.9318 17.8031 10.8481 17.6796 10.7246C17.5561 10.6011 17.4721 10.4437 17.438 10.2725C17.4039 10.1012 17.4213 9.92307 17.4882 9.76172C17.555 9.60037 17.6683 9.46324 17.8135 9.36621C17.9587 9.26919 18.1293 9.2168 18.304 9.2168C18.42 9.21667 18.5349 9.23985 18.6421 9.28418C18.7493 9.32851 18.8467 9.39357 18.9287 9.47559C19.0108 9.55761 19.0757 9.65453 19.12 9.76172C19.1643 9.86891 19.1872 9.98362 19.187 10.0996Z" fill="white"/>
</svg>
