<svg width="90" height="98" viewBox="0 0 90 98" fill="none" xmlns="http://www.w3.org/2000/svg">
<g opacity="0.5">
<path opacity="0.5" d="M83.222 36.5342C83.06 36.2902 82.963 36.5451 82.882 36.6021C81.624 37.4831 80.375 38.3761 79.124 39.2671C73.9187 42.9744 68.7113 46.6786 63.502 50.3799C63.4266 50.414 63.3589 50.4632 63.3032 50.5244C63.2474 50.5856 63.2048 50.6576 63.1778 50.7358C63.1508 50.8141 63.1401 50.8969 63.1464 50.9795C63.1526 51.062 63.1756 51.1425 63.214 51.2158C63.869 53.0848 64.483 54.9692 65.114 56.8472C65.162 56.9892 65.157 57.1808 65.369 57.2148C65.38 57.4848 65.139 57.5151 64.979 57.6001C63.5673 58.3219 62.1186 58.9691 60.639 59.5391C56.9356 60.9912 53.1106 62.1117 49.209 62.8872C46.114 63.5182 42.993 63.9868 39.852 64.3198C37.983 64.5198 36.113 64.696 34.231 64.772C31.9315 64.8317 29.6305 64.7549 27.34 64.542C25.981 64.435 24.632 64.2552 23.292 64.0132C23.125 63.9832 22.932 63.984 22.899 63.75C23.368 62.262 23.842 60.7752 24.304 59.2852C25.15 56.5642 25.983 53.8391 26.837 51.1201C26.8957 50.994 26.905 50.8505 26.8632 50.7178C26.8214 50.5851 26.7314 50.4725 26.611 50.4028C18.819 44.3128 11.0317 38.2172 3.24902 32.1152C3.14902 32.0402 3.03599 31.9868 2.98199 31.8638C3.04199 31.7408 3.155 31.7881 3.242 31.7881C8.70867 31.7881 14.1754 31.7881 19.642 31.7881C19.742 32.0091 19.567 32.1 19.442 32.209C18.552 32.994 17.653 33.7698 16.842 34.6338C16.516 34.9788 16.159 35.29 15.825 35.626C16.3936 35.0575 16.9989 34.5271 17.637 34.0381C18.701 33.2301 19.779 32.4382 20.889 31.6992C21.013 31.6162 21.127 31.5131 21.289 31.5801C21.6188 31.6301 21.9542 31.6301 22.284 31.5801C26.0093 31.5881 29.7343 31.5881 33.459 31.5801C33.608 31.5801 33.759 31.5801 33.905 31.5801C34.394 31.5691 34.537 31.474 34.705 31.02C35.149 29.852 35.588 28.6818 36.022 27.5098C36.422 26.4298 36.8256 25.3519 37.233 24.2759C37.2659 24.2095 37.2843 24.137 37.287 24.063C37.4956 23.2823 37.8355 22.5427 38.292 21.876C38.82 20.646 39.25 19.376 39.718 18.126C41.8354 12.4646 43.9487 6.80077 46.058 1.13477C46.096 1.03477 46.143 0.934777 46.19 0.821777C46.356 0.912777 46.36 1.07508 46.408 1.20508C48.4927 6.78708 50.5753 12.3698 52.656 17.9531C52.735 18.1641 52.764 18.435 53.099 18.395C53.234 19.008 53.499 19.5759 53.699 20.1689C53.783 20.4279 53.99 20.6258 54.025 20.9028C54.2584 21.7378 54.5436 22.5575 54.879 23.3569C55.794 25.8309 56.725 28.2989 57.639 30.7739C57.682 30.8899 57.731 31.0041 57.775 31.1191C57.8217 31.2621 57.9151 31.3853 58.0403 31.4688C58.1654 31.5522 58.3151 31.591 58.465 31.5791C58.576 31.5791 58.688 31.5791 58.799 31.5791C66.651 31.5791 74.5033 31.5791 82.356 31.5791C82.629 31.5791 82.899 31.5521 83.171 31.5391C83.348 31.5861 83.371 31.7388 83.412 31.8838C83.7827 33.2784 83.8112 34.742 83.495 36.1499C83.462 36.3129 83.475 36.5282 83.222 36.5342Z" fill="#8E8E8E"/>
<path opacity="0.5" d="M65.6 58.2578C66.45 60.8078 67.2997 63.3578 68.149 65.9072C69.9423 71.2638 71.7367 76.6197 73.532 81.975C73.578 82.113 73.618 82.2528 73.664 82.4038C73.48 82.4358 73.394 82.3087 73.291 82.2377C64.9344 76.4831 56.5784 70.7272 48.223 64.9692C48.1401 64.8857 48.0413 64.8195 47.9324 64.7749C47.8235 64.7302 47.7067 64.7077 47.589 64.7089C47.577 64.4659 47.78 64.4797 47.922 64.4457C49.27 64.1227 50.614 63.7869 51.95 63.4169C55.3876 62.5177 58.7421 61.3267 61.977 59.8569C63.052 59.3499 64.109 58.8088 65.177 58.2788C65.312 58.2088 65.448 58.0848 65.6 58.2578Z" fill="#8E8E8E"/>
<path opacity="0.5" d="M65.6 58.2578C63.1532 59.5911 60.6133 60.7459 58 61.7129C54.7338 62.8775 51.4008 63.8458 48.019 64.6128C47.876 64.6458 47.719 64.6129 47.591 64.7129L42.922 65.6309C41.9876 65.9852 41.0025 66.1878 40.004 66.231C38.08 66.493 36.146 66.6439 34.204 66.7769C31.583 66.9559 28.961 66.923 26.34 66.895C25.0786 66.8696 23.8197 66.7696 22.57 66.5952C22.4771 66.5897 22.3863 66.5648 22.3033 66.5225C22.2204 66.4801 22.1471 66.4212 22.088 66.3491C20.7169 66.1476 19.3571 65.8756 18.014 65.5342C14.2334 64.6475 10.7511 62.7853 7.91402 60.1338C5.4745 57.7658 3.91567 54.6369 3.49501 51.2632C3.27581 49.5508 3.39801 47.8119 3.85457 46.147C4.31113 44.4821 5.09303 42.924 6.15505 41.563C7.06469 40.3089 8.08078 39.1357 9.19204 38.0562C9.22406 38.0082 9.26649 37.9677 9.31618 37.9385C9.36588 37.9092 9.42155 37.892 9.47902 37.8872L9.17 38.3281C7.77264 40.1644 6.6673 42.2052 5.89302 44.3789C4.38302 49.2179 5.52804 53.4939 8.82704 57.2349C10.3689 58.8908 12.2326 60.2147 14.304 61.125C17.0381 62.3872 19.9313 63.271 22.904 63.752C24.2411 64.0124 25.5905 64.2051 26.947 64.3291C28.9808 64.535 31.0239 64.6349 33.068 64.6289C35.2228 64.5968 37.3743 64.4481 39.513 64.1831C42.468 63.8551 45.413 63.441 48.329 62.876C54.0504 61.823 59.6053 60.0095 64.846 57.4839C65.023 57.3969 65.198 57.3082 65.374 57.2202C69.2726 55.2418 72.9969 52.9371 76.507 50.3311C77.567 49.5581 78.607 48.7591 79.661 47.9741C79.761 47.9021 79.835 47.7959 79.969 47.7739C79.816 48.2359 76.158 51.3001 73.158 53.4741C70.7404 55.224 68.2161 56.8215 65.6 58.2578Z" fill="#C0C0C0"/>
<path opacity="0.5" d="M8.787 96.7651C9.171 96.0341 9.55704 95.3028 9.93904 94.5708C11.401 91.7708 12.8607 88.969 14.318 86.165C14.3664 86.0405 14.4547 85.9353 14.569 85.8662C14.6833 85.7971 14.8173 85.7681 14.95 85.7832C16.164 85.7998 17.3784 85.7998 18.593 85.7832C18.918 85.7782 19.048 85.883 19.093 86.209C19.393 88.569 19.7 90.9271 20.006 93.2851C20.162 94.4851 20.306 95.693 20.478 96.895C20.514 97.151 20.443 97.2232 20.195 97.2212C19.055 97.2132 17.915 97.2112 16.775 97.2212C16.504 97.2212 16.435 97.1082 16.435 96.8662C16.435 96.5822 16.402 96.2982 16.392 96.0132C16.384 95.8012 16.292 95.703 16.071 95.705C15.3377 95.711 14.6067 95.711 13.878 95.705C13.7977 95.7 13.7183 95.7232 13.6535 95.771C13.5888 95.8187 13.5429 95.8876 13.524 95.9658C13.399 96.2898 13.25 96.6041 13.134 96.9311C13.1081 97.0255 13.0486 97.1072 12.9666 97.1606C12.8846 97.2141 12.7859 97.2356 12.689 97.2212C8.88504 97.2145 5.08068 97.2145 1.27602 97.2212C0.923017 97.2212 0.932029 97.0689 0.976029 96.8149C1.60736 93.4149 2.2367 90.0171 2.86403 86.6211C3.02003 85.7841 3.02503 85.7851 3.86903 85.7851C4.86103 85.7851 5.85203 85.7911 6.84303 85.7851C7.14303 85.7851 7.22402 85.8588 7.16402 86.1748C6.71302 88.5468 6.28601 90.9248 5.83601 93.2978C5.77401 93.6238 5.85802 93.7169 6.17702 93.7119C7.06902 93.6989 7.96202 93.7242 8.85402 93.7002C9.21902 93.6902 9.26299 93.8222 9.19899 94.1362C9.02399 94.9962 8.87201 95.8611 8.71101 96.7241L8.787 96.7651Z" fill="#8E8E8E"/>
<path opacity="0.5" d="M22.09 66.3501C25.1523 66.7178 28.2391 66.8402 31.321 66.7168C35.1217 66.626 38.9116 66.2708 42.663 65.6538C42.748 65.6398 42.834 65.636 42.92 65.627C42.001 66.212 41.087 66.8019 40.163 67.3789C32.7557 72.0002 25.3466 76.6192 17.9359 81.2358C17.8168 81.3458 17.668 81.4185 17.508 81.4448C17.5007 81.2832 17.5351 81.1225 17.6079 80.978C19.0639 76.258 20.5213 71.5376 21.98 66.8169C22.025 66.6639 22.053 66.5061 22.09 66.3501Z" fill="#8E8E8E"/>
<path opacity="0.5" d="M83.222 36.534C83.5909 35.1717 83.629 33.7406 83.333 32.3607C83.277 32.1107 83.216 31.8607 83.158 31.6107C82.953 31.5836 82.919 31.416 82.879 31.261C82.2737 29.3351 81.1187 27.628 79.556 26.3499C77.2138 24.3208 74.4056 22.9033 71.382 22.2239C68.7277 21.5049 66.0184 21.0066 63.282 20.7347C61.4321 20.5604 59.5725 20.5116 57.716 20.5887C56.5901 20.6359 55.4688 20.7603 54.36 20.9607C54.201 20.9877 54.037 21.0308 53.927 20.8538C53.746 20.8318 53.705 20.6837 53.653 20.5467C53.427 19.9517 53.209 19.354 52.974 18.763C52.902 18.583 52.909 18.4627 53.106 18.3997C56.0579 17.9538 59.042 17.7559 62.027 17.8079C67.3684 17.8212 72.6417 19.0079 77.474 21.284C79.8622 22.3725 81.966 23.9989 83.621 26.0359C84.7783 27.452 85.5476 29.1449 85.853 30.9481C85.888 31.1671 85.889 31.3916 85.906 31.6136C86.0618 32.1378 86.1019 32.69 86.0237 33.2313C85.9455 33.7725 85.7508 34.2902 85.453 34.7488C84.2116 38.1781 82.1725 41.2629 79.504 43.7488C81.1949 41.6047 82.4571 39.1553 83.222 36.534Z" fill="#C0C0C0"/>
<path opacity="0.5" d="M29.428 91.5193C29.682 90.1473 29.9363 88.7751 30.191 87.4031C30.27 86.9771 30.354 86.5523 30.422 86.1243C30.4213 86.0752 30.4313 86.0265 30.4513 85.9817C30.4713 85.9369 30.5009 85.8972 30.5379 85.865C30.575 85.8328 30.6186 85.8087 30.6658 85.7951C30.713 85.7816 30.7625 85.7788 30.811 85.7864C31.938 85.7964 33.066 85.8004 34.193 85.7864C34.537 85.7814 34.6191 85.8953 34.5561 86.2263C34.0731 88.7813 33.603 91.3392 33.129 93.8962C32.944 94.8962 32.752 95.8962 32.579 96.8962C32.537 97.1372 32.444 97.2303 32.194 97.2283C31.03 97.2183 29.865 97.2143 28.701 97.2283C28.5864 97.2424 28.4708 97.2122 28.3778 97.1438C28.2849 97.0754 28.2216 96.9737 28.201 96.8601C27.601 95.1661 26.996 93.4773 26.388 91.7873C26.357 91.7003 26.354 91.5873 26.218 91.5173C26.137 92.3043 26.025 93.0683 25.887 93.8293C25.703 94.8403 25.516 95.851 25.343 96.864C25.3434 96.9184 25.3318 96.9724 25.3089 97.0217C25.2859 97.071 25.2523 97.1144 25.2105 97.1492C25.1687 97.1839 25.1197 97.2089 25.067 97.2224C25.0144 97.2359 24.9594 97.2376 24.906 97.2273C23.766 97.2113 22.6264 97.2113 21.487 97.2273C21.15 97.2273 21.1 97.1173 21.158 96.8083C21.8247 93.2543 22.4797 89.6984 23.123 86.1404C23.17 85.8804 23.278 85.7873 23.538 85.7893C24.702 85.7993 25.867 85.8013 27.031 85.7893C27.1407 85.777 27.2509 85.8066 27.3391 85.8728C27.4274 85.9389 27.4871 86.0366 27.506 86.1452C28.116 87.9332 28.845 89.6833 29.428 91.5193Z" fill="#8E8E8E"/>
<path opacity="0.5" d="M42.443 85.9851C40.6322 85.7914 38.81 85.7267 36.99 85.7912C36.726 85.7842 36.701 85.96 36.663 86.155C36.009 89.709 35.363 93.268 34.695 96.822C34.632 97.167 34.739 97.2304 35.041 97.2224C35.741 97.2104 36.431 97.2161 37.405 97.2161C38.7747 97.2701 40.1459 97.1696 41.493 96.9162C42.9464 96.6721 44.2614 95.9079 45.1929 94.7659C46.1244 93.6239 46.6089 92.182 46.5561 90.7092C46.5619 89.5564 46.1475 88.441 45.3905 87.5715C44.6335 86.7021 43.5857 86.138 42.443 85.9851ZM39.651 93.7854C39.474 93.7914 39.405 93.7223 39.443 93.5403C39.695 92.1943 39.9424 90.8437 40.185 89.489C40.223 89.289 40.342 89.2512 40.531 89.2512C40.7858 89.2478 41.0385 89.2976 41.273 89.3972C41.5075 89.4968 41.7187 89.6441 41.8931 89.8298C42.0676 90.0155 42.2015 90.2356 42.2864 90.4758C42.3712 90.7161 42.4052 90.9713 42.386 91.2253C42.3879 91.577 42.317 91.9253 42.1779 92.2483C42.0388 92.5713 41.8345 92.862 41.5777 93.1023C41.3208 93.3426 41.0171 93.5274 40.6856 93.6448C40.354 93.7621 40.0018 93.8096 39.651 93.7844V93.7854Z" fill="#8E8E8E"/>
<path opacity="0.5" d="M82.116 93.2461C81.891 94.4461 81.657 95.646 81.446 96.855C81.398 97.129 81.299 97.2281 81.017 97.2241C79.889 97.2108 78.7617 97.2108 77.635 97.2241C77.317 97.2241 77.271 97.124 77.326 96.834C77.9893 93.2786 78.644 89.7223 79.29 86.165C79.2907 86.1075 79.304 86.0508 79.329 85.999C79.3541 85.9472 79.3902 85.9016 79.4349 85.8652C79.4795 85.8289 79.5316 85.8025 79.5874 85.7885C79.6432 85.7746 79.7015 85.7732 79.758 85.7842C81.393 85.8082 83.029 85.7468 84.663 85.8398C85.3953 85.8672 86.1172 86.0213 86.797 86.2949C87.4712 86.5355 88.0389 87.0061 88.4003 87.624C88.7618 88.2419 88.8937 88.9673 88.773 89.6728C88.7426 90.3858 88.4828 91.07 88.0324 91.6235C87.582 92.177 86.9649 92.5705 86.273 92.7451C86.013 92.8211 86.011 92.931 86.093 93.145C86.56 94.372 87.006 95.6071 87.484 96.8301C87.613 97.1631 87.533 97.2301 87.206 97.2231C86.054 97.2098 84.9017 97.2098 83.749 97.2231C83.6955 97.2317 83.6408 97.2296 83.5881 97.2168C83.5354 97.2039 83.4858 97.1803 83.4423 97.1479C83.3987 97.1156 83.3621 97.075 83.3346 97.0283C83.3071 96.9816 83.2892 96.9297 83.282 96.876C82.972 95.793 82.642 94.7147 82.319 93.6347C82.281 93.5057 82.237 93.379 82.196 93.25L82.116 93.2461Z" fill="#8E8E8E"/>
<path opacity="0.5" d="M74.661 97.2192C74.104 97.2192 73.545 97.2062 72.988 97.2192C72.714 97.2272 72.605 97.1189 72.602 96.8579C72.599 96.5969 72.577 96.313 72.576 96.041C72.576 95.815 72.497 95.6981 72.25 95.7011C71.519 95.7091 70.787 95.7071 70.056 95.7011C69.976 95.6938 69.8959 95.7148 69.8299 95.7607C69.7638 95.8066 69.7161 95.8745 69.695 95.9521C69.566 96.2881 69.419 96.6161 69.295 96.9521C69.2722 97.0352 69.2205 97.1073 69.1492 97.1557C69.0779 97.2041 68.9917 97.2253 68.906 97.2158C67.6294 97.2084 66.3527 97.2084 65.076 97.2158C64.693 97.2158 64.823 97.0409 64.92 96.8559C66.078 94.6372 67.2357 92.4182 68.393 90.1982C69.098 88.8472 69.808 87.4981 70.501 86.1411C70.5436 86.0266 70.6224 85.9288 70.7255 85.8632C70.8286 85.7977 70.9503 85.7677 71.072 85.7778C72.3114 85.7924 73.5507 85.7924 74.79 85.7778C75.101 85.7778 75.223 85.8779 75.263 86.1889C75.717 89.7402 76.18 93.2898 76.652 96.8378C76.694 97.1488 76.592 97.2267 76.301 97.2177C75.752 97.2067 75.207 97.2192 74.661 97.2192Z" fill="#8E8E8E"/>
<path opacity="0.5" d="M51.676 97.479C49.9506 97.5202 48.2651 96.9573 46.911 95.8872C46.311 95.4412 46.311 95.4388 46.737 94.8208C47.212 94.1208 47.697 93.4359 48.159 92.7309C48.317 92.4899 48.412 92.4618 48.613 92.6938C49.2033 93.4406 50.0409 93.9524 50.975 94.1362C51.2664 94.207 51.5727 94.1832 51.85 94.0688C51.9179 94.0517 51.9791 94.0148 52.0256 93.9624C52.072 93.91 52.1017 93.8448 52.1106 93.7754C52.1196 93.7059 52.1074 93.6352 52.0757 93.5727C52.0441 93.5103 51.9943 93.4586 51.933 93.4248C51.6838 93.2397 51.4071 93.0952 51.113 92.9961C50.6288 92.8046 50.1626 92.5701 49.72 92.2959C49.3301 92.0581 48.9928 91.7435 48.7286 91.3711C48.4643 90.9987 48.2786 90.5764 48.1829 90.1299C48.0872 89.6834 48.0834 89.2219 48.1718 88.7739C48.2602 88.3259 48.4389 87.9006 48.697 87.5239C49.2 86.7146 49.983 86.1187 50.897 85.8491C51.8607 85.5309 52.8861 85.4457 53.8891 85.6006C54.8922 85.7554 55.8441 86.1461 56.667 86.7402C56.918 86.9152 56.934 87.056 56.78 87.31C56.358 88.01 55.95 88.7189 55.564 89.4399C55.406 89.7399 55.285 89.7289 55.051 89.5249C54.6651 89.1735 54.2171 88.8972 53.73 88.7099C53.4646 88.6022 53.1762 88.5642 52.892 88.5991C52.7919 88.6064 52.6962 88.6436 52.6175 88.706C52.5389 88.7685 52.4808 88.8533 52.451 88.9492C52.4292 89.0409 52.4368 89.1369 52.4726 89.2241C52.5085 89.3113 52.5709 89.3852 52.651 89.435C52.8642 89.604 53.0998 89.7427 53.351 89.8471C53.751 90.0371 54.169 90.2072 54.551 90.4282C54.9902 90.6612 55.3728 90.9875 55.6718 91.3847C55.9708 91.782 56.1789 92.24 56.2814 92.7265C56.3838 93.213 56.3781 93.7161 56.2647 94.2002C56.1513 94.6842 55.9329 95.1375 55.625 95.5278C55.2243 96.0751 54.7099 96.5292 54.1172 96.8589C53.5244 97.1886 52.8673 97.3862 52.191 97.438C52.023 97.46 51.849 97.466 51.676 97.479Z" fill="#8E8E8E"/>
<path opacity="0.5" d="M58.289 89.2598C57.967 89.2598 57.645 89.2538 57.323 89.2598C57.135 89.2598 57.08 89.1828 57.113 89.0098C57.3043 88.0098 57.4943 87.0124 57.683 86.0171C57.6862 85.9832 57.6962 85.9504 57.7125 85.9204C57.7288 85.8905 57.7509 85.8639 57.7777 85.8428C57.8044 85.8217 57.8352 85.8063 57.8681 85.7974C57.901 85.7885 57.9353 85.7863 57.969 85.791C58.056 85.791 58.143 85.791 58.229 85.791H66.186C66.698 85.791 66.699 85.7912 66.608 86.2832C66.446 87.1482 66.271 88.0099 66.13 88.8779C66.083 89.1689 65.978 89.2781 65.679 89.2681C65.172 89.2471 64.662 89.2849 64.156 89.2539C63.8 89.2319 63.663 89.3541 63.6 89.7041C63.185 92.0331 62.747 94.3581 62.318 96.6851C62.218 97.2191 62.218 97.2202 61.662 97.2202C60.596 97.2202 59.53 97.2081 58.462 97.2261C58.106 97.2331 58.0501 97.1111 58.1111 96.7881C58.5581 94.4141 58.985 92.0361 59.435 89.6631C59.495 89.3441 59.435 89.2318 59.104 89.2578C58.833 89.2788 58.559 89.2578 58.286 89.2578L58.289 89.2598Z" fill="#8E8E8E"/>
<path opacity="0.5" d="M38.3 21.8809C38.074 22.5009 37.846 23.1202 37.623 23.7412C37.5794 23.8551 37.5006 23.952 37.398 24.0181C37.336 24.2751 37.098 24.2959 36.908 24.3579C35.257 24.8919 33.623 25.4721 32.022 26.1421C28.6462 27.5471 25.4004 29.2461 22.322 31.2192C22.0034 31.4826 21.6176 31.6517 21.208 31.708C19.2191 33.0386 17.3024 34.4737 15.466 36.0078C15.8305 35.4851 16.2408 34.9959 16.692 34.5459C17.611 33.5589 18.634 32.682 19.645 31.792C21.2022 30.547 22.8295 29.3924 24.519 28.334C28.7997 25.6982 33.3613 23.5484 38.119 21.9248C38.177 21.8998 38.238 21.8999 38.3 21.8809Z" fill="#C0C0C0"/>
<path opacity="0.5" d="M85.451 34.749C85.7651 33.7342 85.9179 32.676 85.904 31.6138C85.981 31.8138 86.154 31.7852 86.312 31.7852C87.227 31.7852 88.141 31.7852 89.056 31.7852C89.2118 31.7549 89.3731 31.7863 89.506 31.873L85.451 34.749Z" fill="#818181"/>
<path opacity="0.5" d="M53.925 20.8541C56.9533 20.3116 60.0439 20.2068 63.102 20.5431C67.3419 20.859 71.5061 21.8374 75.443 23.443C78.1915 24.6275 80.5304 26.5952 82.1681 29.1002C82.6529 29.8661 82.9888 30.7165 83.1581 31.607C83.1311 31.744 83.035 31.7789 82.912 31.7789H82.54C74.4893 31.7789 66.4384 31.7828 58.3871 31.7901C58.2091 31.8154 58.0281 31.771 57.8818 31.6666C57.7355 31.5621 57.635 31.4056 57.601 31.2291C56.387 27.9161 55.145 24.6123 53.916 21.3043C53.861 21.1653 53.714 21.0001 53.925 20.8541Z" fill="#FEFEFE"/>
<path opacity="0.5" d="M16.092 89.7061C16.092 90.6871 16.171 91.6598 16.212 92.6338C16.224 92.9138 16.121 93.0111 15.851 92.9941C15.581 92.9771 15.332 92.9841 15.073 92.9941C14.836 93.0021 14.799 92.9091 14.886 92.7041C15.308 91.7151 15.749 90.7361 16.092 89.7061Z" fill="#FEFEFE"/>
<path opacity="0.5" d="M83.1 90.8427C82.541 90.8837 82.538 90.8828 82.625 90.4008C82.712 89.9188 82.819 89.4578 82.887 88.9828C82.926 88.7118 83.055 88.6237 83.308 88.6527C83.479 88.6727 83.655 88.6647 83.823 88.6957C84.363 88.7957 84.613 89.0348 84.672 89.4838C84.7068 89.7239 84.6627 89.9692 84.5461 90.182C84.4296 90.3949 84.2471 90.5639 84.026 90.664C83.7331 90.7871 83.4177 90.8478 83.1 90.8427Z" fill="#FEFEFE"/>
<path opacity="0.5" d="M72.37 89.7729C72.37 90.7359 72.365 91.6991 72.37 92.6621C72.37 92.9001 72.29 93.0022 72.049 92.9932C71.777 92.9822 71.504 92.9862 71.232 92.9932C71.032 92.9932 70.958 92.93 71.045 92.729C71.4863 91.7632 71.873 90.7734 72.203 89.7642L72.37 89.7729Z" fill="#FEFEFE"/>
</g>
</svg>
