<svg width="38" height="26" viewBox="0 0 38 26" fill="none" xmlns="http://www.w3.org/2000/svg">
<path d="M34.682 0.399902H3.57001C2.79317 0.400697 2.04838 0.709602 1.49907 1.25891C0.94976 1.80822 0.640809 2.55305 0.640015 3.3299V22.2239C0.641073 23.0005 0.950139 23.7451 1.49942 24.2942C2.0487 24.8433 2.79335 25.1521 3.57001 25.1529H34.682C35.4586 25.1521 36.2031 24.8433 36.7523 24.2941C37.3014 23.745 37.6102 23.0005 37.611 22.2239V3.32489C37.6089 2.54909 37.2995 1.80571 36.7505 1.25751C36.2016 0.709306 35.4578 0.400957 34.682 0.399902ZM3.57001 2.0119H34.682C34.8548 2.01138 35.026 2.04492 35.1859 2.11066C35.3457 2.17639 35.491 2.273 35.6134 2.39496C35.7358 2.51692 35.833 2.66184 35.8993 2.82141C35.9657 2.98098 35.9999 3.15208 36 3.32489V6.49188H2.25601V3.32489C2.25654 2.97665 2.39519 2.64282 2.64153 2.39667C2.88786 2.15052 3.22177 2.01217 3.57001 2.0119ZM36 11.0999H2.25601V8.09985H36V11.0999ZM34.687 23.5279H3.57001C3.22177 23.5276 2.88786 23.3892 2.64153 23.1431C2.39519 22.8969 2.25654 22.5631 2.25601 22.2149V12.7149H36V22.2149C36.0004 22.3881 35.9666 22.5595 35.9005 22.7195C35.8344 22.8796 35.7373 23.025 35.6148 23.1474C35.4923 23.2698 35.3469 23.3668 35.1868 23.4327C35.0267 23.4987 34.8552 23.5324 34.682 23.5319L34.687 23.5279Z" fill="#47ABD8"/>
</svg>
