<svg width="73" height="87" viewBox="0 0 73 87" fill="none" xmlns="http://www.w3.org/2000/svg">
<g opacity="0.5">
<path opacity="0.5" d="M0.978027 52.2002V8.83594C1.06074 8.67492 1.1948 8.5464 1.35901 8.47021C4.68842 6.73902 8.17772 5.33412 11.778 4.27588C14.9469 3.3352 18.1724 2.59708 21.435 2.06592C23.583 1.71192 25.741 1.44309 27.909 1.24609C29.024 1.14609 30.14 1.11203 31.257 1.08203C32.109 1.06003 32.957 1.0329 33.812 1.0249H39.505C41.139 1.0349 42.774 1.05516 44.405 1.16016C46.198 1.27516 47.985 1.49309 49.766 1.74609C52.7922 2.16795 55.793 2.75495 58.755 3.50488C62.1314 4.35665 65.4326 5.48259 68.626 6.87109C69.685 7.33609 70.726 7.83009 71.753 8.37109C71.972 8.48709 72.248 8.57093 72.253 8.89893V51.8418C72.286 53.1628 72.2252 54.4845 72.071 55.7969C71.7291 58.2515 71.0469 60.6467 70.044 62.9131C69.0466 65.1818 67.7218 67.2916 66.112 69.1758C64.4552 71.1226 62.5216 72.8161 60.373 74.2012C58.464 75.4252 56.497 76.5469 54.508 77.6309C52.187 78.8949 49.827 80.0812 47.454 81.2422C44.708 82.5849 41.9413 83.8848 39.154 85.1421C38.433 85.4681 37.709 85.7878 36.987 86.1118C36.8708 86.1656 36.7439 86.1921 36.6159 86.189C36.4879 86.1858 36.3624 86.1536 36.249 86.0942C33.5484 84.8909 30.861 83.6574 28.187 82.394C26.024 81.368 23.862 80.3381 21.733 79.2441C18.811 77.7441 15.912 76.2022 13.116 74.4702C11.1922 73.286 9.43867 71.8448 7.90399 70.187C5.02499 67.0785 2.95427 63.3098 1.87402 59.2129C1.54506 57.998 1.3011 56.762 1.14398 55.5132C1.06673 54.7704 1.03003 54.0236 1.034 53.2769C1.03888 52.917 1.02021 52.5576 0.978027 52.2002Z" fill="#8E8E8E"/>
<path opacity="0.5" d="M33.749 1.0459C32.177 1.0969 30.606 1.17378 29.039 1.30078C27.077 1.45978 25.121 1.67401 23.173 1.95801C20.1175 2.39533 17.0894 3.00577 14.103 3.78613C9.88274 4.86589 5.7921 6.40021 1.90302 8.36279C1.59502 8.52079 1.28603 8.67698 0.978027 8.83398V0.993164H33.752C33.8 1.01316 33.795 1.0309 33.749 1.0459Z" fill="white"/>
<path opacity="0.5" d="M72.233 8.83105C71.9696 8.65575 71.6928 8.50167 71.4051 8.37012C67.661 6.47505 63.7272 4.98105 59.669 3.91309C56.1923 2.97993 52.6576 2.2783 49.088 1.81299C46.744 1.50299 44.394 1.27279 42.033 1.15479C41.213 1.11379 40.393 1.07997 39.574 1.04297C39.5273 1.02764 39.5273 1.01023 39.574 0.990234H72.2881V8.83105C72.2651 8.87905 72.247 8.87805 72.233 8.83105Z" fill="white"/>
<path opacity="0.5" d="M72.233 8.83117C72.2503 8.82971 72.2677 8.82971 72.285 8.83117V51.9571C72.2687 51.9591 72.2523 51.9591 72.236 51.9571C72.236 51.8572 72.224 51.7573 72.224 51.6573C72.224 37.5067 72.224 23.3556 72.224 9.20422C72.226 9.08822 72.23 8.95917 72.233 8.83117Z" fill="#DADADA"/>
<path opacity="0.5" d="M39.571 0.993164V1.0459C39.295 1.0459 39.019 1.05176 38.743 1.05176L34.011 1.05713C33.923 1.05713 33.834 1.0499 33.746 1.0459V0.993164H39.571Z" fill="#DBDBDB"/>
<path opacity="0.5" d="M1.08899 53.3271L0.978027 52.9111V52.1982C1.0714 52.5669 1.10878 52.9474 1.08899 53.3271Z" fill="#D8D8D8"/>
<path opacity="0.5" d="M69.376 31.5943C69.376 38.0783 69.376 44.562 69.376 51.046C69.4003 53.7128 69.0399 56.3693 68.306 58.9332C67.2352 62.6956 65.1931 66.1098 62.385 68.8331C61.1593 70.0019 59.8139 71.0381 58.3709 71.9249C56.0809 73.3639 53.706 74.6503 51.304 75.8873C46.604 78.3073 41.819 80.5441 36.987 82.6871C36.888 82.7394 36.7784 82.7682 36.6665 82.7711C36.5546 82.774 36.4435 82.7512 36.342 82.7042C31.289 80.4762 26.279 78.157 21.377 75.61C19.177 74.465 17 73.2632 14.898 71.9352C12.4928 70.4481 10.3741 68.5412 8.64298 66.3053C6.56362 63.553 5.13921 60.3627 4.478 56.9771C4.08303 54.9649 3.89304 52.9179 3.91099 50.8673C3.91099 42.978 3.90901 35.0883 3.90501 27.1983C3.89848 27.0529 3.92555 26.9077 3.98417 26.7745C4.04279 26.6413 4.13134 26.5237 4.24296 26.4303C9.91049 21.2468 16.4732 17.1366 23.611 14.3009C27.8451 12.6259 32.2274 11.3535 36.7 10.5001C38.9833 10.0554 41.281 9.70655 43.593 9.45322C45.412 9.25322 47.236 9.107 49.064 9.004C51.764 8.852 54.464 8.80422 57.164 8.84922C59.3986 8.88322 61.632 8.97293 63.864 9.11826C65.5133 9.22493 67.1603 9.3521 68.805 9.5001C69.467 9.5601 69.3699 9.52705 69.3709 10.127C69.3756 17.2804 69.3773 24.4363 69.376 31.5943Z" fill="#4F4F4F"/>
<path opacity="0.5" d="M29.235 50.955C29.235 44.313 29.235 37.6707 29.235 31.0287C29.235 30.4827 29.161 30.5718 29.68 30.2758C31.2817 29.3782 33.0403 28.7953 34.861 28.558C36.0176 28.3937 37.1868 28.3352 38.354 28.3837C40.2279 28.3979 42.0614 28.9302 43.6518 29.9213C45.2422 30.9124 46.5276 32.3239 47.366 33.9999C48.1343 35.4789 48.6606 37.0712 48.925 38.7167C49.5294 42.1699 49.4335 45.7095 48.643 49.1249C48.2421 50.9481 47.5045 52.6803 46.468 54.2328C45.3866 55.8852 43.8254 57.1668 41.994 57.9057C40.7633 58.3826 39.4505 58.6122 38.131 58.581C37.2895 58.5883 36.4501 58.4944 35.631 58.3017C35.431 58.2517 35.398 58.2821 35.381 58.4731C35.371 58.5911 35.376 58.711 35.376 58.83C35.376 62.8386 35.376 66.8475 35.376 70.8568C35.376 70.9848 35.376 71.1141 35.368 71.2431C35.3693 71.2679 35.3653 71.2926 35.3564 71.3158C35.3474 71.3391 35.3337 71.3603 35.316 71.3778C35.2984 71.3954 35.2772 71.409 35.2539 71.4179C35.2307 71.4267 35.2059 71.4305 35.181 71.4291C35.092 71.4291 35.003 71.4359 34.914 71.4359H29.69C29.237 71.4359 29.236 71.4361 29.236 70.9711L29.235 50.955Z" fill="#8F8F8F"/>
<path opacity="0.5" d="M25.8 42.4267C25.8 46.812 25.8 51.1979 25.8 55.5839C25.8 56.0959 25.868 56.0199 25.4 56.3139C23.9038 57.2337 22.2508 57.8699 20.524 58.1908C18.8044 58.5349 17.0473 58.6539 15.297 58.5448C14.4064 58.4942 13.5258 58.3314 12.676 58.06C11.5608 57.7261 10.5394 57.1355 9.6938 56.3354C8.84821 55.5353 8.20198 54.5481 7.80702 53.453C7.37062 52.2822 7.11242 51.0526 7.04103 49.8051C6.99403 49.1531 6.98604 48.5001 6.98604 47.8461C6.98604 41.6588 6.98604 35.4714 6.98604 29.2841C6.98604 28.6841 6.967 28.7319 7.532 28.7319C9.294 28.7319 11.0553 28.7319 12.816 28.7319C13.332 28.7319 13.324 28.6989 13.324 29.2319C13.324 35.6872 13.324 42.1424 13.324 48.5971C13.3075 49.2604 13.3673 49.9235 13.502 50.5732C13.5678 50.8631 13.6612 51.1458 13.781 51.4179C13.9723 51.9006 14.2975 52.3186 14.7185 52.6225C15.1395 52.9264 15.6386 53.1032 16.157 53.1327C16.878 53.203 17.6057 53.1505 18.309 52.977C18.6158 52.8966 18.9112 52.7777 19.188 52.623C19.2802 52.5861 19.3576 52.5196 19.4079 52.434C19.4582 52.3484 19.4787 52.2483 19.466 52.1498C19.454 52.0228 19.466 51.8931 19.466 51.7641V29.3398C19.466 29.2108 19.466 29.082 19.471 28.954C19.476 28.826 19.542 28.7308 19.692 28.7338C19.761 28.7338 19.83 28.7338 19.9 28.7338H25.362C25.799 28.7338 25.8 28.7341 25.8 29.1821C25.8 33.5941 25.8 38.0087 25.8 42.4267Z" fill="#8F8F8F"/>
<path opacity="0.5" d="M50.981 50.9059C51.11 50.9199 51.181 51.0162 51.259 51.0822C52.5709 52.1647 54.1314 52.9041 55.8 53.234C56.6282 53.3998 57.4834 53.3741 58.3 53.1583C59.0091 52.9958 59.6378 52.5872 60.0747 52.0055C60.5116 51.4238 60.7286 50.7064 60.687 49.9801C60.6805 49.1599 60.4043 48.3645 59.901 47.7169C59.5322 47.2373 59.0976 46.8124 58.61 46.4542C57.9119 45.9334 57.1825 45.4557 56.426 45.024C55.4552 44.4676 54.5338 43.8292 53.672 43.1154C52.7628 42.3769 51.9991 41.4753 51.42 40.4572C50.8264 39.3208 50.4852 38.0696 50.42 36.7892C50.2742 35.0858 50.7234 33.3846 51.691 31.9752C52.6436 30.5966 53.9869 29.5341 55.548 28.9249C56.975 28.3493 58.5118 28.0968 60.048 28.1852C61.6372 28.2322 63.1938 28.6477 64.595 29.399C64.9152 29.5771 65.2242 29.7751 65.52 29.9913C65.5947 30.0381 65.6556 30.1038 65.6967 30.1818C65.7378 30.2597 65.7576 30.3471 65.754 30.4352C65.748 32.0352 65.754 33.6432 65.754 35.2472C65.7691 35.3312 65.7516 35.4174 65.705 35.4889C65.59 35.4829 65.529 35.3821 65.453 35.3141C64.5352 34.4934 63.4649 33.8615 62.303 33.4542C61.5841 33.1955 60.8249 33.067 60.061 33.0743C59.4351 33.0818 58.8183 33.2247 58.253 33.4933C57.8636 33.6704 57.5171 33.9295 57.2372 34.2531C56.9573 34.5766 56.7507 34.9569 56.6315 35.3678C56.5123 35.7787 56.4834 36.2103 56.5466 36.6334C56.6099 37.0565 56.7639 37.4609 56.998 37.819C57.2453 38.2028 57.5521 38.5449 57.907 38.8322C58.424 39.2473 58.9693 39.6257 59.539 39.965C60.353 40.475 61.19 40.946 61.986 41.483C63.0837 42.1953 64.0772 43.0566 64.938 44.0421C66.0807 45.3659 66.7468 47.0341 66.83 48.7809C66.9329 49.9266 66.8574 51.0817 66.606 52.2042C66.2794 53.681 65.5381 55.0336 64.4692 56.1036C63.4004 57.1737 62.0484 57.9169 60.572 58.2452C58.4463 58.7843 56.2097 58.6944 54.134 57.9869C53.1172 57.6553 52.1309 57.2368 51.186 56.736C51.1005 56.6997 51.0287 56.6373 50.9809 56.5577C50.9331 56.4781 50.9118 56.3856 50.92 56.2931C50.927 54.5801 50.92 52.8679 50.92 51.1549C50.9092 51.0672 50.9309 50.9786 50.981 50.9059Z" fill="#8F8F8F"/>
<path opacity="0.5" d="M35.194 43.2291V34.2002C35.194 34.1102 35.194 34.0212 35.194 33.9322C35.202 33.6642 35.204 33.666 35.454 33.584C35.9951 33.3637 36.5593 33.2049 37.136 33.1109C37.9032 32.9828 38.6911 33.0827 39.4021 33.398C40.1131 33.7133 40.7159 34.2302 41.136 34.8848C41.5705 35.5842 41.8836 36.352 42.062 37.1558C42.3145 38.2258 42.4715 39.3164 42.531 40.4141C42.617 41.6501 42.624 42.8871 42.59 44.1241C42.5737 45.6797 42.3743 47.2278 41.996 48.7369C41.832 49.3795 41.5973 50.002 41.296 50.5928C41.0742 51.0245 40.7972 51.4259 40.472 51.7862C39.7443 52.5881 38.7311 53.0721 37.65 53.1348C36.9579 53.198 36.2601 53.1324 35.592 52.941C35.205 52.826 35.192 52.8099 35.192 52.4029C35.1927 49.3456 35.1933 46.2877 35.194 43.2291Z" fill="#4F4F4F"/>
</g>
</svg>
