<svg width="187" height="56" viewBox="0 0 187 56" fill="none" xmlns="http://www.w3.org/2000/svg">
<g opacity="0.5">
<path opacity="0.5" d="M0.93198 28.4102C0.857807 22.2618 2.86141 16.2681 6.61832 11.4004C10.3752 6.53279 15.6654 3.07598 21.632 1.58989C29.174 -0.204108 36.621 0.483923 43.432 4.79692C44.916 5.73692 45.352 6.57829 44.706 8.32329C38.242 25.8003 26.243 37.651 8.68399 44.001C6.832 44.67 5.86399 44.3262 4.90299 42.6612C2.33387 38.3492 0.962958 33.4294 0.93198 28.4102Z" fill="#4F4F4F"/>
<path opacity="0.5" d="M7.422 46.0879C14.61 43.6059 21.665 42.3878 28.61 40.7578C32.0813 40.0491 35.4892 39.0592 38.8 37.7979C47.592 34.1539 53.02 28.1682 52.643 18.1152C52.6642 17.5972 52.7241 17.0809 52.822 16.5718C56.007 18.8098 57.334 27.1158 55.808 34.4038C54.6392 39.6806 51.9309 44.492 48.026 48.2285C44.1211 51.9651 39.1951 54.4589 33.872 55.394C23.58 57.223 14.8 54.1929 7.422 46.0879Z" fill="#727272"/>
<path opacity="0.5" d="M151.019 21.7422C149.627 19.3377 147.494 17.4485 144.938 16.3579C142.383 15.2673 139.543 15.0335 136.844 15.6919C134.238 16.2778 131.888 17.6822 130.137 19.6997C128.386 21.7172 127.327 24.242 127.114 26.9048C126.561 33.7418 126.944 40.6051 126.85 47.4521C126.825 48.9171 127.24 49.7788 128.95 49.7978C130.679 49.8168 131.421 49.1978 131.377 47.4458C131.308 44.5648 131.358 41.679 131.358 38.27C132.958 39.113 133.843 39.6348 134.773 40.0698C137.226 41.2692 140.003 41.6335 142.682 41.1064C145.361 40.5794 147.794 39.19 149.609 37.1509C151.406 35.0421 152.506 32.4288 152.758 29.6699C153.011 26.911 152.403 24.1421 151.019 21.7422ZM140.07 37.0308C138.949 37.0796 137.829 36.8971 136.781 36.4946C135.733 36.0922 134.779 35.4784 133.979 34.6914C133.178 33.9044 132.548 32.9613 132.128 31.9204C131.708 30.8795 131.506 29.7633 131.536 28.6411C131.504 23.7991 135.177 19.7928 139.705 19.7358C144.334 19.6788 147.988 23.4972 148.005 28.4282C148.022 33.3592 144.673 36.9998 140.07 37.0308Z" fill="#535353"/>
<path opacity="0.5" d="M92.367 21.805C90.9593 19.3523 88.7853 17.4293 86.179 16.3318C83.5727 15.2343 80.6782 15.0229 77.94 15.7298C72.411 17.0438 68.701 21.6977 68.406 27.6917C68.883 33.6597 68.519 39.6407 68.606 45.6087C68.669 49.5337 68.618 49.534 72.574 48.909C72.974 45.494 72.274 42.0039 73.002 38.4939C80.618 42.3869 86.36 41.9936 90.643 37.4436C92.5156 35.3369 93.6872 32.7004 93.9961 29.8987C94.3049 27.097 93.7357 24.269 92.367 21.805ZM81.167 37.0305C80.0444 37.0377 78.9317 36.82 77.8948 36.3899C76.8578 35.9598 75.9176 35.3263 75.1296 34.5266C74.3417 33.727 73.722 32.7774 73.3073 31.7342C72.8926 30.6909 72.6912 29.5753 72.715 28.4529C72.778 23.6979 76.658 19.6976 81.173 19.7356C83.4366 19.8391 85.569 20.8284 87.1102 22.4895C88.6515 24.1507 89.4781 26.3509 89.412 28.616C89.4384 29.7135 89.2447 30.805 88.8422 31.8264C88.4396 32.8479 87.8365 33.7783 87.0684 34.5628C86.3003 35.3472 85.3828 35.9699 84.3701 36.3938C83.3573 36.8177 82.2699 37.0339 81.172 37.0305H81.167Z" fill="#525252"/>
<path opacity="0.5" d="M123.152 26.7232C122.171 19.8742 116.322 14.8183 109.763 15.3233C102.687 15.8703 97.706 21.2792 97.725 30.2232C97.845 33.7232 100.084 37.8581 105.04 40.0841C110.134 42.3841 115.008 41.5942 119.385 38.1222C120.127 37.5312 121.46 36.852 120.737 35.669C120.376 35.1536 119.893 34.7358 119.331 34.4527C118.769 34.1697 118.146 34.0301 117.517 34.047C116.832 34.053 116.14 34.8642 115.467 35.3302C111.297 38.2412 106.335 37.4553 103.58 33.4933C102.492 31.9343 102.68 31.0591 104.687 30.7931C106.972 30.5769 109.275 30.651 111.542 31.0133C114.863 31.4424 118.238 31.0248 121.354 29.7999C121.679 29.7246 121.985 29.5837 122.254 29.3858C122.523 29.1879 122.748 28.9376 122.917 28.6495C123.085 28.3614 123.193 28.0418 123.233 27.7105C123.274 27.3793 123.246 27.0434 123.152 26.7232ZM117.335 26.585C115.911 26.9001 114.453 27.0344 112.995 26.985C109.826 26.935 106.656 26.017 103.467 26.985C102.241 27.356 102.084 26.6022 102.329 25.5772C103.029 22.6142 106.929 19.7341 110.392 19.6651C113.473 19.6081 117.498 22.2653 118.341 24.8473C118.681 25.8933 118.391 26.327 117.335 26.585Z" fill="#525252"/>
<path opacity="0.5" d="M166.428 41.3807C163.261 41.4264 160.166 40.4322 157.618 38.5506C156.846 37.9506 155.053 37.4579 156.331 36.0409C157.316 34.9509 158.446 33.2967 160.458 35.0257C161.336 35.776 162.361 36.3359 163.466 36.6703C164.572 37.0047 165.735 37.1067 166.882 36.9691C168.828 36.7771 170.841 36.3118 171.127 34.0458C171.44 31.5598 169.4 31.091 167.484 30.663C165.15 30.142 162.742 29.887 160.57 28.7631C155.741 26.258 155.221 20.6088 159.527 17.2958C163.19 14.4788 170.437 14.7307 173.937 17.7587C174.649 18.3747 175.21 18.959 174.355 19.787C173.422 20.695 172.56 22.0977 170.955 21.0297C169.134 19.7648 166.893 19.2587 164.705 19.618C163.055 19.876 161.562 20.6178 161.315 22.3788C161.044 24.3088 162.649 25.0937 164.158 25.5697C165.942 26.1317 167.808 26.429 169.632 26.87C173.896 27.897 176.109 30.2407 176.122 33.7157C176.135 37.2157 173.643 39.9347 169.483 40.8827C168.367 41.1317 167.222 41.2527 166.428 41.3807Z" fill="#525252"/>
<path opacity="0.5" d="M185.4 40.1232C181.771 41.4052 181.094 41.014 181.1 37.507C181.113 30.682 181.167 23.8583 181.2 17.0333C185.162 16.4063 185.118 16.4071 185.176 20.3331C185.28 26.9271 184.889 33.5302 185.4 40.1232Z" fill="#525252"/>
<path opacity="0.5" d="M183.451 13.7996C181.762 13.5446 180.501 12.7349 180.464 10.8709C180.431 10.4777 180.484 10.0818 180.62 9.71126C180.756 9.34074 180.971 9.00441 181.251 8.72591C181.531 8.44741 181.868 8.23337 182.239 8.09896C182.61 7.96454 183.006 7.91328 183.399 7.94808C183.766 7.91728 184.135 7.96423 184.482 8.08626C184.83 8.20829 185.147 8.4026 185.414 8.65608C185.681 8.90957 185.892 9.21641 186.032 9.55696C186.171 9.89751 186.238 10.2637 186.226 10.6317C186.329 12.5197 185.229 13.4426 183.451 13.7996Z" fill="#555555"/>
<path opacity="0.5" d="M185.4 40.1233C184.274 36.3533 185.054 32.4934 184.882 28.6794C184.746 25.9811 184.749 23.2774 184.889 20.5793C185.047 17.8263 183.858 16.744 181.205 17.029C184.623 15.441 185.56 15.9062 185.549 19.2942C185.526 26.2402 185.452 33.1813 185.4 40.1233Z" fill="#434343"/>
<path opacity="0.5" d="M68.4 27.6938C69.552 33.4488 68.763 39.2639 68.871 45.0479C68.92 47.7379 69.58 49.2862 72.571 48.9092C69.271 50.5952 68.217 50.0838 68.229 46.6958C68.257 40.3618 68.343 34.0278 68.4 27.6938Z" fill="#444444"/>
</g>
</svg>
