<svg width="38" height="38" viewBox="0 0 38 38" fill="none" xmlns="http://www.w3.org/2000/svg">
<path d="M19.318 0.351075C15.6616 0.350283 12.0871 1.4338 9.04654 3.46463C6.00599 5.49546 3.63597 8.38239 2.23622 11.7603C0.836477 15.1381 0.469886 18.8552 1.1828 22.4414C1.89572 26.0276 3.65612 29.3219 6.24137 31.9076C8.82663 34.4933 12.1206 36.2542 15.7067 36.9677C19.2928 37.6812 23.01 37.3152 26.3881 35.916C29.7662 34.5168 32.6534 32.1472 34.6848 29.107C36.7161 26.0668 37.8002 22.4925 37.8 18.8361C37.7945 13.9358 35.8456 9.23772 32.3808 5.7724C28.916 2.30708 24.2183 0.357427 19.318 0.351075ZM34.588 26.0001H28.6C29.0612 23.9112 29.3151 21.7818 29.358 19.6431H36.17C36.0661 21.8455 35.5285 24.0058 34.588 26.0001ZM2.46801 19.6431H9.28001C9.32321 21.7819 9.57745 23.9112 10.039 26.0001H4.04801C3.10788 24.0061 2.57093 21.8461 2.46801 19.644V19.6431ZM4.04801 11.67H10.039C9.57745 13.7589 9.32321 15.8882 9.28001 18.027H2.46801C2.57107 15.825 3.108 13.6651 4.04801 11.6711V11.67ZM20.126 10.0541V2.04507C21.983 2.41208 23.737 4.03605 25.134 6.71005C25.6872 7.78168 26.1431 8.90087 26.496 10.0541H20.126ZM26.939 11.67C27.427 13.7553 27.6951 15.8859 27.739 18.027H20.126V11.67H26.939ZM18.51 2.04507V10.0541H12.139C12.492 8.90087 12.9478 7.78168 13.501 6.71005C14.9 4.03705 16.653 2.41305 18.51 2.04605V2.04507ZM18.51 11.67V18.027H10.9C10.9434 15.8859 11.2116 13.7552 11.7 11.67H18.51ZM10.9 19.644H18.51V26.0001H11.7C11.2116 23.9152 10.9435 21.7849 10.9 19.644ZM18.513 27.6171V35.626C16.656 35.259 14.901 33.636 13.504 30.962C12.9508 29.8901 12.4949 28.7706 12.142 27.6171H18.513ZM20.129 35.626V27.6171H26.5C26.1471 28.7706 25.6912 29.8901 25.138 30.962C23.737 33.636 21.983 35.259 20.126 35.626H20.129ZM20.129 26.001V19.644H27.742C27.6981 21.7852 27.43 23.9158 26.942 26.001H20.129ZM29.358 18.0281C29.3151 15.8893 29.0612 13.76 28.6 11.6711H34.591C35.5304 13.6656 36.067 15.8258 36.17 18.0281H29.358ZM33.719 10.0551H28.182C27.7804 8.64064 27.2395 7.2696 26.567 5.96207C25.9662 4.77723 25.1999 3.68393 24.291 2.71506C28.2194 3.93663 31.5694 6.5455 33.716 10.0551H33.719ZM14.348 2.71506C13.4391 3.68393 12.6728 4.77723 12.072 5.96207C11.3991 7.26941 10.8581 8.64049 10.457 10.0551H4.91901C7.066 6.54544 10.4163 3.93658 14.345 2.71506H14.348ZM4.92201 27.6151H10.457C10.8581 29.0296 11.3991 30.4007 12.072 31.7081C12.6723 32.8932 13.4387 33.9865 14.348 34.9551C10.4185 33.7347 7.0671 31.1265 4.91901 27.6171L4.92201 27.6151ZM24.294 34.9551C25.2033 33.9865 25.9697 32.8932 26.57 31.7081C27.2425 30.4005 27.7834 29.0295 28.185 27.6151H33.719C31.572 31.1259 28.2209 33.7356 24.291 34.957L24.294 34.9551Z" fill="#47ABD8"/>
</svg>
