<svg width="210" height="66" viewBox="0 0 210 66" fill="none" xmlns="http://www.w3.org/2000/svg">
<g opacity="0.5">
<path opacity="0.5" d="M57.1 63.9419C56.9925 64.4214 56.7131 64.8452 56.3146 65.1328C55.9161 65.4204 55.426 65.552 54.937 65.5029C43.2577 65.4889 31.5787 65.4928 19.9 65.5142C19.6348 65.5492 19.365 65.5163 19.1158 65.4189C18.8667 65.3215 18.6461 65.1627 18.475 64.957C19.052 63.584 20.3149 63.7239 21.4449 63.6929C24.5629 63.6069 27.684 63.7091 30.803 63.6411C33.376 63.5851 33.677 63.0412 32.546 60.8062C31.303 58.3522 29.732 56.08 28.496 53.627C27.936 52.515 26.889 51.3718 28.038 50.0078L48.375 50.0698C50.532 51.2268 51.5179 53.3199 52.6219 55.3179C54.1859 58.1549 56.284 60.7199 57.1 63.9419Z" fill="#575757"/>
<path opacity="0.5" d="M17.235 32.0059C20.848 37.7369 24.2979 43.561 27.4709 49.545C27.4019 50.0373 27.1477 50.4847 26.76 50.796C26.3724 51.1072 25.8806 51.2592 25.385 51.2203C20.341 51.2963 15.274 51.9469 10.274 50.7139C6.77405 44.9029 2.99595 39.2442 0.194946 33.0372C0.457469 32.5784 0.830876 32.1928 1.28088 31.9156C1.73089 31.6384 2.24319 31.4784 2.771 31.4503C7.6 31.2113 12.465 30.5649 17.235 32.0059Z" fill="#575757"/>
<path opacity="0.5" d="M18.412 1.13496C19.4509 0.611302 20.625 0.417966 21.777 0.580274C32.364 0.580274 42.951 0.623977 53.537 0.550977C55.628 0.535977 57.0369 1.09903 58.0699 3.00703C60.6429 7.74303 63.377 12.3914 66.046 17.0754C65.4816 17.505 64.797 17.7472 64.088 17.7683C59.596 17.9143 55.104 17.9081 50.611 17.7751C49.626 17.7451 48.7901 17.1954 47.8361 17.0754C45.4361 16.1444 42.936 16.614 40.48 16.569C36.149 16.49 31.815 16.5341 27.48 16.5261C27.38 14.5391 28.967 14.8331 30.08 14.7741C33.452 14.5941 36.832 14.7382 40.209 14.6882C43.644 14.6382 44.131 13.8514 42.484 10.9694C41.384 9.05044 40.259 7.14906 39.152 5.23506C38.6741 4.32802 37.9435 3.57898 37.0486 3.07881C36.1537 2.57864 35.1329 2.34893 34.11 2.41719C30.3767 2.45519 26.6434 2.4524 22.91 2.4084C21.305 2.55337 19.703 2.09955 18.412 1.13496Z" fill="#EAEAEA"/>
<path opacity="0.5" d="M47.8361 17.0762C49.6851 16.1282 51.684 16.5132 53.6 16.5762C57.749 16.7092 61.938 15.9762 66.046 17.0762C68.748 21.7129 71.4507 26.3489 74.1541 30.9849C74.7311 31.9729 75.479 32.9228 74.679 34.1328C69.901 35.4508 65.0371 34.795 60.201 34.749C59.2392 34.5997 58.3287 34.216 57.55 33.6319L47.8361 17.0762Z" fill="#D6D6D6"/>
<path opacity="0.5" d="M18.412 1.13484C24.097 1.12584 29.784 1.1919 35.468 1.0699C36.3849 0.968949 37.3096 1.16986 38.1019 1.64216C38.8942 2.11447 39.5108 2.83257 39.858 3.68709C41.428 6.74709 43.358 9.6211 45.048 12.6241C46.916 15.9491 46.855 16.0082 43.124 16.0162C39.037 16.0252 34.951 16.016 30.864 16.022C29.7126 15.8828 28.5449 16.0555 27.483 16.522C22.456 16.535 17.4301 16.5779 12.4041 16.5299C11.6151 16.5219 10.304 17.093 10.27 15.442C13.824 14.22 17.506 14.8352 21.134 14.7012C24.119 14.5912 24.4341 14.028 22.9561 11.379C22.0041 9.67298 21.093 7.93685 19.999 6.32185C19.0382 4.94313 18.4806 3.32408 18.389 1.64607C18.3904 1.4774 18.398 1.30684 18.412 1.13484Z" fill="#D6D6D6"/>
<path opacity="0.5" d="M97.66 46.8911C94.5388 47.0515 91.4374 46.3091 88.727 44.7529C87.603 44.1209 87.227 43.5529 87.936 42.2529C89.782 38.8639 89.7111 38.8318 93.3101 40.4858C94.573 41.1701 96.0054 41.4784 97.438 41.374C97.9324 41.385 98.4176 41.2391 98.8238 40.957C99.2301 40.6749 99.5365 40.2713 99.699 39.8042C99.8849 39.2941 99.8804 38.734 99.6862 38.227C99.4919 37.7201 99.1211 37.3002 98.642 37.0449C97.265 36.2329 95.82 35.533 94.381 34.832C90.468 32.926 88.952 30.4011 89.639 26.8701C90.253 23.7121 93.259 21.233 96.947 20.833C98.7307 20.6849 100.526 20.9 102.224 21.4658C106.146 22.6448 106.424 23.725 103.869 26.999C103.206 27.849 102.725 27.5072 102.085 27.1992C100.747 26.465 99.2229 26.1373 97.701 26.2568C96.701 26.3798 95.752 26.733 95.52 27.896C95.279 29.102 96.074 29.667 97.02 30.103C98.636 30.851 100.296 31.5171 101.866 32.3501C105.719 34.3951 106.974 36.741 106.358 40.5C105.814 43.817 103.212 46.134 99.296 46.748C98.7538 46.826 98.2076 46.8738 97.66 46.8911Z" fill="#464646"/>
<path opacity="0.5" d="M10.274 50.7139C11.553 49.8269 13.021 50.1489 14.428 50.0659C18.773 49.8099 23.1609 50.6479 27.4709 49.5449L28.036 50.0078C30.443 54.2408 32.78 58.517 35.292 62.689C36.392 64.517 35.923 64.9842 33.983 64.9702C28.813 64.9302 23.643 64.956 18.473 64.957L10.274 50.7139Z" fill="#464646"/>
<path opacity="0.5" d="M208.928 31.9369C207.339 33.5699 205.84 35.303 204.134 36.805C202.704 38.064 202.466 38.905 204.097 40.243C205.854 41.82 207.53 43.4852 209.118 45.2328C207.186 46.8148 204.998 45.933 202.896 45.87L197.732 41.391C197.488 41.6878 197.322 42.0411 197.251 42.4188C197.179 42.7965 197.204 43.1861 197.323 43.5516C197.702 45.9596 196.674 46.5247 194.37 46.4857C192.218 46.4487 191.422 45.9458 191.47 43.6708C191.609 36.6778 191.635 29.6779 191.463 22.6859C191.398 20.0559 192.804 20.2429 194.61 20.1629C196.615 20.0749 197.444 20.563 197.347 22.763C197.164 26.911 197.294 31.0739 197.294 35.4989C199.844 34.4749 200.871 31.879 203.159 30.953C204.368 31.426 205.628 31.0671 206.859 31.1781C207.617 31.2451 208.517 30.9289 208.928 31.9369Z" fill="#474747"/>
<path opacity="0.5" d="M153.594 31.9457C155.376 30.8872 157.422 30.3578 159.494 30.4189C160.57 30.3168 161.648 30.5859 162.549 31.1816C163.45 31.7772 164.12 32.6634 164.448 33.6928C165.565 37.8037 165.599 42.134 164.548 46.2621C160.029 45.7621 160.039 45.7617 160.022 40.9257C160.082 39.8135 160.08 38.6989 160.016 37.5869C159.869 40.0869 160.333 43.1569 159.769 46.2119C158.887 43.6459 159.483 41.0009 159.385 38.3959C159.311 36.4189 158.934 34.7749 156.569 34.7519C154.225 34.7299 153.727 36.3451 153.648 38.3281C153.548 40.9491 154.033 43.5958 153.333 46.1918C152.733 44.8298 153.256 43.3971 153.067 42.2221C153.067 42.4731 153.067 42.9368 153.067 43.4008C153.054 45.8298 151.229 46.979 148.942 46.041C148.161 45.721 148.254 45.101 148.253 44.499C148.245 37.061 148.295 29.623 148.216 22.186C148.196 20.332 149.29 20.4679 150.468 20.5439C151.684 20.6219 153.277 19.9809 153.345 22.2099C153.445 25.4549 153.011 28.7147 153.594 31.9457Z" fill="#464646"/>
<path opacity="0.5" d="M174.736 30.9712C175.852 33.4892 174.988 36.1398 175.252 38.7158C175.389 40.0488 175.387 41.4078 176.915 42.0288C177.354 42.2561 177.844 42.3664 178.338 42.3486C178.832 42.3309 179.313 42.1859 179.734 41.9277C180.156 41.6695 180.503 41.307 180.744 40.875C180.984 40.443 181.108 39.9562 181.105 39.4619C181.292 37.4489 181.147 35.4078 181.237 33.3828C181.274 32.5628 180.828 31.6038 181.737 30.9438C181.97 31.0641 182.223 31.1404 182.484 31.1689C186.54 31.3689 186.535 31.3758 186.544 35.3008C186.549 37.5574 186.528 39.8132 186.481 42.0679C186.422 42.4986 186.317 42.9219 186.168 43.3301C184.699 46.3501 180.968 47.5472 175.568 46.7642C171.993 46.2472 170.406 44.8029 169.882 41.5879C170.028 39.0629 170.037 36.5318 169.907 34.0059C169.821 31.9299 170.354 30.8218 172.671 31.1558C173.362 31.3082 174.083 31.244 174.736 30.9712Z" fill="#464646"/>
<path opacity="0.5" d="M130.834 38.6571C130.95 33.4901 133.396 31.1069 138.583 30.7929C139.789 30.7199 140.972 30.1328 142.183 30.6928C143.05 31.0928 144.683 30.9677 144.107 32.5707C143.665 33.8017 143.601 35.7411 141.193 35.0121C140.416 34.755 139.573 34.7842 138.816 35.0951C138.059 35.4061 137.439 35.978 137.067 36.707C136.687 37.3381 136.506 38.0696 136.549 38.8051C136.592 39.5406 136.856 40.2456 137.306 40.8285C137.757 41.4114 138.373 41.8445 139.074 42.0712C139.775 42.2979 140.528 42.3078 141.235 42.099C143.645 41.455 143.668 43.4908 144.111 44.6708C144.683 46.1918 143.096 46.2617 142.165 46.5287C136.258 48.2317 130.707 44.3521 130.834 38.6571Z" fill="#474747"/>
<path opacity="0.5" d="M57.55 33.6309C62.41 33.6116 67.27 33.5935 72.13 33.5762C73.0164 33.4989 73.9053 33.6924 74.679 34.1319C72.272 38.2759 69.84 42.4048 67.472 46.5708C66.555 48.1828 65.9459 48.1928 65.0179 46.5308C62.5999 42.1938 60.048 37.9259 57.55 33.6309Z" fill="#ACACAC"/>
<path opacity="0.5" d="M17.235 32.0059C13.42 33.0499 9.52595 32.2839 5.67395 32.5059C3.83895 32.6119 1.96295 32.2591 0.194946 33.0371C2.72795 27.9071 5.85402 23.1242 9.02502 17.6372L17.235 32.0059Z" fill="#656565"/>
<path opacity="0.5" d="M18.389 1.65088C21.648 5.52388 23.599 10.2001 26.307 14.4131C26.779 15.1481 26.514 15.9369 25.566 15.9199C20.466 15.8289 15.333 16.7018 10.266 15.4468C12.974 10.8481 15.6817 6.24955 18.389 1.65088Z" fill="#ACACAC"/>
<path opacity="0.5" d="M57.1 63.9419C56.6 63.5949 55.915 63.3578 55.637 62.8828C53.159 58.6448 50.294 54.6199 48.375 50.0699C53.268 50.0269 58.161 50.0022 63.053 49.9302C64.618 49.9062 65.29 50.3038 64.334 51.8848C61.908 55.8998 59.508 59.9219 57.1 63.9419Z" fill="#656565"/>
<path opacity="0.5" d="M121.758 46.2881C121.081 46.0601 121.173 45.4668 121.174 44.9658C121.195 36.9091 121.224 28.8522 121.263 20.7949C126.486 19.9539 126.563 20.0132 126.563 25.0952C126.563 30.9318 126.563 36.768 126.563 42.604C126.563 45.992 126.552 45.9931 123.063 46.0791C122.618 46.0453 122.171 46.1168 121.758 46.2881Z" fill="#464646"/>
<path opacity="0.5" d="M153.594 31.9459C152.476 30.7649 152.853 29.2859 152.809 27.9039C152.757 26.2269 152.79 24.5482 152.77 22.8702C152.754 21.4392 151.992 20.8099 150.57 20.8389C149.27 20.8659 148.559 21.481 148.556 22.774C148.54 29.752 148.535 36.7304 148.542 43.709C148.542 45.124 149.27 45.7889 150.706 45.7759C152.184 45.7619 152.774 44.976 152.775 43.608C152.685 41.741 152.873 39.8712 153.331 38.0591V46.192C147.923 46.871 147.923 46.8711 147.923 41.5601C147.923 35.2081 148.031 28.8539 147.868 22.5059C147.809 20.2429 148.876 20.0901 150.584 20.2061C152.114 20.3061 153.867 19.7473 153.693 22.4283C153.491 25.5863 153.613 28.7709 153.594 31.9459Z" fill="#434343"/>
<path opacity="0.5" d="M113.159 20.97C113.616 20.9549 114.071 21.037 114.494 21.2112C114.917 21.3855 115.298 21.6479 115.612 21.9808C115.925 22.3136 116.165 22.7095 116.314 23.1419C116.463 23.5743 116.518 24.0331 116.476 24.4886C116.31 26.5146 115 27.4376 113.11 27.4886C112.668 27.4849 112.232 27.3894 111.829 27.2078C111.427 27.0262 111.066 26.7625 110.771 26.4339C110.476 26.1053 110.252 25.7189 110.115 25.2991C109.977 24.8793 109.929 24.4355 109.972 23.9959C110.138 21.9629 111.466 21.161 113.159 20.97Z" fill="#494949"/>
<path opacity="0.5" d="M121.758 46.2881C122.429 46.0684 123.119 45.9144 123.819 45.8281C125.419 45.7791 126.019 44.9619 126.019 43.4649C126.006 36.7359 125.994 30.0068 126.031 23.2778C126.042 21.4358 125.17 20.7142 123.405 20.8042C122.695 20.8402 121.98 20.8039 121.267 20.7949C122.772 19.6669 124.482 20.295 126.089 20.332C127.037 20.352 126.871 21.376 126.872 22.042C126.89 29.569 126.861 37.097 126.902 44.624C126.91 46.052 126.293 46.503 124.963 46.396C123.9 46.311 122.825 46.3211 121.758 46.2881Z" fill="#3B3B3B"/>
<path opacity="0.5" d="M186.477 42.0681C185.677 40.3961 186.037 38.6131 186.019 36.8791C185.971 32.2271 186.002 32.226 181.733 30.944C186.883 30.565 186.921 30.5661 186.866 35.4841C186.841 37.6801 187.21 39.9091 186.477 42.0681Z" fill="#3A3A3A"/>
<path opacity="0.5" d="M174.736 30.971C174.254 31.1883 173.742 31.3293 173.217 31.389C170.888 31.278 170.464 32.5739 170.43 34.5579C170.39 36.9019 171.005 39.3237 169.874 41.5877C169.205 38.4727 169.674 35.3218 169.574 32.1878C169.539 31.1618 170.114 30.7969 171.058 30.8319C172.283 30.8772 173.509 30.9237 174.736 30.971Z" fill="#3A3A3A"/>
<path opacity="0.5" d="M111.027 46.2909C109.994 45.7039 110.491 44.7138 110.476 43.9208C110.412 40.5768 110.645 37.2151 110.387 33.8891C110.179 31.2021 111.222 30.3891 113.66 30.8461C114.427 30.9891 115.471 30.234 115.931 31.475C115.71 31.653 115.485 31.8247 115.254 31.9887C113.006 32.9727 112.354 34.7551 112.311 37.0951C112.257 39.9541 112.949 42.9021 111.596 45.6601C111.423 45.8848 111.233 46.0956 111.027 46.2909Z" fill="#343434"/>
<path opacity="0.5" d="M111.027 46.291C111.027 46.128 111.035 45.9648 111.038 45.8018C113.559 44.0588 114.087 41.6021 114.06 38.6841C114.039 36.2561 113.117 33.5482 115.305 31.4512L115.931 31.4751C115.978 35.6751 115.954 39.8748 116.104 44.0698C116.171 45.9358 115.478 46.6199 113.663 46.3999C112.793 46.2949 111.906 46.323 111.027 46.291Z" fill="#3B3B3B"/>
<path opacity="0.5" d="M159.77 46.2119V38.084L160.298 38.0581C160.298 39.5221 160.384 40.9908 160.279 42.4468C160.119 44.6598 160.739 46.0471 163.295 45.8901C163.731 45.9419 164.155 46.0678 164.549 46.2622C162.962 46.4832 161.352 46.4661 159.77 46.2119Z" fill="#3B3B3B"/>
<path opacity="0.5" d="M208.928 31.9372C207.109 31.0012 204.968 31.9303 203.156 30.9523C204.993 30.9093 206.831 30.819 208.667 30.84C209.927 30.855 209.833 31.3362 208.928 31.9372Z" fill="#3B3B3B"/>
<path opacity="0.5" d="M202.9 45.8701C204.976 45.6781 207.12 46.1389 209.122 45.2329C209.499 45.5489 210.522 46.1628 209.315 46.2578C207.195 46.4238 204.969 46.9231 202.9 45.8701Z" fill="#3D3D3D"/>
<path opacity="0.5" d="M115.305 31.4512C115.305 34.8118 115.307 38.1732 115.312 41.5352C115.312 45.7992 115.306 45.7988 111.038 45.8018C111.038 42.4398 111.035 39.0778 111.03 35.7158C111.034 31.4528 111.037 31.4532 115.305 31.4512Z" fill="#464646"/>
</g>
</svg>
