<svg width="33" height="38" viewBox="0 0 33 38" fill="none" xmlns="http://www.w3.org/2000/svg">
<path d="M16.056 37.4001C13.997 37.4001 8.58897 34.7001 4.80297 30.4711C3.14842 28.7531 1.88449 26.698 1.09764 24.4463C0.310794 22.1947 0.0195993 19.7997 0.243974 17.4251C0.927974 11.2661 1.22697 8.49207 1.35697 7.25007C1.39426 6.87262 1.5367 6.51321 1.7681 6.21269C1.9995 5.91217 2.31058 5.68258 2.66597 5.55006L15.909 0.555067C16.3852 0.374064 16.9122 0.37907 17.385 0.569075L29.826 5.53807C30.1814 5.67824 30.4899 5.91612 30.7159 6.2242C30.9418 6.53227 31.076 6.89796 31.103 7.27907C31.191 8.44607 31.431 11.3791 32.047 17.8991V17.9101C32.2259 20.2703 31.9019 22.6415 31.0964 24.8672C30.2908 27.0929 29.0221 29.1222 27.374 30.8211C23.337 35.2001 17.942 37.4001 16.056 37.4001ZM16.629 2.04509C16.5781 2.04512 16.5276 2.05424 16.48 2.07207L3.23597 7.06706C3.16249 7.09436 3.09814 7.14173 3.05023 7.20378C3.00233 7.26583 2.97278 7.34008 2.96497 7.41807C2.83397 8.66307 2.53497 11.4401 1.85097 17.6031C1.6644 19.7509 1.93866 21.9137 2.65539 23.947C3.37212 25.9803 4.5148 27.837 6.00698 29.3931C9.78098 33.6091 14.761 35.7831 16.056 35.7831C17.308 35.7831 22.32 33.9221 26.187 29.7301C27.6913 28.2017 28.8495 26.3677 29.5828 24.3525C30.3161 22.3372 30.6074 20.1878 30.437 18.0501C29.82 11.5211 29.58 8.57807 29.492 7.40507C29.4864 7.32603 29.4585 7.2502 29.4116 7.18632C29.3647 7.12244 29.3007 7.07313 29.227 7.04408L16.786 2.07509C16.736 2.05525 16.6827 2.04507 16.629 2.04509Z" fill="#47ABD8"/>
<path d="M22.306 27.7221C22.1352 27.722 21.9689 27.6678 21.831 27.5671L16.125 23.4142L10.42 27.5551C10.2821 27.6547 10.1164 27.7082 9.94641 27.7081C9.77641 27.708 9.61077 27.6542 9.47307 27.5545C9.33538 27.4548 9.23263 27.3142 9.17947 27.1528C9.1263 26.9913 9.12542 26.8172 9.17695 26.6552L11.355 19.9821L5.65495 15.8691C5.51648 15.7691 5.41327 15.6278 5.36014 15.4655C5.30702 15.3031 5.3067 15.1281 5.35925 14.9656C5.4118 14.803 5.51451 14.6614 5.65262 14.5609C5.79073 14.4603 5.95714 14.4062 6.12795 14.4062H13.18L15.359 7.69916C15.4114 7.53647 15.5141 7.3946 15.6523 7.29398C15.7905 7.19335 15.957 7.13916 16.128 7.13916C16.2989 7.13916 16.4654 7.19335 16.6036 7.29398C16.7418 7.3946 16.8445 7.53647 16.897 7.69916L19.0759 14.4062H26.128C26.2988 14.4062 26.4652 14.4603 26.6033 14.5609C26.7414 14.6614 26.8441 14.803 26.8967 14.9656C26.9492 15.1281 26.9489 15.3031 26.8958 15.4655C26.8426 15.6278 26.7394 15.7691 26.601 15.8691L20.901 19.9811L23.079 26.6682C23.1182 26.7895 23.1282 26.9185 23.1081 27.0444C23.0881 27.1704 23.0386 27.2899 22.9636 27.3931C22.8886 27.4963 22.7904 27.5804 22.6768 27.6384C22.5632 27.6965 22.4375 27.7269 22.3099 27.7271L22.306 27.7221ZM16.126 21.6061C16.297 21.6063 16.4636 21.6605 16.602 21.7611L20.766 24.7921L19.177 19.9152C19.1244 19.7518 19.1252 19.5761 19.1791 19.4132C19.233 19.2504 19.3373 19.1089 19.477 19.0092L23.628 16.0172H18.487C18.3163 16.0171 18.15 15.9632 18.0119 15.8629C17.8738 15.7627 17.7709 15.6214 17.718 15.4592L16.126 10.5591L14.5339 15.4592C14.481 15.6214 14.3781 15.7627 14.24 15.8629C14.1019 15.9632 13.9356 16.0171 13.765 16.0172H8.62695L12.779 19.0121C12.9187 19.1117 13.0231 19.2532 13.077 19.4161C13.1309 19.579 13.1316 19.7548 13.079 19.9182L11.49 24.7841L15.655 21.7611C15.7918 21.6613 15.9566 21.6071 16.126 21.6061Z" fill="#47ABD8"/>
</svg>
