<svg width="38" height="23" viewBox="0 0 38 23" fill="none" xmlns="http://www.w3.org/2000/svg">
<path d="M37.4 21.8122L37.052 20.1602C36.6319 18.1757 35.5445 16.3952 33.971 15.1152C33.771 14.9562 33.571 14.8052 33.362 14.6642C34.3332 13.5365 34.8908 12.1112 34.9427 10.6238C34.9946 9.13644 34.5377 7.67577 33.6474 6.48309C32.7572 5.29041 31.4868 4.43703 30.0461 4.06378C28.6053 3.69054 27.0804 3.81977 25.723 4.43018C25.0087 3.27179 24.0099 2.31548 22.8215 1.65216C21.6332 0.988844 20.2949 0.640625 18.934 0.640625C17.5731 0.640625 16.2348 0.988844 15.0465 1.65216C13.8582 2.31548 12.8593 3.27179 12.145 4.43018C10.7877 3.81975 9.26287 3.69042 7.82218 4.06354C6.38149 4.43666 5.11111 5.2899 4.22077 6.48242C3.33043 7.67494 2.87336 9.13542 2.92504 10.6227C2.97671 12.1101 3.53404 13.5354 4.505 14.6632C4.295 14.8052 4.09 14.9552 3.892 15.1152C2.31817 16.3949 1.2307 18.1756 0.811 20.1602L0.463 21.8122C0.438133 21.9299 0.439875 22.0517 0.468089 22.1686C0.496303 22.2856 0.550283 22.3948 0.626086 22.4882C0.70189 22.5817 0.797602 22.657 0.906238 22.7087C1.01487 22.7605 1.13368 22.7872 1.254 22.7872H36.61C36.7303 22.7871 36.849 22.7602 36.9575 22.7084C37.0661 22.6566 37.1617 22.5812 37.2375 22.4879C37.3132 22.3945 37.3672 22.2854 37.3955 22.1685C37.4238 22.0516 37.4257 21.9299 37.401 21.8122H37.4ZM28.4 5.47119C29.1702 5.46872 29.9303 5.64678 30.6192 5.99109C31.3082 6.33539 31.9069 6.83634 32.3673 7.4538C32.8277 8.07125 33.137 8.788 33.2704 9.54657C33.4038 10.3051 33.3575 11.0844 33.1353 11.8219C32.9132 12.5594 32.5213 13.2345 31.9911 13.7932C31.4609 14.3519 30.8071 14.7785 30.0823 15.0389C29.3574 15.2993 28.5816 15.3862 27.8171 15.2927C27.0526 15.1991 26.3207 14.9277 25.68 14.5002C25.55 14.3822 25.417 14.2662 25.28 14.1552C25.165 14.0612 25.047 13.9722 24.928 13.8842C25.875 12.8082 26.5142 11.4967 26.7782 10.0878C27.0422 8.67899 26.9212 7.22505 26.428 5.87921C27.0501 5.60834 27.7215 5.4694 28.4 5.47119ZM18.932 2.2572C20.1911 2.2572 21.4219 2.63051 22.4688 3.33002C23.5156 4.02952 24.3316 5.02378 24.8134 6.18701C25.2952 7.35025 25.4213 8.63023 25.1757 9.86511C24.9301 11.1 24.3237 12.2343 23.4334 13.1246C22.5431 14.0149 21.4088 14.6212 20.1739 14.8669C18.9391 15.1125 17.6591 14.9864 16.4958 14.5046C15.3326 14.0227 14.3384 13.2069 13.6389 12.16C12.9394 11.1131 12.566 9.88225 12.566 8.62317C12.5681 6.93493 13.2399 5.31653 14.434 4.12305C15.628 2.92956 17.2468 2.25853 18.935 2.2572H18.932ZM9.463 5.47119C10.1413 5.47048 10.8125 5.61044 11.434 5.8822C10.942 7.2274 10.8216 8.68032 11.0856 10.0881C11.3496 11.496 11.9881 12.8066 12.934 13.8822C12.814 13.9702 12.695 14.0602 12.579 14.1552C12.437 14.2702 12.299 14.3902 12.164 14.5132C11.522 14.9352 10.7903 15.2012 10.0272 15.2901C9.26415 15.379 8.49086 15.2882 7.7691 15.0251C7.04734 14.7619 6.3971 14.3336 5.87029 13.7745C5.34348 13.2153 4.95469 12.5408 4.73497 11.8046C4.51525 11.0685 4.47068 10.2912 4.60482 9.53473C4.73896 8.77829 5.0481 8.06371 5.50754 7.448C5.96699 6.83229 6.56401 6.33251 7.25096 5.98859C7.93792 5.64466 8.69576 5.46609 9.464 5.46716L9.463 5.47119ZM2.391 20.4932C2.59895 19.5206 3.00507 18.6014 3.58403 17.7927C4.16298 16.9841 4.90234 16.3035 5.756 15.7932C7.06433 16.6964 8.65743 17.0907 10.236 16.9022C9.68894 17.8355 9.29558 18.8509 9.071 19.9092L8.805 21.1742H2.251L2.391 20.4932ZM10.457 21.1712L10.657 20.2392C11.0189 18.531 11.8994 16.9762 13.178 15.7872C13.4701 15.5851 13.7453 15.3596 14.001 15.1132C14.051 15.0782 14.101 15.0432 14.152 15.0132C15.5315 16.0495 17.2102 16.6098 18.9355 16.6098C20.6609 16.6098 22.3396 16.0495 23.719 15.0132C23.773 15.0512 23.827 15.0882 23.88 15.1272C24.1294 15.3646 24.3968 15.5823 24.68 15.7782C25.9653 16.9689 26.8505 18.5283 27.214 20.2422L27.414 21.1742L10.457 21.1712ZM29.057 21.1712L28.791 19.9062C28.5669 18.8477 28.1735 17.8323 27.626 16.8992C27.8842 16.9297 28.144 16.945 28.404 16.9452C29.7277 16.9468 31.0203 16.5441 32.109 15.7912C32.9623 16.3016 33.7013 16.9824 34.2799 17.791C34.8585 18.5996 35.2643 19.5188 35.472 20.4912L35.615 21.1692L29.057 21.1712Z" fill="#47ABD8"/>
</svg>
