<svg width="67" height="58" viewBox="0 0 67 58" fill="#47ABD8" xmlns="http://www.w3.org/2000/svg">
<path d="M18.9319 49.0771C17.9119 49.0756 16.9305 48.6869 16.186 47.9897C15.4414 47.2926 14.9893 46.3387 14.9209 45.321C13.674 44.9821 12.4759 44.4844 11.3559 43.8401C10.5885 44.5132 9.59387 44.8691 8.57369 44.8358C7.55352 44.8024 6.58423 44.3822 5.86247 43.6605C5.14071 42.9387 4.72054 41.9695 4.68719 40.9493C4.65384 39.9291 5.00981 38.9344 5.68288 38.1671C5.03815 37.0463 4.53975 35.8475 4.19988 34.6C3.18253 34.5318 2.22912 34.0797 1.53265 33.335C0.836192 32.5903 0.44873 31.6087 0.44873 30.5891C0.44873 29.5694 0.836192 28.5879 1.53265 27.8432C2.22912 27.0985 3.18253 26.6463 4.19988 26.5781C4.5391 25.3313 5.03683 24.1332 5.68089 23.0131C5.00781 22.2457 4.65184 21.2511 4.68519 20.2309C4.71854 19.2107 5.13872 18.2414 5.86047 17.5197C6.58223 16.7979 7.55152 16.3777 8.57169 16.3444C9.59187 16.311 10.5865 16.667 11.3539 17.3401C12.4739 16.6958 13.672 16.198 14.9189 15.8591C14.9871 14.8417 15.4393 13.8883 16.184 13.1918C16.9287 12.4954 17.9103 12.1079 18.9299 12.1079C19.9495 12.1079 20.9311 12.4954 21.6758 13.1918C22.4205 13.8883 22.8727 14.8417 22.9409 15.8591C24.1881 16.198 25.3865 16.6958 26.5069 17.3401C27.2739 16.6659 28.2689 16.309 29.2896 16.3421C30.3103 16.3752 31.2801 16.7956 32.0019 17.5181C32.7226 18.2408 33.1418 19.2103 33.1749 20.2305C33.2079 21.2506 32.8523 22.2452 32.1799 23.0131C32.8235 24.1334 33.3212 25.3314 33.6609 26.5781C34.6782 26.6463 35.6317 27.0985 36.3281 27.8432C37.0246 28.5879 37.412 29.5694 37.412 30.5891C37.412 31.6087 37.0246 32.5903 36.3281 33.335C35.6317 34.0797 34.6782 34.5318 33.6609 34.6C33.3211 35.8466 32.8234 37.0446 32.1799 38.165C32.853 38.9324 33.2089 39.9271 33.1756 40.9473C33.1422 41.9674 32.7221 42.9367 32.0003 43.6584C31.2785 44.3802 30.3093 44.8004 29.2891 44.8337C28.2689 44.8671 27.2742 44.5112 26.5069 43.8381C25.3865 44.4823 24.188 44.98 22.9409 45.319C22.8732 46.3368 22.4216 47.291 21.6774 47.9886C20.9332 48.6862 19.9519 49.0753 18.9319 49.0771V49.0771ZM11.2069 42.0001C11.36 41.9999 11.5099 42.0436 11.6389 42.126C12.957 42.964 14.41 43.5675 15.9339 43.91C16.1282 43.9536 16.2996 44.0675 16.4151 44.2297C16.5307 44.392 16.5822 44.5912 16.5599 44.7891C16.5599 44.8301 16.5499 44.8711 16.5439 44.9111C16.5362 44.9601 16.5312 45.0095 16.5289 45.0591C16.5289 45.6965 16.7821 46.3079 17.2329 46.7586C17.6836 47.2093 18.2949 47.4626 18.9324 47.4626C19.5698 47.4626 20.1812 47.2093 20.6319 46.7586C21.0827 46.3079 21.3359 45.6965 21.3359 45.0591C21.3331 45.0092 21.3278 44.9594 21.3199 44.91C21.3199 44.87 21.3089 44.8301 21.3039 44.7891C21.2816 44.591 21.3333 44.3917 21.449 44.2294C21.5647 44.0672 21.7364 43.9534 21.9309 43.91C23.4545 43.5677 24.9073 42.9641 26.2249 42.126C26.3935 42.0193 26.5956 41.9786 26.7924 42.0118C26.9891 42.0451 27.1667 42.1499 27.2909 42.3061C27.3159 42.3371 27.3399 42.3691 27.3639 42.4001C27.3946 42.4425 27.428 42.4829 27.4639 42.5211C27.9148 42.9719 28.5263 43.2252 29.1639 43.2252C29.8015 43.2252 30.413 42.9719 30.8639 42.5211C31.3148 42.0702 31.568 41.4587 31.568 40.821C31.568 40.1834 31.3148 39.5719 30.8639 39.121C30.8389 39.097 30.7919 39.0611 30.7429 39.0211L30.6429 38.949C30.4869 38.8247 30.3822 38.6472 30.349 38.4505C30.3158 38.2538 30.3563 38.0517 30.4629 37.8831C31.3008 36.565 31.9044 35.1119 32.2469 33.5881C32.2909 33.3938 32.405 33.2225 32.5673 33.107C32.7297 32.9915 32.9289 32.9399 33.1269 32.962L33.2469 32.9781C33.2962 32.9858 33.346 32.9908 33.3959 32.993C34.0332 32.993 34.6444 32.7399 35.0951 32.2892C35.5457 31.8386 35.7989 31.2274 35.7989 30.5901C35.7989 29.9528 35.5457 29.3415 35.0951 28.8909C34.6444 28.4402 34.0332 28.1871 33.3959 28.1871C33.3467 28.1894 33.2976 28.1944 33.2489 28.2021L33.1259 28.2181C32.928 28.2402 32.7289 28.1886 32.5668 28.0731C32.4046 27.9576 32.2907 27.7863 32.2469 27.592C31.9053 26.0663 31.3017 24.6115 30.4629 23.2921C30.3562 23.1233 30.3157 22.9211 30.3491 22.7244C30.3826 22.5276 30.4875 22.3501 30.6439 22.2261C30.6749 22.2011 30.7059 22.1781 30.7369 22.1541C30.7869 22.1161 30.8369 22.0801 30.8599 22.0541C31.3108 21.6032 31.564 20.9917 31.564 20.3541C31.564 19.7164 31.3108 19.1049 30.8599 18.6541C30.409 18.2032 29.7975 17.9499 29.1599 17.9499C28.5223 17.9499 27.9108 18.2032 27.4599 18.6541C27.424 18.6922 27.3906 18.7327 27.3599 18.7751C27.3359 18.8061 27.3119 18.8381 27.2869 18.8691C27.1628 19.0255 26.9853 19.1303 26.7884 19.1636C26.5916 19.1968 26.3894 19.156 26.2209 19.0491C24.9033 18.211 23.4505 17.6074 21.9269 17.2651C21.7324 17.2217 21.5608 17.1079 21.445 16.9457C21.3293 16.7834 21.2776 16.5841 21.2999 16.386C21.2999 16.345 21.3109 16.3051 21.3159 16.2651C21.3238 16.2157 21.3291 16.166 21.3319 16.1161C21.3319 15.4786 21.0787 14.8672 20.6279 14.4165C20.1772 13.9658 19.5658 13.7126 18.9284 13.7126C18.2909 13.7126 17.6796 13.9658 17.2289 14.4165C16.7781 14.8672 16.5249 15.4786 16.5249 16.1161C16.5272 16.1657 16.5322 16.215 16.5399 16.264C16.5459 16.305 16.5519 16.345 16.5559 16.386C16.5782 16.584 16.5267 16.7831 16.4111 16.9454C16.2956 17.1076 16.1242 17.2215 15.9299 17.2651C14.406 17.6076 12.953 18.2112 11.6349 19.0491C11.4665 19.156 11.2645 19.1968 11.0678 19.1635C10.8712 19.1303 10.6938 19.0254 10.5699 18.8691C10.5449 18.8381 10.5209 18.8061 10.4969 18.7751C10.4658 18.7329 10.4324 18.6925 10.3969 18.6541C10.1736 18.4308 9.90861 18.2537 9.61692 18.1329C9.32523 18.0121 9.0126 17.9499 8.69688 17.9499C8.38116 17.9499 8.06854 18.0121 7.77686 18.1329C7.48517 18.2537 7.22013 18.4308 6.99689 18.6541C6.77364 18.8773 6.59655 19.1423 6.47573 19.434C6.35491 19.7257 6.29272 20.0383 6.29272 20.3541C6.29272 20.6698 6.35491 20.9824 6.47573 21.2741C6.59655 21.5658 6.77364 21.8308 6.99689 22.0541C7.02189 22.0781 7.06889 22.1141 7.11889 22.1541C7.14989 22.1781 7.18088 22.2011 7.21088 22.2261C7.37121 22.3489 7.4796 22.5274 7.5146 22.7263C7.54959 22.9251 7.50866 23.1299 7.39989 23.3C6.56181 24.6197 5.95856 26.0745 5.61688 27.6C5.57287 27.7942 5.45894 27.9653 5.29681 28.0807C5.13469 28.1962 4.93572 28.248 4.73788 28.2261L4.61488 28.2101C4.56586 28.2024 4.51646 28.1974 4.46689 28.1951C3.82957 28.1951 3.21836 28.4482 2.76771 28.8989C2.31706 29.3495 2.06389 29.9608 2.06389 30.5981C2.06389 31.2354 2.31706 31.8466 2.76771 32.2972C3.21836 32.7479 3.82957 33.001 4.46689 33.001C4.51712 32.9988 4.56719 32.9938 4.61688 32.9861L4.73589 32.97C4.93404 32.9476 5.13349 32.9991 5.29605 33.1146C5.45861 33.2301 5.57285 33.4016 5.61688 33.5961C5.95901 35.1199 6.56225 36.573 7.39989 37.8911C7.50709 38.0595 7.54802 38.2618 7.51477 38.4587C7.48152 38.6556 7.37646 38.8331 7.21989 38.957L7.12589 39.0291C7.08342 39.0601 7.04269 39.0936 7.00388 39.1291C6.78064 39.3523 6.60355 39.6174 6.48273 39.9091C6.36191 40.2007 6.29972 40.5133 6.29972 40.829C6.29972 41.1448 6.36191 41.4574 6.48273 41.7491C6.60355 42.0408 6.78064 42.3058 7.00388 42.5291C7.22713 42.7523 7.49217 42.9294 7.78385 43.0502C8.07554 43.1711 8.38817 43.2332 8.70389 43.2332C9.01961 43.2332 9.33223 43.1711 9.62392 43.0502C9.9156 42.9294 10.1806 42.7523 10.4039 42.5291C10.4394 42.4906 10.4728 42.4502 10.5039 42.4081L10.5759 42.3141C10.6507 42.2177 10.7463 42.1394 10.8555 42.085C10.9648 42.0307 11.0849 42.0016 11.2069 42.0001V42.0001ZM18.9319 41.0001C16.8738 41.0001 14.8619 40.3898 13.1506 39.2463C11.4394 38.1029 10.1056 36.4777 9.31799 34.5763C8.53039 32.6748 8.32432 30.5825 8.72584 28.564C9.12736 26.5454 10.1184 24.6912 11.5737 23.2359C13.029 21.7806 14.8832 20.7895 16.9018 20.388C18.9203 19.9865 21.0126 20.1926 22.9141 20.9802C24.8155 21.7678 26.4407 23.1015 27.5842 24.8128C28.7276 26.5241 29.3379 28.5359 29.3379 30.5941C29.3347 33.3529 28.2373 35.9979 26.2865 37.9487C24.3357 39.8995 21.6908 40.9969 18.9319 41.0001V41.0001ZM18.9319 21.8C17.1934 21.8 15.4939 22.3156 14.0484 23.2814C12.6029 24.2473 11.4763 25.6201 10.811 27.2263C10.1457 28.8324 9.97162 30.5998 10.3108 32.3049C10.6499 34.01 11.4871 35.5762 12.7164 36.8055C13.9457 38.0348 15.5119 38.872 17.217 39.2112C18.9221 39.5503 20.6895 39.3762 22.2957 38.7109C23.9018 38.0456 25.2746 36.919 26.2405 35.4735C27.2064 34.028 27.7219 32.3286 27.7219 30.5901C27.7192 28.2596 26.7923 26.0254 25.1444 24.3775C23.4966 22.7296 21.2623 21.8027 18.9319 21.8V21.8Z"/>
<path d="M66.625 5.41111C66.625 2.84575 64.5453 0.766113 61.98 0.766113C59.4146 0.766113 57.335 2.84575 57.335 5.41111V52.8311C57.335 55.3965 59.4146 57.4761 61.98 57.4761C64.5453 57.4761 66.625 55.3965 66.625 52.8311V5.41111Z"/>
</svg>
