<svg width="66" height="58" viewBox="0 0 66 58" fill="#47ABD8" xmlns="http://www.w3.org/2000/svg">
<path d="M34.6821 14.3999H3.57014C2.7933 14.4007 2.0485 14.7096 1.49919 15.2589C0.949882 15.8082 0.640931 16.5531 0.640137 17.3299V36.2239C0.641196 37.0005 0.950261 37.7451 1.49954 38.2942C2.04882 38.8433 2.79347 39.1521 3.57014 39.1529H34.6821C35.4587 39.1521 36.2033 38.8433 36.7524 38.2941C37.3015 37.745 37.6103 37.0005 37.6111 36.2239V17.3249C37.609 16.5491 37.2996 15.8057 36.7507 15.2575C36.2017 14.7093 35.4579 14.401 34.6821 14.3999ZM3.57014 16.0119H34.6821C34.8549 16.0114 35.0262 16.0449 35.186 16.1107C35.3458 16.1764 35.4911 16.273 35.6135 16.395C35.7359 16.5169 35.8331 16.6618 35.8994 16.8214C35.9658 16.981 36 17.1521 36.0001 17.3249V20.4919H2.25613V17.3249C2.25666 16.9767 2.39531 16.6428 2.64165 16.3967C2.88798 16.1505 3.2219 16.0122 3.57014 16.0119ZM36.0001 25.0999H2.25613V22.0999H36.0001V25.0999ZM34.6871 37.5279H3.57014C3.2219 37.5276 2.88798 37.3892 2.64165 37.1431C2.39531 36.8969 2.25666 36.5631 2.25613 36.2149V26.7149H36.0001V36.2149C36.0005 36.3881 35.9667 36.5595 35.9006 36.7195C35.8345 36.8796 35.7374 37.025 35.6149 37.1474C35.4925 37.2698 35.347 37.3668 35.1869 37.4327C35.0268 37.4987 34.8553 37.5324 34.6821 37.5319L34.6871 37.5279Z"/>
<path d="M65.625 5.30809C65.625 2.74272 63.5453 0.663086 60.98 0.663086C58.4146 0.663086 56.335 2.74272 56.335 5.30809V52.7281C56.335 55.2934 58.4146 57.3731 60.98 57.3731C63.5453 57.3731 65.625 55.2934 65.625 52.7281V5.30809Z"/>
</svg>
