<svg width="67" height="58" viewBox="0 0 67 58" fill="#47ABD8" xmlns="http://www.w3.org/2000/svg">
<path d="M37.0271 17.9349C36.8863 17.8497 36.7228 17.8096 36.5585 17.8199C36.3943 17.8303 36.2371 17.8907 36.1081 17.9929L27.4831 24.8309L19.6081 12.8109C19.5345 12.6989 19.4341 12.6069 19.3162 12.5432C19.1982 12.4796 19.0662 12.4463 18.9321 12.4463C18.7981 12.4463 18.6661 12.4796 18.5481 12.5432C18.4301 12.6069 18.3298 12.6989 18.2561 12.8109L10.3811 24.8309L1.75713 17.9929C1.62816 17.8891 1.4704 17.8273 1.3052 17.816C1.14 17.8048 0.975333 17.8446 0.833493 17.9301C0.691653 18.0155 0.57949 18.1424 0.512174 18.2937C0.444857 18.445 0.425639 18.6133 0.457127 18.7759L3.90013 37.0999C3.96913 38.4649 5.57312 39.5559 8.67312 40.3429C12.0374 41.1074 15.4804 41.4707 18.9301 41.4249C22.3802 41.4706 25.8235 41.1074 29.1881 40.3429C32.2881 39.5559 33.8881 38.4649 33.9611 37.0999L37.4021 18.7728C37.432 18.6116 37.4122 18.4451 37.3452 18.2954C37.2782 18.1457 37.1673 18.0201 37.0271 17.9349ZM28.7931 38.7789C25.5584 39.511 22.2483 39.8573 18.9321 39.8109C15.6162 39.8573 12.3065 39.5109 9.07213 38.7789C6.17213 38.0419 5.51513 37.2349 5.51513 37.0099C5.51513 36.7849 6.16813 35.9778 9.07213 35.2408C12.3065 34.5088 15.6162 34.1624 18.9321 34.2089C22.2483 34.1624 25.5584 34.5088 28.7931 35.2408C31.6931 35.9778 32.3501 36.7849 32.3501 37.0099C32.3501 37.2349 31.7001 38.0419 28.7931 38.7789ZM32.7001 35.0698C31.6156 34.4123 30.4295 33.9393 29.1901 33.6699C25.8255 32.9055 22.3822 32.5422 18.9321 32.5879C15.4824 32.5422 12.0394 32.9054 8.67513 33.6699C7.43577 33.9393 6.24968 34.4123 5.16513 35.0698L2.44812 20.5999L10.0701 26.6428C10.1582 26.7124 10.2598 26.7629 10.3684 26.7911C10.4771 26.8193 10.5904 26.8246 10.7012 26.8066C10.812 26.7887 10.9178 26.7479 11.012 26.6868C11.1061 26.6257 11.1866 26.5458 11.2481 26.4519L18.9321 14.7249L26.6161 26.4519C26.6777 26.5458 26.7581 26.6257 26.8523 26.6868C26.9464 26.7479 27.0523 26.7887 27.1631 26.8066C27.2739 26.8246 27.3872 26.8193 27.4958 26.7911C27.6045 26.7629 27.7061 26.7124 27.7941 26.6428L35.4161 20.5999L32.7001 35.0698Z"/>
<path d="M66.625 4.9741C66.625 2.40874 64.5453 0.329102 61.98 0.329102C59.4146 0.329102 57.335 2.40874 57.335 4.9741V52.9741C57.335 55.5395 59.4146 57.6191 61.98 57.6191C64.5453 57.6191 66.625 55.5395 66.625 52.9741V4.9741Z"/>
</svg>
