<svg width="63" height="58" viewBox="0 0 63 58" fill="#47ABD8" xmlns="http://www.w3.org/2000/svg">
<path d="M16.0558 42.4001C13.9968 42.4001 8.58885 39.7001 4.80285 35.4711C3.1483 33.7531 1.88437 31.698 1.09752 29.4463C0.310672 27.1947 0.0194773 24.7997 0.243852 22.4251C0.927852 16.2661 1.22685 13.4921 1.35685 12.2501C1.39414 11.8726 1.53657 11.5132 1.76798 11.2127C1.99938 10.9122 2.31046 10.6826 2.66585 10.5501L15.9088 5.55507C16.3851 5.37406 16.9121 5.37907 17.3849 5.56907L29.8258 10.5381C30.1813 10.6782 30.4898 10.9161 30.7157 11.2242C30.9417 11.5323 31.0759 11.898 31.1028 12.2791C31.1908 13.4461 31.4308 16.3791 32.0468 22.8991V22.9101C32.2258 25.2703 31.9018 27.6415 31.0963 29.8672C30.2907 32.0929 29.022 34.1222 27.3738 35.8211C23.3368 40.2001 17.9418 42.4001 16.0558 42.4001ZM16.6288 7.04509C16.578 7.04512 16.5275 7.05424 16.4799 7.07207L3.23585 12.0671C3.16237 12.0944 3.09802 12.1417 3.05011 12.2038C3.00221 12.2658 2.97266 12.3401 2.96485 12.4181C2.83385 13.6631 2.53485 16.4401 1.85085 22.6031C1.66428 24.7509 1.93854 26.9137 2.65527 28.947C3.372 30.9803 4.51467 32.837 6.00685 34.3931C9.78085 38.6091 14.7608 40.7831 16.0558 40.7831C17.3078 40.7831 22.3198 38.9221 26.1868 34.7301C27.6912 33.2017 28.8493 31.3677 29.5826 29.3525C30.3159 27.3372 30.6072 25.1878 30.4368 23.0501C29.8198 16.5211 29.5798 13.5781 29.4918 12.4051C29.4862 12.326 29.4584 12.2502 29.4115 12.1863C29.3646 12.1224 29.3006 12.0731 29.2268 12.0441L16.7859 7.07509C16.7359 7.05525 16.6826 7.04507 16.6288 7.04509Z"/>
<path d="M22.306 32.7221C22.1352 32.722 21.9689 32.6678 21.831 32.5671L16.125 28.4142L10.42 32.5551C10.2821 32.6547 10.1164 32.7082 9.94641 32.7081C9.77641 32.708 9.61077 32.6542 9.47307 32.5545C9.33538 32.4548 9.23263 32.3142 9.17947 32.1528C9.1263 31.9913 9.12542 31.8172 9.17695 31.6552L11.355 24.9821L5.65495 20.8691C5.51648 20.7691 5.41327 20.6278 5.36014 20.4655C5.30702 20.3031 5.3067 20.1281 5.35925 19.9656C5.4118 19.803 5.51451 19.6614 5.65262 19.5609C5.79073 19.4603 5.95714 19.4062 6.12795 19.4062H13.18L15.359 12.6992C15.4114 12.5365 15.5141 12.3946 15.6523 12.294C15.7905 12.1934 15.957 12.1392 16.128 12.1392C16.2989 12.1392 16.4654 12.1934 16.6036 12.294C16.7418 12.3946 16.8445 12.5365 16.897 12.6992L19.0759 19.4062H26.128C26.2988 19.4062 26.4652 19.4603 26.6033 19.5609C26.7414 19.6614 26.8441 19.803 26.8967 19.9656C26.9492 20.1281 26.9489 20.3031 26.8958 20.4655C26.8426 20.6278 26.7394 20.7691 26.601 20.8691L20.901 24.9811L23.079 31.6682C23.1182 31.7895 23.1282 31.9185 23.1081 32.0444C23.0881 32.1704 23.0386 32.2899 22.9636 32.3931C22.8886 32.4963 22.7904 32.5804 22.6768 32.6384C22.5632 32.6965 22.4375 32.7269 22.3099 32.7271L22.306 32.7221ZM16.126 26.6061C16.297 26.6063 16.4636 26.6605 16.602 26.7611L20.766 29.7921L19.177 24.9152C19.1244 24.7518 19.1252 24.5761 19.1791 24.4132C19.233 24.2504 19.3373 24.1089 19.477 24.0092L23.628 21.0172H18.487C18.3163 21.0171 18.15 20.9632 18.0119 20.8629C17.8738 20.7627 17.7709 20.6214 17.718 20.4592L16.126 15.5591L14.5339 20.4592C14.481 20.6214 14.3781 20.7627 14.24 20.8629C14.1019 20.9632 13.9356 21.0171 13.765 21.0172H8.62695L12.779 24.0121C12.9187 24.1117 13.0231 24.2532 13.077 24.4161C13.1309 24.579 13.1316 24.7548 13.079 24.9182L11.49 29.7841L15.655 26.7611C15.7918 26.6613 15.9566 26.6071 16.126 26.6061Z"/>
<path d="M62.625 5.05613C62.625 2.49077 60.5453 0.411133 57.98 0.411133C55.4146 0.411133 53.335 2.49077 53.335 5.05613V52.4761C53.335 55.0415 55.4146 57.1211 57.98 57.1211C60.5453 57.1211 62.625 55.0415 62.625 52.4761V5.05613Z"/>
</svg>
