<svg width="67" height="58" viewBox="0 0 67 58" fill="#47ABD8" xmlns="http://www.w3.org/2000/svg">
<path d="M19.3181 7.35107C15.6617 7.35028 12.0872 8.4338 9.04666 10.4646C6.00611 12.4955 3.63609 15.3824 2.23634 18.7603C0.836599 22.1381 0.470008 25.8552 1.18292 29.4414C1.89584 33.0276 3.65624 36.3219 6.24149 38.9076C8.82675 41.4933 12.1207 43.2542 15.7068 43.9677C19.2929 44.6812 23.0101 44.3152 26.3882 42.916C29.7663 41.5168 32.6536 39.1472 34.6849 36.107C36.7162 33.0668 37.8003 29.4925 37.8001 25.8361C37.7946 20.9358 35.8457 16.2377 32.3809 12.7724C28.9162 9.30708 24.2184 7.35743 19.3181 7.35107ZM34.5881 33.0001H28.6001C29.0614 30.9112 29.3153 28.7818 29.3581 26.6431H36.1701C36.0662 28.8455 35.5286 31.0058 34.5881 33.0001ZM2.46813 26.6431H9.28013C9.32333 28.7819 9.57757 30.9112 10.0391 33.0001H4.04813C3.108 31.0061 2.57106 28.8461 2.46813 26.644V26.6431ZM4.04813 18.67H10.0391C9.57757 20.7589 9.32333 22.8882 9.28013 25.027H2.46813C2.57119 22.825 3.10812 20.6651 4.04813 18.6711V18.67ZM20.1261 17.0541V9.04507C21.9831 9.41208 23.7371 11.0361 25.1341 13.7101C25.6874 14.7817 26.1432 15.9009 26.4961 17.0541H20.1261ZM26.9391 18.67C27.4271 20.7553 27.6952 22.8859 27.7391 25.027H20.1261V18.67H26.9391ZM18.5101 9.04507V17.0541H12.1391C12.4921 15.9009 12.9479 14.7817 13.5011 13.7101C14.9001 11.0371 16.6531 9.41305 18.5101 9.04605V9.04507ZM18.5101 18.67V25.027H10.9001C10.9435 22.8859 11.2117 20.7552 11.7001 18.67H18.5101ZM10.9001 26.644H18.5101V33.0001H11.7001C11.2117 30.9152 10.9436 28.7849 10.9001 26.644ZM18.5131 34.6171V42.626C16.6561 42.259 14.9011 40.636 13.5041 37.962C12.9509 36.8901 12.4951 35.7706 12.1421 34.6171H18.5131ZM20.1291 42.626V34.6171H26.5001C26.1472 35.7706 25.6914 36.8901 25.1381 37.962C23.7371 40.636 21.9831 42.259 20.1261 42.626H20.1291ZM20.1291 33.001V26.644H27.7421C27.6982 28.7852 27.4301 30.9158 26.9421 33.001H20.1291ZM29.3581 25.0281C29.3153 22.8893 29.0614 20.76 28.6001 18.6711H34.5911C35.5305 20.6656 36.0671 22.8258 36.1701 25.0281H29.3581ZM33.7191 17.0551H28.1821C27.7806 15.6406 27.2396 14.2696 26.5671 12.9621C25.9664 11.7772 25.2 10.6839 24.2911 9.71506C28.2196 10.9366 31.5695 13.5455 33.7161 17.0551H33.7191ZM14.3481 9.71506C13.4393 10.6839 12.6729 11.7772 12.0721 12.9621C11.3993 14.2694 10.8583 15.6405 10.4571 17.0551H4.91913C7.06612 13.5454 10.4164 10.9366 14.3451 9.71506H14.3481ZM4.92213 34.6151H10.4571C10.8583 36.0296 11.3993 37.4007 12.0721 38.7081C12.6724 39.8932 13.4388 40.9865 14.3481 41.9551C10.4186 40.7347 7.06722 38.1265 4.91913 34.6171L4.92213 34.6151ZM24.2941 41.9551C25.2034 40.9865 25.9698 39.8932 26.5701 38.7081C27.2426 37.4005 27.7836 36.0295 28.1851 34.6151H33.7191C31.5722 38.1259 28.221 40.7356 24.2911 41.957L24.2941 41.9551Z"/>
<path d="M66.625 5.50682C66.625 2.94145 64.5453 0.861816 61.98 0.861816C59.4146 0.861816 57.335 2.94145 57.335 5.50682V52.9268C57.335 55.4922 59.4146 57.5718 61.98 57.5718C64.5453 57.5718 66.625 55.4922 66.625 52.9268V5.50682Z"/>
</svg>
