<svg width="67" height="58" viewBox="0 0 67 58" fill="#47ABD8" xmlns="http://www.w3.org/2000/svg">
<path d="M37.4 37.8122L37.052 36.1602C36.6319 34.1757 35.5445 32.3952 33.971 31.1152C33.771 30.9562 33.571 30.8052 33.362 30.6642C34.3332 29.5365 34.8908 28.1112 34.9427 26.6238C34.9946 25.1364 34.5377 23.6758 33.6474 22.4831C32.7572 21.2904 31.4868 20.437 30.0461 20.0638C28.6053 19.6905 27.0804 19.8198 25.723 20.4302C25.0087 19.2718 24.0099 18.3155 22.8215 17.6522C21.6332 16.9888 20.2949 16.6406 18.934 16.6406C17.5731 16.6406 16.2348 16.9888 15.0465 17.6522C13.8582 18.3155 12.8593 19.2718 12.145 20.4302C10.7877 19.8198 9.26287 19.6904 7.82218 20.0635C6.38149 20.4367 5.11111 21.2899 4.22077 22.4824C3.33043 23.6749 2.87336 25.1354 2.92504 26.6227C2.97671 28.1101 3.53404 29.5354 4.505 30.6632C4.295 30.8052 4.09 30.9552 3.892 31.1152C2.31817 32.3949 1.2307 34.1756 0.811 36.1602L0.463 37.8122C0.438133 37.9299 0.439875 38.0517 0.468089 38.1686C0.496303 38.2856 0.550283 38.3948 0.626086 38.4882C0.70189 38.5817 0.797602 38.657 0.906238 38.7087C1.01487 38.7605 1.13368 38.7872 1.254 38.7872H36.61C36.7303 38.7871 36.849 38.7602 36.9575 38.7084C37.0661 38.6566 37.1617 38.5812 37.2375 38.4879C37.3132 38.3945 37.3672 38.2854 37.3955 38.1685C37.4238 38.0516 37.4257 37.9299 37.401 37.8122H37.4ZM28.4 21.4712C29.1702 21.4687 29.9303 21.6468 30.6192 21.9911C31.3082 22.3354 31.9069 22.8363 32.3673 23.4538C32.8277 24.0713 33.137 24.788 33.2704 25.5466C33.4038 26.3051 33.3575 27.0844 33.1353 27.8219C32.9132 28.5594 32.5213 29.2345 31.9911 29.7932C31.4609 30.3519 30.8071 30.7785 30.0823 31.0389C29.3574 31.2993 28.5816 31.3862 27.8171 31.2927C27.0526 31.1991 26.3207 30.9277 25.68 30.5002C25.55 30.3822 25.417 30.2662 25.28 30.1552C25.165 30.0612 25.047 29.9722 24.928 29.8842C25.875 28.8082 26.5142 27.4967 26.7782 26.0878C27.0422 24.679 26.9212 23.2251 26.428 21.8792C27.0501 21.6083 27.7215 21.4694 28.4 21.4712ZM18.932 18.2572C20.1911 18.2572 21.4219 18.6305 22.4688 19.33C23.5156 20.0295 24.3316 21.0238 24.8134 22.187C25.2952 23.3502 25.4213 24.6302 25.1757 25.8651C24.9301 27.1 24.3237 28.2343 23.4334 29.1246C22.5431 30.0149 21.4088 30.6212 20.1739 30.8669C18.9391 31.1125 17.6591 30.9864 16.4958 30.5046C15.3326 30.0227 14.3384 29.2069 13.6389 28.16C12.9394 27.1131 12.566 25.8822 12.566 24.6232C12.5681 22.9349 13.2399 21.3165 14.434 20.123C15.628 18.9296 17.2468 18.2585 18.935 18.2572H18.932ZM9.463 21.4712C10.1413 21.4705 10.8125 21.6104 11.434 21.8822C10.942 23.2274 10.8216 24.6803 11.0856 26.0881C11.3496 27.496 11.9881 28.8066 12.934 29.8822C12.814 29.9702 12.695 30.0602 12.579 30.1552C12.437 30.2702 12.299 30.3902 12.164 30.5132C11.522 30.9352 10.7903 31.2012 10.0272 31.2901C9.26415 31.379 8.49086 31.2882 7.7691 31.0251C7.04734 30.7619 6.3971 30.3336 5.87029 29.7745C5.34348 29.2153 4.95469 28.5408 4.73497 27.8046C4.51525 27.0685 4.47068 26.2912 4.60482 25.5347C4.73896 24.7783 5.0481 24.0637 5.50754 23.448C5.96699 22.8323 6.56401 22.3325 7.25096 21.9886C7.93792 21.6447 8.69576 21.4661 9.464 21.4672L9.463 21.4712ZM2.391 36.4932C2.59895 35.5206 3.00507 34.6014 3.58403 33.7927C4.16298 32.9841 4.90234 32.3035 5.756 31.7932C7.06433 32.6964 8.65743 33.0907 10.236 32.9022C9.68894 33.8355 9.29558 34.8509 9.071 35.9092L8.805 37.1742H2.251L2.391 36.4932ZM10.457 37.1712L10.657 36.2392C11.0189 34.531 11.8994 32.9762 13.178 31.7872C13.4701 31.5851 13.7453 31.3596 14.001 31.1132C14.051 31.0782 14.101 31.0432 14.152 31.0132C15.5315 32.0495 17.2102 32.6098 18.9355 32.6098C20.6609 32.6098 22.3396 32.0495 23.719 31.0132C23.773 31.0512 23.827 31.0882 23.88 31.1272C24.1294 31.3646 24.3968 31.5823 24.68 31.7782C25.9653 32.9689 26.8505 34.5283 27.214 36.2422L27.414 37.1742L10.457 37.1712ZM29.057 37.1712L28.791 35.9062C28.5669 34.8477 28.1735 33.8323 27.626 32.8992C27.8842 32.9297 28.144 32.945 28.404 32.9452C29.7277 32.9468 31.0203 32.5441 32.109 31.7912C32.9623 32.3016 33.7013 32.9824 34.2799 33.791C34.8585 34.5996 35.2643 35.5188 35.472 36.4912L35.615 37.1692L29.057 37.1712Z"/>
<path d="M66.625 4.95896C66.625 2.3936 64.5453 0.313965 61.98 0.313965C59.4146 0.313965 57.335 2.3936 57.335 4.95896V52.379C57.335 54.9443 59.4146 57.024 61.98 57.024C64.5453 57.024 66.625 54.9443 66.625 52.379V4.95896Z"/>
</svg>
